<svg width="145" height="35" viewBox="0 0 145 35" fill="none" xmlns="http://www.w3.org/2000/svg">
<path d="M49.0117 16.3313C49.0117 15.5495 49.188 14.8482 49.5406 14.2273C49.8932 13.5988 50.3722 13.1083 50.9777 12.7557C51.5909 12.4031 52.2692 12.2268 53.0127 12.2268C53.8865 12.2268 54.6492 12.4376 55.3007 12.8591C55.9522 13.2807 56.4274 13.8786 56.7263 14.6527H55.4731C55.2508 14.1852 54.9289 13.8249 54.5074 13.572C54.0935 13.3114 53.5952 13.1811 53.0127 13.1811C52.4532 13.1811 51.9512 13.3114 51.5066 13.572C51.062 13.8249 50.7133 14.1928 50.4604 14.6757C50.2074 15.1509 50.081 15.7028 50.081 16.3313C50.081 16.9598 50.2074 17.5117 50.4604 17.9869C50.7133 18.4621 51.062 18.83 51.5066 19.0906C51.9512 19.3435 52.4532 19.47 53.0127 19.47C53.5952 19.47 54.0935 19.3435 54.5074 19.0906C54.9289 18.8377 55.2508 18.4774 55.4731 18.0099H56.7263C56.4274 18.7763 55.9522 19.3704 55.3007 19.7919C54.6492 20.2058 53.8865 20.4128 53.0127 20.4128C52.2692 20.4128 51.5909 20.2403 50.9777 19.8954C50.3722 19.5428 49.8932 19.0561 49.5406 18.4353C49.188 17.8144 49.0117 17.1131 49.0117 16.3313Z" fill="white"/>
<path d="M61.0315 20.4473C60.4413 20.4473 59.9048 20.3131 59.4219 20.0449C58.9467 19.7766 58.5711 19.3972 58.2952 18.9066C58.0269 18.4084 57.8928 17.8336 57.8928 17.1821C57.8928 16.5382 58.0308 15.971 58.3067 15.4805C58.5903 14.9823 58.9735 14.6029 59.4564 14.3423C59.9393 14.074 60.4797 13.9399 61.0775 13.9399C61.6754 13.9399 62.2157 14.074 62.6986 14.3423C63.1815 14.6029 63.5609 14.9785 63.8368 15.469C64.1204 15.9595 64.2622 16.5306 64.2622 17.1821C64.2622 17.8336 64.1166 18.4084 63.8253 18.9066C63.5417 19.3972 63.1547 19.7766 62.6641 20.0449C62.1736 20.3131 61.6294 20.4473 61.0315 20.4473ZM61.0315 19.562C61.4071 19.562 61.7597 19.4738 62.0893 19.2975C62.4189 19.1136 62.6833 18.8415 62.8826 18.4813C63.0895 18.121 63.193 17.6879 63.193 17.1821C63.193 16.6762 63.0934 16.247 62.8941 15.8944C62.6948 15.5342 62.4342 15.2659 62.1123 15.0896C61.7903 14.9133 61.4416 14.8252 61.066 14.8252C60.6828 14.8252 60.3302 14.9133 60.0083 15.0896C59.694 15.2659 59.4411 15.5342 59.2495 15.8944C59.0579 16.247 58.962 16.6762 58.962 17.1821C58.962 17.6956 59.054 18.1325 59.238 18.4927C59.4296 18.8453 59.6825 19.1136 59.9968 19.2975C60.311 19.4738 60.656 19.562 61.0315 19.562Z" fill="white"/>
<path d="M68.7076 13.9284C69.4741 13.9284 70.0949 14.1622 70.5701 14.6297C71.0453 15.0896 71.2829 15.7564 71.2829 16.6302V20.3438H70.2482V16.7797C70.2482 16.1512 70.0911 15.6721 69.7768 15.3425C69.4626 15.0053 69.0333 14.8367 68.4891 14.8367C67.9373 14.8367 67.4965 15.0091 67.167 15.354C66.845 15.6989 66.6841 16.201 66.6841 16.8602V20.3438H65.6378V14.0434H66.6841V14.9401C66.891 14.6182 67.1708 14.3691 67.5234 14.1928C67.8836 14.0165 68.2784 13.9284 68.7076 13.9284Z" fill="white"/>
<path d="M76.0617 13.9284C76.8282 13.9284 77.449 14.1622 77.9242 14.6297C78.3995 15.0896 78.6371 15.7564 78.6371 16.6302V20.3438H77.6023V16.7797C77.6023 16.1512 77.4452 15.6721 77.1309 15.3425C76.8167 15.0053 76.3875 14.8367 75.8433 14.8367C75.2914 14.8367 74.8507 15.0091 74.5211 15.354C74.1992 15.6989 74.0382 16.201 74.0382 16.8602V20.3438H72.992V14.0434H74.0382V14.9401C74.2452 14.6182 74.5249 14.3691 74.8775 14.1928C75.2377 14.0165 75.6325 13.9284 76.0617 13.9284Z" fill="white"/>
<path d="M86.0947 16.9291C86.0947 17.1208 86.0832 17.3277 86.0602 17.55H81.0244C81.0551 18.1708 81.262 18.6614 81.6453 19.0216C82.0362 19.3819 82.5114 19.562 83.0709 19.562C83.5231 19.562 83.8987 19.4585 84.1976 19.2516C84.5042 19.0369 84.7188 18.7534 84.8415 18.4008H85.9682C85.7996 19.0063 85.4623 19.5007 84.9565 19.8839C84.4506 20.2595 83.8221 20.4473 83.0709 20.4473C82.4731 20.4473 81.9365 20.3131 81.4613 20.0449C80.9938 19.7766 80.6259 19.3972 80.3576 18.9066C80.0893 18.4084 79.9552 17.8336 79.9552 17.1821C79.9552 16.5306 80.0855 15.9595 80.3461 15.469C80.6067 14.9785 80.9708 14.6029 81.4383 14.3423C81.9135 14.074 82.4577 13.9399 83.0709 13.9399C83.6688 13.9399 84.1938 14.0702 84.646 14.3308C85.1059 14.5914 85.4623 14.9478 85.7153 15.4C85.9682 15.8522 86.0947 16.3619 86.0947 16.9291ZM85.0139 16.7912C85.0139 16.3773 84.9258 16.0247 84.7495 15.7334C84.5732 15.4345 84.3318 15.2084 84.0252 15.0551C83.7263 14.9018 83.3928 14.8252 83.0249 14.8252C82.4884 14.8252 82.0323 15.0015 81.6568 15.354C81.2812 15.6989 81.0743 16.178 81.0359 16.7912H85.0139Z" fill="white"/>
<path d="M87.0848 17.1821C87.0848 16.5306 87.2151 15.9634 87.4757 15.4805C87.7363 14.99 88.0965 14.6105 88.5564 14.3423C89.024 14.074 89.5567 13.9399 90.1545 13.9399C90.9286 13.9399 91.5648 14.1277 92.063 14.5032C92.5689 14.8788 92.9023 15.4 93.0633 16.0669H91.9366C91.8293 15.6836 91.6185 15.3809 91.3042 15.1586C90.9976 14.9363 90.6144 14.8252 90.1545 14.8252C89.5567 14.8252 89.0738 15.0321 88.7059 15.446C88.338 15.8522 88.154 16.4309 88.154 17.1821C88.154 17.9409 88.338 18.5272 88.7059 18.9411C89.0738 19.355 89.5567 19.562 90.1545 19.562C90.6144 19.562 90.9976 19.4547 91.3042 19.2401C91.6108 19.0255 91.8216 18.7189 91.9366 18.3203H93.0633C92.8947 18.9641 92.5574 19.4815 92.0515 19.8724C91.5457 20.2556 90.9133 20.4473 90.1545 20.4473C89.5567 20.4473 89.024 20.3131 88.5564 20.0449C88.0965 19.7766 87.7363 19.3972 87.4757 18.9066C87.2151 18.4161 87.0848 17.8412 87.0848 17.1821Z" fill="white"/>
<path d="M95.7355 14.9056V18.6192C95.7355 18.9258 95.8006 19.1443 95.9309 19.2746C96.0612 19.3972 96.2873 19.4585 96.6093 19.4585H97.3796V20.3438H96.4368C95.8543 20.3438 95.4174 20.2097 95.1261 19.9414C94.8349 19.6731 94.6892 19.2324 94.6892 18.6192V14.9056H93.8729V14.0434H94.6892V12.4567H95.7355V14.0434H97.3796V14.9056H95.7355Z" fill="white"/>
<path d="M106.808 18.5617H103.313L102.67 20.3438H101.566L104.463 12.3763H105.67L108.556 20.3438H107.452L106.808 18.5617ZM106.521 17.7454L105.061 13.6639L103.601 17.7454H106.521Z" fill="white"/>
<path d="M112.417 13.9399C112.961 13.9399 113.437 14.0587 113.843 14.2963C114.257 14.5339 114.563 14.8328 114.763 15.1931V14.0434H115.82V20.4818C115.82 21.0566 115.698 21.5663 115.452 22.0109C115.207 22.4631 114.854 22.8157 114.395 23.0686C113.942 23.3215 113.414 23.448 112.808 23.448C111.98 23.448 111.29 23.2526 110.739 22.8617C110.187 22.4708 109.861 21.9381 109.761 21.2636H110.796C110.911 21.6468 111.149 21.9534 111.509 22.1833C111.869 22.4209 112.302 22.5397 112.808 22.5397C113.383 22.5397 113.85 22.3596 114.211 21.9994C114.579 21.6391 114.763 21.1333 114.763 20.4818V19.1596C114.556 19.5275 114.249 19.8341 113.843 20.0794C113.437 20.3246 112.961 20.4473 112.417 20.4473C111.858 20.4473 111.348 20.3093 110.888 20.0334C110.436 19.7574 110.079 19.3704 109.819 18.8722C109.558 18.3739 109.428 17.8068 109.428 17.1706C109.428 16.5267 109.558 15.9634 109.819 15.4805C110.079 14.99 110.436 14.6105 110.888 14.3423C111.348 14.074 111.858 13.9399 112.417 13.9399ZM114.763 17.1821C114.763 16.7069 114.667 16.293 114.475 15.9404C114.283 15.5878 114.023 15.3195 113.693 15.1356C113.371 14.944 113.015 14.8482 112.624 14.8482C112.233 14.8482 111.877 14.9401 111.555 15.1241C111.233 15.308 110.976 15.5763 110.785 15.9289C110.593 16.2815 110.497 16.6954 110.497 17.1706C110.497 17.6535 110.593 18.075 110.785 18.4353C110.976 18.7878 111.233 19.0599 111.555 19.2516C111.877 19.4355 112.233 19.5275 112.624 19.5275C113.015 19.5275 113.371 19.4355 113.693 19.2516C114.023 19.0599 114.283 18.7878 114.475 18.4353C114.667 18.075 114.763 17.6573 114.763 17.1821Z" fill="white"/>
<path d="M123.337 16.9291C123.337 17.1208 123.325 17.3277 123.302 17.55H118.267C118.297 18.1708 118.504 18.6614 118.887 19.0216C119.278 19.3819 119.754 19.562 120.313 19.562C120.765 19.562 121.141 19.4585 121.44 19.2516C121.746 19.0369 121.961 18.7534 122.084 18.4008H123.21C123.042 19.0063 122.705 19.5007 122.199 19.8839C121.693 20.2595 121.064 20.4473 120.313 20.4473C119.715 20.4473 119.179 20.3131 118.704 20.0449C118.236 19.7766 117.868 19.3972 117.6 18.9066C117.332 18.4084 117.197 17.8336 117.197 17.1821C117.197 16.5306 117.328 15.9595 117.588 15.469C117.849 14.9785 118.213 14.6029 118.681 14.3423C119.156 14.074 119.7 13.9399 120.313 13.9399C120.911 13.9399 121.436 14.0702 121.888 14.3308C122.348 14.5914 122.705 14.9478 122.957 15.4C123.21 15.8522 123.337 16.3619 123.337 16.9291ZM122.256 16.7912C122.256 16.3773 122.168 16.0247 121.992 15.7334C121.815 15.4345 121.574 15.2084 121.267 15.0551C120.968 14.9018 120.635 14.8252 120.267 14.8252C119.731 14.8252 119.275 15.0015 118.899 15.354C118.523 15.6989 118.316 16.178 118.278 16.7912H122.256Z" fill="white"/>
<path d="M127.788 13.9284C128.554 13.9284 129.175 14.1622 129.65 14.6297C130.125 15.0896 130.363 15.7564 130.363 16.6302V20.3438H129.328V16.7797C129.328 16.1512 129.171 15.6721 128.857 15.3425C128.543 15.0053 128.113 14.8367 127.569 14.8367C127.017 14.8367 126.577 15.0091 126.247 15.354C125.925 15.6989 125.764 16.201 125.764 16.8602V20.3438H124.718V14.0434H125.764V14.9401C125.971 14.6182 126.251 14.3691 126.603 14.1928C126.964 14.0165 127.358 13.9284 127.788 13.9284Z" fill="white"/>
<path d="M131.681 17.1821C131.681 16.5306 131.811 15.9634 132.072 15.4805C132.333 14.99 132.693 14.6105 133.153 14.3423C133.62 14.074 134.153 13.9399 134.751 13.9399C135.525 13.9399 136.161 14.1277 136.659 14.5032C137.165 14.8788 137.499 15.4 137.66 16.0669H136.533C136.426 15.6836 136.215 15.3809 135.901 15.1586C135.594 14.9363 135.211 14.8252 134.751 14.8252C134.153 14.8252 133.67 15.0321 133.302 15.446C132.934 15.8522 132.75 16.4309 132.75 17.1821C132.75 17.9409 132.934 18.5272 133.302 18.9411C133.67 19.355 134.153 19.562 134.751 19.562C135.211 19.562 135.594 19.4547 135.901 19.2401C136.207 19.0255 136.418 18.7189 136.533 18.3203H137.66C137.491 18.9641 137.154 19.4815 136.648 19.8724C136.142 20.2556 135.51 20.4473 134.751 20.4473C134.153 20.4473 133.62 20.3131 133.153 20.0449C132.693 19.7766 132.333 19.3972 132.072 18.9066C131.811 18.4161 131.681 17.8412 131.681 17.1821Z" fill="white"/>
<path d="M139.481 14.0434L141.436 19.1251L143.402 14.0434H144.482L140.688 23.3101H139.596L140.849 20.2748L138.308 14.0434H139.481Z" fill="white"/>
<path d="M24.7617 20.2734C23.7851 22.0923 22.1145 23.539 19.9814 24.1817C15.7153 25.4672 11.2148 23.0509 9.9294 18.7847C8.64396 14.5185 11.0603 10.0181 15.3265 8.73265C17.4596 8.08993 19.6512 8.37266 21.4702 9.34948L24.3562 3.97429C21.1615 2.25904 17.3125 1.76235 13.5661 2.89116C6.07366 5.14871 1.83005 13.0524 4.0876 20.5449C6.34515 28.0373 14.2489 32.2809 21.7413 30.0234C25.4874 28.8946 28.4215 26.3544 30.1369 23.1594L24.7617 20.2734Z" fill="white" fill-opacity="0.66"/>
<path d="M7.23455 19.5978C8.39569 23.4514 11.0506 26.4445 14.3747 28.1358C20.0462 31.021 27.0494 28.828 30.0962 23.2417C30.1111 23.2142 30.1259 23.1871 30.1405 23.1595L26.5106 21.2105C25.5981 22.1262 24.4524 22.8355 23.1278 23.2346C22.5893 23.3968 22.0472 23.4998 21.5081 23.5477C20.7771 23.9436 19.9683 24.236 19.0933 24.3969C15.2802 25.0986 11.4496 22.915 10.0996 19.2806C8.46222 14.8729 10.8979 10.0676 15.3297 8.73227C15.8683 8.57001 16.4104 8.46708 16.9495 8.41913C17.4253 8.16129 17.934 7.94757 18.4726 7.78531C19.7972 7.3862 21.144 7.34446 22.4105 7.60358L24.3594 3.97367C24.332 3.95898 24.3046 3.94428 24.2771 3.92989C18.6513 0.956723 11.602 2.99787 8.46861 8.53608C6.63285 11.7826 6.07342 15.7442 7.23455 19.5978Z" fill="white" fill-opacity="0.66"/>
<path d="M14.7916 28.0094C11.4673 26.3182 8.81256 23.3251 7.65143 19.4714C6.49029 15.6178 7.04973 11.6562 8.8861 8.41006C10.3987 5.73669 12.8246 3.88111 15.5614 3.00829C12.6543 3.82024 10.0575 5.7273 8.46841 8.53591C6.6318 11.7822 6.07261 15.7437 7.23374 19.5973C8.39488 23.4509 11.0498 26.444 14.3739 28.1353C17.2502 29.5987 20.4682 29.7534 23.34 28.8241C20.5763 29.6086 17.5294 29.4024 14.7916 28.0094Z" fill="white" fill-opacity="0.66"/>
<path d="M24.3594 3.97403L18.0833 15.6636C18.0833 15.6636 18.6243 13.0846 17.4102 11.2221C15.5541 8.37463 8.53458 12.6596 9.77299 18.1676C9.77299 18.1676 7.72588 11.3735 13.2253 6.29906C18.4546 1.47373 24.3594 3.97403 24.3594 3.97403Z" fill="white" fill-opacity="0.66"/>
<path d="M21.7591 8.8175C19.6951 6.34193 16.1287 6.30897 13.3857 8.59382C10.1085 11.3237 9.61008 14.7261 9.63204 16.652C9.80852 11.9171 15.729 8.64194 17.4107 11.2218C18.6247 13.084 18.0837 15.6633 18.0837 15.6633L21.7591 8.8175Z" fill="white" fill-opacity="0.66"/>
<path d="M13.3226 6.62159C17.9532 2.34864 23.1105 3.81927 24.2312 4.21231L24.3594 3.97354C24.3594 3.97354 18.4546 1.47324 13.2253 6.29857C7.72588 11.3731 9.77299 18.1671 9.77299 18.1671C9.72936 17.9732 9.69857 17.7813 9.67477 17.5907C9.3346 15.5783 9.03535 10.5777 13.3226 6.62159Z" fill="white" fill-opacity="0.66"/>
<path d="M30.1364 23.1591L22.4939 19.0557C21.821 18.6943 20.3339 20.193 20.3397 20.9568C20.3657 24.3557 12.1474 24.662 10.1367 19.3867C10.1367 19.3867 12.1838 26.1808 19.5713 27.3723C26.5959 28.5054 30.1364 23.1591 30.1364 23.1591Z" fill="white" fill-opacity="0.66"/>
<path d="M25.2732 20.5449C24.9204 23.7487 21.966 25.7464 18.4173 25.3573C14.1775 24.8924 11.8823 22.3318 10.8366 20.7143C13.5996 24.5635 20.3439 24.0227 20.3204 20.9432C20.3146 20.1794 21.8015 18.6808 22.4745 19.0422L25.2732 20.5449Z" fill="white" fill-opacity="0.66"/>
<path d="M19.4739 27.05C25.6943 28.0535 29.1806 23.9784 29.8976 23.0317L30.1364 23.1599C30.1364 23.1599 26.5958 28.5062 19.5713 27.3733C12.1838 26.1817 10.1367 19.3877 10.1367 19.3877C10.2075 19.5734 10.2878 19.7504 10.3733 19.9224C11.2015 21.7875 13.7147 26.121 19.4739 27.05Z" fill="white" fill-opacity="0.66"/>
<path d="M37.9271 21.8767C37.3968 21.8165 36.7695 21.6326 36.0654 21.3283C35.8705 21.244 35.6741 21.1517 35.4779 21.0509L35.4759 21.0508C33.5823 20.0892 31.6582 18.472 29.7943 16.9072C28.985 16.2283 28.2184 15.5825 27.4882 15.0181C26.4962 14.2516 25.5694 13.6336 24.7032 13.2795L28.0609 6.93676C28.3615 6.36885 28.9652 6.02992 29.6048 6.06573L30.6953 6.12678C31.1279 6.151 31.5224 6.34221 31.8068 6.64929C31.9453 6.79345 32.0577 6.96887 32.1345 7.16462L37.9271 21.8767Z" fill="white" fill-opacity="0.66"/>
<path d="M39.1565 30.5703C39.0559 30.583 38.9519 30.5874 38.8461 30.5814L36.1738 30.4318C35.528 30.3957 34.9624 29.9831 34.7314 29.3794L32.5156 23.6208C33.7895 24.0813 35.0632 24.3604 36.2207 24.4252C36.4115 24.4359 36.6008 24.4403 36.7841 24.4384C37.5321 24.4334 38.2182 24.3292 38.8067 24.1157L40.4689 28.3377C40.8685 29.3543 40.1865 30.4365 39.1565 30.5703Z" fill="white" fill-opacity="0.66"/>
<path d="M27.0377 19.6659C22.0341 15.0225 18.732 16.9132 18.6309 16.9728C18.631 16.9708 18.633 16.9709 18.6331 16.969C18.6961 16.7912 20.315 12.4676 23.2996 13.1888C26.3447 13.9234 30.8335 19.6463 35.1911 21.6054C38.2648 22.9897 39.3421 21.8683 39.7098 21.0864C39.7119 21.0845 39.7119 21.0845 39.712 21.0825C39.8645 20.759 39.8937 20.4938 39.8937 20.4938C39.829 25.5071 31.4836 23.7912 27.0377 19.6659Z" fill="white" fill-opacity="0.66"/>
<path opacity="0.5" d="M27.0371 19.6663C25.7958 18.5143 24.6591 17.7644 23.6501 17.289C20.5921 15.8483 18.7063 16.9284 18.6303 16.9732C18.6305 16.9712 18.6324 16.9713 18.6326 16.9693C18.7831 16.7922 22.0993 13.0079 25.8521 16.2003C29.6904 19.4667 31.5227 22.3599 35.1256 22.7349C38.3497 23.0702 39.166 22.6434 39.7094 21.087C39.7115 21.0851 39.7115 21.0851 39.7116 21.0831C39.7749 20.9012 39.8346 20.7071 39.8934 20.4944C39.8285 25.5074 31.483 23.7915 27.0371 19.6663Z" fill="white" fill-opacity="0.66"/>
<path opacity="0.5" d="M31.8106 6.65049L27.4921 15.0191C26.5002 14.2526 25.5733 13.6345 24.7071 13.2805L28.0648 6.93774C28.3654 6.36983 28.9692 6.0309 29.6087 6.06671L30.6992 6.12776C31.1318 6.15198 31.5263 6.34319 31.8106 6.65049Z" fill="white" fill-opacity="0.66"/>
<path opacity="0.5" d="M37.9286 21.8772C37.3983 21.817 36.771 21.6331 36.0669 21.3288C35.8719 21.2445 35.6755 21.1522 35.4793 21.0514L35.4773 21.0513L29.6836 6.07056L30.6969 6.12729C31.1295 6.15151 31.5241 6.34272 31.8084 6.6498C31.9469 6.79396 32.0593 6.96938 32.1362 7.16513L37.9286 21.8772Z" fill="white" fill-opacity="0.66"/>
<path opacity="0.5" d="M39.1603 30.5706L36.7882 24.4387C37.5361 24.4338 38.2222 24.3296 38.8107 24.116L40.4729 28.3381C40.8723 29.3546 40.1903 30.4369 39.1603 30.5706Z" fill="white" fill-opacity="0.66"/>
</svg>
