<svg width="39" height="39" viewBox="0 0 39 39" fill="none" xmlns="http://www.w3.org/2000/svg">
<path d="M16.8009 2.29107C16.8009 1.02575 17.8267 0 19.092 0C20.3573 0 21.3831 1.02575 21.3831 2.29107V35.8935C21.3831 37.1588 20.3573 38.1846 19.092 38.1846C17.8267 38.1846 16.8009 37.1588 16.8009 35.8935V2.29107Z" fill="black"/>
<path d="M35.8935 16.8009C37.1588 16.8009 38.1846 17.8267 38.1846 19.092C38.1846 20.3573 37.1588 21.3831 35.8935 21.3831H2.29107C1.02575 21.3831 -5.53091e-08 20.3573 0 19.092C5.53091e-08 17.8267 1.02575 16.8009 2.29107 16.8009L35.8935 16.8009Z" fill="black"/>
</svg>
