<svg width="152" height="152" viewBox="0 0 152 152" fill="none" xmlns="http://www.w3.org/2000/svg">
<path d="M58.2708 24.8654C51.0166 27.3536 44.3788 31.3653 38.8031 36.6308C33.2274 41.8964 28.843 48.294 25.9441 55.3941C23.0452 62.4941 21.6991 70.1323 21.9961 77.7956C22.2931 85.4589 24.2263 92.9699 27.666 99.8244L33.2724 97.011C30.2341 90.9564 28.5264 84.3218 28.2641 77.5527C28.0018 70.7836 29.1908 64.0367 31.7514 57.7651C34.312 51.4935 38.1849 45.8424 43.11 41.1913C48.035 36.5402 53.8983 32.9967 60.306 30.7987L58.2708 24.8654Z" fill="#D9D9D9"/>
<path d="M55.6896 29.2224C55.0045 27.6313 55.7363 25.7767 57.3647 25.1855C66.3381 21.9275 76.0374 21.1116 85.4626 22.8503C95.9182 24.7792 105.567 29.7652 113.189 37.1778C120.811 44.5905 126.064 54.0968 128.283 64.4946C130.502 74.8925 129.588 85.7149 125.656 95.5934C121.725 105.472 114.952 113.962 106.195 119.992C97.4377 126.021 87.0893 129.318 76.4583 129.466C65.8273 129.614 55.3911 126.606 46.4695 120.823C38.4272 115.61 31.9412 108.352 27.6606 99.8192C26.8838 98.2707 27.6265 96.4205 29.2176 95.7353V95.7353C30.8087 95.0501 32.6448 95.7904 33.4334 97.3328C37.2152 104.729 42.881 111.021 49.882 115.559C57.7624 120.667 66.9806 123.324 76.371 123.193C85.7614 123.063 94.9021 120.15 102.637 114.825C110.372 109.499 116.355 101.999 119.827 93.2735C123.3 84.5479 124.108 74.9885 122.147 65.8041C120.187 56.6196 115.548 48.2227 108.815 41.6752C102.083 35.1276 93.5599 30.7235 84.3245 29.0197C76.1197 27.5061 67.6798 28.1841 59.8502 30.9587C58.2173 31.5374 56.3748 30.8135 55.6896 29.2224V29.2224Z" fill="#DE0400"/>
<path d="M55.6896 29.2224C55.0045 27.6313 55.7363 25.7767 57.3647 25.1855C66.3381 21.9275 76.0374 21.1116 85.4626 22.8503C95.9182 24.7792 105.567 29.7652 113.189 37.1778C120.811 44.5905 126.064 54.0968 128.283 64.4946C130.502 74.8925 129.588 85.7149 125.656 95.5934C121.725 105.472 114.952 113.962 106.195 119.992C97.4377 126.021 87.0893 129.318 76.4583 129.466C65.8273 129.614 55.3911 126.606 46.4695 120.823C38.4272 115.61 31.9412 108.352 27.6606 99.8192C26.8838 98.2707 27.6265 96.4205 29.2176 95.7353V95.7353C30.8087 95.0501 32.6448 95.7904 33.4334 97.3328C37.2152 104.729 42.881 111.021 49.882 115.559C57.7624 120.667 66.9806 123.324 76.371 123.193C85.7614 123.063 94.9021 120.15 102.637 114.825C110.372 109.499 116.355 101.999 119.827 93.2735C123.3 84.5479 124.108 74.9885 122.147 65.8041C120.187 56.6196 115.548 48.2227 108.815 41.6752C102.083 35.1276 93.5599 30.7235 84.3245 29.0197C76.1197 27.5061 67.6798 28.1841 59.8502 30.9587C58.2173 31.5374 56.3748 30.8135 55.6896 29.2224V29.2224Z" fill="url(#paint0_linear_3159_132)"/>
<path d="M77.0664 54.6716L77.1088 79.8561" stroke="#171717" stroke-width="6" stroke-linecap="round"/>
<path d="M56.0586 102.309L77.1184 79.8563" stroke="#171717" stroke-width="6" stroke-linecap="round"/>
<defs>
<linearGradient id="paint0_linear_3159_132" x1="125.084" y1="54.4538" x2="26.3366" y2="96.9759" gradientUnits="userSpaceOnUse">
<stop stop-color="#353D76"/>
<stop offset="1" stop-color="#6372DC"/>
</linearGradient>
</defs>
</svg>
