<svg width="15" height="24" viewBox="0 0 15 24" fill="none" xmlns="http://www.w3.org/2000/svg">
<path d="M12.9189 1L13.0215 1.00488C13.5258 1.05599 13.9189 1.48216 13.9189 2V5.9707C13.9189 6.52299 13.4712 6.9707 12.9189 6.9707H9.94824V8.94141H12.9189C13.2269 8.94141 13.5185 9.08346 13.708 9.32617C13.8973 9.56876 13.9642 9.88507 13.8896 10.1836L12.8965 14.1543C12.7852 14.5995 12.3856 14.9121 11.9268 14.9121H9.94824V21.8535C9.94824 22.4058 9.50053 22.8535 8.94824 22.8535H4.97754C4.42548 22.8533 3.97754 22.4056 3.97754 21.8535V14.9121H2C1.44772 14.9121 1 14.4644 1 13.9121V9.94141L1.00488 9.83887C1.05621 9.33474 1.48232 8.94141 2 8.94141H3.97754V6.96289C3.97767 5.3816 4.60653 3.86528 5.72461 2.74707C6.84296 1.62872 8.35982 1 9.94141 1H12.9189Z" stroke="#1E1E1E" stroke-width="2" stroke-linecap="round" stroke-linejoin="round"/>
</svg>
