<svg width="24" height="24" viewBox="0 0 24 24" fill="none" xmlns="http://www.w3.org/2000/svg">
<path d="M12 0.5C15.2563 0.5 15.6565 0.513804 16.9258 0.572266C19.0197 0.668273 20.584 1.29428 21.6475 2.3584C22.7108 3.42246 23.3346 4.9855 23.4287 7.0752C23.4862 8.34391 23.5 8.74352 23.5 12C23.5 15.2564 23.4862 15.6565 23.4277 16.9248V16.9258C23.3331 19.0193 22.7067 20.5824 21.6426 21.6455C20.6448 22.6421 19.2083 23.2528 17.3105 23.4043L16.9248 23.4287C15.6565 23.4862 15.256 23.5 12 23.5C8.74403 23.5 8.34446 23.4862 7.0752 23.4287C4.9811 23.3327 3.4176 22.7071 2.35449 21.6436C1.29153 20.58 0.667297 19.0168 0.571289 16.9248C0.513822 15.6565 0.5 15.256 0.5 12C0.5 8.74366 0.513803 8.34453 0.572266 7.0752C0.668281 4.9811 1.29386 3.4176 2.35742 2.35449C3.42102 1.29152 4.98414 0.667298 7.07617 0.571289L7.0752 0.570312C8.34391 0.512824 8.74352 0.5 12 0.5ZM12 1.66309C8.79423 1.66309 8.40602 1.67492 7.12891 1.73242H7.12793C5.43185 1.80959 4.09832 2.25493 3.17285 3.18457C2.24776 4.11383 1.81003 5.44708 1.73242 7.12793V7.12891C1.67493 8.40584 1.66211 8.7939 1.66211 12C1.66211 15.2071 1.67389 15.5954 1.73242 16.8721C1.80953 18.5498 2.24555 19.8834 3.16992 20.8135C4.09481 21.7441 5.42906 22.1909 7.12793 22.2686C8.40461 22.3271 8.79394 22.3389 12 22.3389C15.2081 22.3389 15.5954 22.3271 16.873 22.2686C18.5693 22.1914 19.9037 21.7463 20.8291 20.8164C21.7541 19.887 22.1909 18.5529 22.2686 16.873V16.8721C22.3261 15.596 22.3379 15.2077 22.3379 12.001C22.3379 8.79528 22.3271 8.40576 22.2686 7.12891C22.1914 5.44745 21.7536 4.11362 20.8281 3.18457C19.9022 2.25519 18.5677 1.81057 16.873 1.7334C15.5954 1.67486 15.2061 1.66309 12 1.66309ZM12 6.33789C15.1269 6.33789 17.6621 8.87314 17.6621 12C17.6621 15.1279 15.1268 17.6631 12 17.6631C8.87325 17.6631 6.33789 15.127 6.33789 12C6.33789 8.87314 8.87314 6.33789 12 6.33789ZM12 7.5C9.51486 7.5 7.5 9.51486 7.5 12C7.5 14.4862 9.51494 16.5 12 16.5C14.4851 16.5 16.5 14.4862 16.5 12C16.5 9.51486 14.4851 7.5 12 7.5ZM18.4062 4.65527C18.9244 4.65541 19.3446 5.07563 19.3447 5.59473C19.3447 6.11395 18.9245 6.53502 18.4062 6.53516C17.8862 6.53516 17.4648 6.11336 17.4648 5.59473C17.465 5.07622 17.8863 4.65527 18.4062 4.65527Z" fill="#1E1E1E" stroke="black"/>
</svg>
