<svg width="23" height="28" viewBox="0 0 23 28" fill="none" xmlns="http://www.w3.org/2000/svg">
<path d="M11.0483 13.8104C11.8079 13.8104 12.4582 13.54 12.9991 12.9991C13.54 12.4582 13.8104 11.8079 13.8104 11.0483C13.8104 10.2888 13.54 9.63853 12.9991 9.09762C12.4582 8.55671 11.8079 8.28625 11.0483 8.28625C10.2888 8.28625 9.63853 8.55671 9.09762 9.09762C8.55671 9.63853 8.28625 10.2888 8.28625 11.0483C8.28625 11.8079 8.55671 12.4582 9.09762 12.9991C9.63853 13.54 10.2888 13.8104 11.0483 13.8104ZM11.0483 23.9611C13.8565 21.3831 15.9395 19.0411 17.2976 16.935C18.6556 14.8289 19.3346 12.9588 19.3346 11.3245C19.3346 8.81565 18.5347 6.76135 16.935 5.16165C15.3353 3.56194 13.3731 2.76208 11.0483 2.76208C8.72358 2.76208 6.76135 3.56194 5.16165 5.16165C3.56194 6.76135 2.76208 8.81565 2.76208 11.3245C2.76208 12.9588 3.4411 14.8289 4.79912 16.935C6.15715 19.0411 8.24022 21.3831 11.0483 23.9611ZM11.0483 27.6208C7.34254 24.4675 4.5747 21.5385 2.74482 18.834C0.914941 16.1294 0 13.6263 0 11.3245C0 7.87194 1.11059 5.12137 3.33177 3.07282C5.55294 1.02427 8.12513 0 11.0483 0C13.9715 0 16.5437 1.02427 18.7649 3.07282C20.9861 5.12137 22.0967 7.87194 22.0967 11.3245C22.0967 13.6263 21.1817 16.1294 19.3519 18.834C17.522 21.5385 14.7541 24.4675 11.0483 27.6208Z" fill="#1105AC"/>
</svg>
