<svg width="208" height="56" viewBox="0 0 208 56" fill="none" xmlns="http://www.w3.org/2000/svg">
<path d="M75.2578 25.4387C75.2578 24.3522 75.5028 23.3776 75.9928 22.5148C76.4828 21.6413 77.1485 20.9596 77.99 20.4696C78.8422 19.9796 79.7849 19.7346 80.8181 19.7346C82.0324 19.7346 83.0923 20.0275 83.9977 20.6134C84.9031 21.1993 85.5635 22.0301 85.979 23.106H84.2374C83.9285 22.4562 83.4811 21.9555 82.8952 21.604C82.32 21.2419 81.6277 21.0608 80.8181 21.0608C80.0405 21.0608 79.3428 21.2419 78.725 21.604C78.1072 21.9555 77.6225 22.4668 77.271 23.1379C76.9195 23.7983 76.7438 24.5653 76.7438 25.4387C76.7438 26.3122 76.9195 27.0791 77.271 27.7395C77.6225 28.4 78.1072 28.9112 78.725 29.2734C79.3428 29.6249 80.0405 29.8007 80.8181 29.8007C81.6277 29.8007 82.32 29.6249 82.8952 29.2734C83.4811 28.9219 83.9285 28.4213 84.2374 27.7715H85.979C85.5635 28.8367 84.9031 29.6622 83.9977 30.2481C83.0923 30.8233 82.0324 31.1109 80.8181 31.1109C79.7849 31.1109 78.8422 30.8712 77.99 30.3919C77.1485 29.9019 76.4828 29.2255 75.9928 28.3627C75.5028 27.4999 75.2578 26.5252 75.2578 25.4387Z" fill="black"/>
<path d="M91.9621 31.1588C91.1419 31.1588 90.3962 30.9724 89.7252 30.5996C89.0647 30.2268 88.5428 29.6995 88.1593 29.0178C87.7865 28.3254 87.6001 27.5265 87.6001 26.6211C87.6001 25.7263 87.7918 24.9381 88.1753 24.2564C88.5694 23.564 89.102 23.0367 89.7731 22.6745C90.4442 22.3017 91.1951 22.1153 92.026 22.1153C92.8568 22.1153 93.6078 22.3017 94.2788 22.6745C94.9499 23.0367 95.4772 23.5587 95.8607 24.2404C96.2548 24.9221 96.4518 25.7157 96.4518 26.6211C96.4518 27.5265 96.2495 28.3254 95.8447 29.0178C95.4506 29.6995 94.9126 30.2268 94.2309 30.5996C93.5492 30.9724 92.7929 31.1588 91.9621 31.1588ZM91.9621 29.9285C92.484 29.9285 92.974 29.806 93.432 29.561C93.8901 29.3054 94.2575 28.9272 94.5345 28.4266C94.8221 27.9259 94.9659 27.3241 94.9659 26.6211C94.9659 25.9181 94.8274 25.3215 94.5505 24.8316C94.2735 24.3309 93.9114 23.9581 93.464 23.7131C93.0166 23.4681 92.5319 23.3456 92.01 23.3456C91.4774 23.3456 90.9874 23.4681 90.54 23.7131C90.1033 23.9581 89.7518 24.3309 89.4855 24.8316C89.2192 25.3215 89.086 25.9181 89.086 26.6211C89.086 27.3348 89.2139 27.9419 89.4695 28.4426C89.7358 28.9326 90.0873 29.3054 90.524 29.561C90.9608 29.806 91.4401 29.9285 91.9621 29.9285Z" fill="black"/>
<path d="M102.63 22.0993C103.695 22.0993 104.558 22.4242 105.218 23.074C105.878 23.7131 106.209 24.6398 106.209 25.8541V31.015H104.771V26.0619C104.771 25.1884 104.552 24.5227 104.116 24.0646C103.679 23.5959 103.082 23.3616 102.326 23.3616C101.559 23.3616 100.947 23.6013 100.489 24.0806C100.041 24.5599 99.8176 25.2576 99.8176 26.1737V31.015H98.3636V22.2591H99.8176V23.5054C100.105 23.058 100.494 22.7118 100.984 22.4668C101.485 22.2218 102.033 22.0993 102.63 22.0993Z" fill="black"/>
<path d="M112.85 22.0993C113.915 22.0993 114.778 22.4242 115.438 23.074C116.099 23.7131 116.429 24.6398 116.429 25.8541V31.015H114.991V26.0619C114.991 25.1884 114.773 24.5227 114.336 24.0646C113.899 23.5959 113.303 23.3616 112.546 23.3616C111.779 23.3616 111.167 23.6013 110.709 24.0806C110.261 24.5599 110.038 25.2576 110.038 26.1737V31.015H108.584V22.2591H110.038V23.5054C110.325 23.058 110.714 22.7118 111.204 22.4668C111.705 22.2218 112.253 22.0993 112.85 22.0993Z" fill="black"/>
<path d="M126.793 26.2696C126.793 26.5359 126.777 26.8235 126.745 27.1324H119.747C119.789 27.9952 120.077 28.6769 120.61 29.1775C121.153 29.6782 121.813 29.9285 122.591 29.9285C123.219 29.9285 123.741 29.7847 124.157 29.4971C124.583 29.1988 124.881 28.8047 125.051 28.3147H126.617C126.383 29.1562 125.914 29.8433 125.211 30.3759C124.508 30.8978 123.635 31.1588 122.591 31.1588C121.76 31.1588 121.014 30.9724 120.354 30.5996C119.704 30.2268 119.193 29.6995 118.82 29.0178C118.447 28.3254 118.261 27.5265 118.261 26.6211C118.261 25.7157 118.442 24.9221 118.804 24.2404C119.166 23.5587 119.672 23.0367 120.322 22.6745C120.982 22.3017 121.739 22.1153 122.591 22.1153C123.422 22.1153 124.151 22.2964 124.78 22.6586C125.419 23.0207 125.914 23.5161 126.266 24.1445C126.617 24.773 126.793 25.4813 126.793 26.2696ZM125.291 26.0778C125.291 25.5026 125.169 25.0126 124.924 24.6079C124.679 24.1924 124.343 23.8782 123.917 23.6652C123.502 23.4521 123.038 23.3456 122.527 23.3456C121.781 23.3456 121.147 23.5906 120.625 24.0806C120.104 24.5599 119.816 25.2257 119.763 26.0778H125.291Z" fill="black"/>
<path d="M128.169 26.6211C128.169 25.7157 128.35 24.9274 128.712 24.2564C129.074 23.5746 129.575 23.0474 130.214 22.6745C130.864 22.3017 131.604 22.1153 132.435 22.1153C133.511 22.1153 134.395 22.3763 135.087 22.8982C135.79 23.4202 136.254 24.1445 136.477 25.0712H134.912C134.762 24.5386 134.47 24.1179 134.033 23.809C133.607 23.5001 133.074 23.3456 132.435 23.3456C131.604 23.3456 130.933 23.6332 130.422 24.2084C129.911 24.773 129.655 25.5772 129.655 26.6211C129.655 27.6756 129.911 28.4905 130.422 29.0657C130.933 29.6409 131.604 29.9285 132.435 29.9285C133.074 29.9285 133.607 29.7794 134.033 29.4811C134.459 29.1829 134.752 28.7568 134.912 28.2029H136.477C136.243 29.0977 135.774 29.8167 135.071 30.3599C134.368 30.8925 133.49 31.1588 132.435 31.1588C131.604 31.1588 130.864 30.9724 130.214 30.5996C129.575 30.2268 129.074 29.6995 128.712 29.0178C128.35 28.336 128.169 27.5371 128.169 26.6211Z" fill="black"/>
<path d="M140.191 23.4575V28.6183C140.191 29.0444 140.282 29.348 140.463 29.5291C140.644 29.6995 140.958 29.7847 141.405 29.7847H142.476V31.015H141.166C140.356 31.015 139.749 30.8286 139.344 30.4558C138.939 30.083 138.737 29.4705 138.737 28.6183V23.4575H137.603V22.2591H138.737V20.0542H140.191V22.2591H142.476V23.4575H140.191Z" fill="black"/>
<path d="M155.579 28.5384H150.722L149.827 31.015H148.294L152.32 19.9423H153.998L158.008 31.015H156.474L155.579 28.5384ZM155.18 27.404L153.151 21.7319L151.122 27.404H155.18Z" fill="black"/>
<path d="M163.374 22.1153C164.13 22.1153 164.791 22.2804 165.355 22.6106C165.93 22.9408 166.356 23.3563 166.633 23.8569V22.2591H168.103V31.2067C168.103 32.0056 167.933 32.714 167.592 33.3318C167.251 33.9603 166.761 34.4502 166.122 34.8018C165.494 35.1533 164.759 35.329 163.917 35.329C162.767 35.329 161.808 35.0574 161.041 34.5142C160.274 33.9709 159.822 33.2306 159.683 32.2932H161.121C161.281 32.8258 161.611 33.2519 162.112 33.5715C162.612 33.9017 163.214 34.0668 163.917 34.0668C164.716 34.0668 165.366 33.8165 165.866 33.3158C166.378 32.8152 166.633 32.1121 166.633 31.2067V29.3693C166.346 29.8806 165.92 30.3066 165.355 30.6475C164.791 30.9884 164.13 31.1588 163.374 31.1588C162.596 31.1588 161.888 30.9671 161.249 30.5836C160.62 30.2001 160.125 29.6622 159.763 28.9698C159.401 28.2775 159.22 27.4892 159.22 26.6051C159.22 25.7103 159.401 24.9274 159.763 24.2564C160.125 23.5746 160.62 23.0474 161.249 22.6745C161.888 22.3017 162.596 22.1153 163.374 22.1153ZM166.633 26.6211C166.633 25.9607 166.5 25.3855 166.234 24.8955C165.968 24.4055 165.605 24.0327 165.147 23.777C164.7 23.5107 164.205 23.3776 163.662 23.3776C163.118 23.3776 162.623 23.5054 162.176 23.761C161.728 24.0167 161.371 24.3895 161.105 24.8795C160.839 25.3695 160.706 25.9447 160.706 26.6051C160.706 27.2762 160.839 27.862 161.105 28.3627C161.371 28.8527 161.728 29.2308 162.176 29.4971C162.623 29.7527 163.118 29.8806 163.662 29.8806C164.205 29.8806 164.7 29.7527 165.147 29.4971C165.605 29.2308 165.968 28.8527 166.234 28.3627C166.5 27.862 166.633 27.2815 166.633 26.6211Z" fill="black"/>
<path d="M178.549 26.2696C178.549 26.5359 178.533 26.8235 178.501 27.1324H171.503C171.546 27.9952 171.833 28.6769 172.366 29.1775C172.909 29.6782 173.57 29.9285 174.347 29.9285C174.976 29.9285 175.498 29.7847 175.913 29.4971C176.339 29.1988 176.637 28.8047 176.808 28.3147H178.374C178.139 29.1562 177.671 29.8433 176.968 30.3759C176.265 30.8978 175.391 31.1588 174.347 31.1588C173.516 31.1588 172.771 30.9724 172.11 30.5996C171.461 30.2268 170.949 29.6995 170.576 29.0178C170.204 28.3254 170.017 27.5265 170.017 26.6211C170.017 25.7157 170.198 24.9221 170.56 24.2404C170.923 23.5587 171.429 23.0367 172.078 22.6745C172.739 22.3017 173.495 22.1153 174.347 22.1153C175.178 22.1153 175.908 22.2964 176.536 22.6586C177.175 23.0207 177.671 23.5161 178.022 24.1445C178.374 24.773 178.549 25.4813 178.549 26.2696ZM177.047 26.0778C177.047 25.5026 176.925 25.0126 176.68 24.6079C176.435 24.1924 176.099 23.8782 175.673 23.6652C175.258 23.4521 174.795 23.3456 174.283 23.3456C173.538 23.3456 172.904 23.5906 172.382 24.0806C171.86 24.5599 171.572 25.2257 171.519 26.0778H177.047Z" fill="black"/>
<path d="M184.735 22.0993C185.8 22.0993 186.663 22.4242 187.323 23.074C187.984 23.7131 188.314 24.6398 188.314 25.8541V31.015H186.876V26.0619C186.876 25.1884 186.657 24.5227 186.221 24.0646C185.784 23.5959 185.187 23.3616 184.431 23.3616C183.664 23.3616 183.052 23.6013 182.594 24.0806C182.146 24.5599 181.923 25.2576 181.923 26.1737V31.015H180.469V22.2591H181.923V23.5054C182.21 23.058 182.599 22.7118 183.089 22.4668C183.59 22.2218 184.138 22.0993 184.735 22.0993Z" fill="black"/>
<path d="M190.146 26.6211C190.146 25.7157 190.327 24.9274 190.689 24.2564C191.051 23.5746 191.552 23.0474 192.191 22.6745C192.841 22.3017 193.581 22.1153 194.412 22.1153C195.488 22.1153 196.372 22.3763 197.064 22.8982C197.767 23.4202 198.23 24.1445 198.454 25.0712H196.888C196.739 24.5386 196.446 24.1179 196.009 23.809C195.583 23.5001 195.051 23.3456 194.412 23.3456C193.581 23.3456 192.91 23.6332 192.398 24.2084C191.887 24.773 191.632 25.5772 191.632 26.6211C191.632 27.6756 191.887 28.4905 192.398 29.0657C192.91 29.6409 193.581 29.9285 194.412 29.9285C195.051 29.9285 195.583 29.7794 196.009 29.4811C196.436 29.1829 196.728 28.7568 196.888 28.2029H198.454C198.22 29.0977 197.751 29.8167 197.048 30.3599C196.345 30.8925 195.466 31.1588 194.412 31.1588C193.581 31.1588 192.841 30.9724 192.191 30.5996C191.552 30.2268 191.051 29.6995 190.689 29.0178C190.327 28.336 190.146 27.5371 190.146 26.6211Z" fill="black"/>
<path d="M200.985 22.2591L203.702 29.3213L206.434 22.2591H207.936L202.663 35.1373H201.145L202.887 30.9191L199.356 22.2591H200.985Z" fill="black"/>
<path d="M39.972 32.7256C38.3955 35.6618 35.6988 37.9972 32.2554 39.0347C25.3687 41.1097 18.1038 37.2091 16.0287 30.3224C13.9537 23.4356 17.8543 16.1707 24.7411 14.0957C28.1844 13.0581 31.7223 13.5145 34.6587 15.0914L39.3175 6.41437C34.1605 3.64551 27.947 2.84371 21.8994 4.66591C9.80453 8.3102 2.9542 21.0689 6.59849 33.1638C10.2428 45.2586 23.0015 52.109 35.0964 48.4647C41.1436 46.6426 45.8799 42.5419 48.649 37.3844L39.972 32.7256Z" fill="url(#paint0_linear_3213_85)"/>
<path d="M11.6714 31.6351C13.5458 37.8559 17.8316 42.6875 23.1975 45.4176C32.3528 50.0752 43.658 46.535 48.5763 37.5173C48.6004 37.4729 48.6242 37.4291 48.6479 37.3846L42.7882 34.2385C41.3152 35.7166 39.4657 36.8615 37.3275 37.5058C36.4582 37.7678 35.583 37.9339 34.7128 38.0113C33.5328 38.6504 32.2271 39.1225 30.8147 39.3822C24.6593 40.5149 18.4756 36.9899 16.2963 31.1231C13.6532 24.0079 17.585 16.2508 24.7393 14.0952C25.6086 13.8333 26.4837 13.6671 27.3539 13.5897C28.122 13.1735 28.9433 12.8285 29.8126 12.5665C31.9509 11.9223 34.1251 11.8549 36.1694 12.2732L39.3156 6.41353C39.2714 6.3898 39.2272 6.36607 39.1827 6.34284C30.1011 1.54335 18.7217 4.83832 13.6635 13.7785C10.7001 19.0192 9.79705 25.4143 11.6714 31.6351Z" fill="url(#paint1_linear_3213_85)"/>
<path d="M23.8744 45.2138C18.5081 42.4837 14.2227 37.652 12.3483 31.4312C10.4739 25.2104 11.377 18.8154 14.3414 13.5752C16.7831 9.25962 20.6992 6.26422 25.1172 4.85524C20.4243 6.16596 16.2323 9.24447 13.6671 13.7783C10.7023 19.0187 9.79964 25.4136 11.674 31.6344C13.5484 37.8552 17.8342 42.6868 23.2001 45.417C27.8433 47.7793 33.038 48.0291 37.6739 46.529C33.2125 47.7954 28.2939 47.4624 23.8744 45.2138Z" fill="url(#paint2_linear_3213_85)"/>
<path d="M39.3166 6.41389L29.1853 25.284C29.1853 25.284 30.0587 21.1208 28.0987 18.1143C25.1024 13.5177 13.7711 20.4348 15.7702 29.3261C15.7702 29.3261 12.4656 18.3587 21.3432 10.1671C29.7847 2.37774 39.3166 6.41389 39.3166 6.41389Z" fill="url(#paint3_linear_3213_85)"/>
<path d="M35.1206 14.2329C31.7887 10.2366 26.0316 10.1834 21.6037 13.8718C16.3134 18.2785 15.5088 23.7709 15.5442 26.88C15.8291 19.2364 25.3863 13.9495 28.101 18.114C30.0608 21.1202 29.1875 25.2838 29.1875 25.2838L35.1206 14.2329Z" fill="url(#paint4_linear_3213_85)"/>
<path d="M21.5003 10.6883C28.9753 3.79062 37.3006 6.16461 39.1096 6.79908L39.3166 6.41365C39.3166 6.41365 29.7847 2.37749 21.3432 10.1669C12.4656 18.3585 15.7702 29.3259 15.7702 29.3259C15.6998 29.0129 15.6501 28.7032 15.6117 28.3954C15.0625 25.1468 14.5795 17.0745 21.5003 10.6883Z" fill="url(#paint5_linear_3213_85)"/>
<path d="M48.6482 37.3844L35.8988 30.5388C34.8811 29.9924 32.7225 32.2097 32.8134 33.3612C32.8256 33.5159 32.8325 33.672 32.8337 33.8292C32.8756 39.3159 19.6091 39.8104 16.3633 31.2947C16.3633 31.2947 19.6679 42.2621 31.5932 44.1856C42.9328 46.0147 48.6482 37.3844 48.6482 37.3844Z" fill="url(#paint6_linear_3213_85)"/>
<path d="M40.7962 33.1641C40.2267 38.3358 35.4574 41.5607 29.7288 40.9326C22.8846 40.1822 19.1796 36.0485 17.4915 33.4375C21.9517 39.6512 32.8389 38.7781 32.8009 33.8071C32.7997 33.6496 32.7928 33.4933 32.7805 33.3383C32.6895 32.1867 34.8475 29.97 35.8652 30.5164L40.7962 33.1641Z" fill="url(#paint7_linear_3213_85)"/>
<path d="M31.436 43.6652C41.4774 45.285 47.1053 38.7068 48.2627 37.1785L48.6481 37.3855C48.6481 37.3855 42.9327 46.0158 31.5932 44.187C19.6679 42.2636 16.3633 31.2961 16.3633 31.2961C16.4775 31.5959 16.6072 31.8816 16.7452 32.1594C18.0821 35.1701 22.139 42.1656 31.436 43.6652Z" fill="url(#paint8_linear_3213_85)"/>
<path d="M61.2271 35.3129C60.371 35.2157 59.3584 34.9189 58.2218 34.4277C57.9072 34.2916 57.59 34.1425 57.2733 33.9799L57.2701 33.9797C54.2133 32.4275 51.1073 29.8168 48.0986 27.2909C46.792 26.1949 45.5546 25.1524 44.3758 24.2414C42.7746 23.004 41.2784 22.0063 39.88 21.4348L45.3003 11.1958C45.7856 10.2791 46.7602 9.73195 47.7926 9.78976L49.5529 9.88831C50.2513 9.92741 50.8881 10.2361 51.3471 10.7318C51.5707 10.9645 51.7522 11.2477 51.8762 11.5637L61.2271 35.3129Z" fill="url(#paint9_linear_3213_85)"/>
<path d="M63.2123 49.3469C63.0499 49.3675 62.8821 49.3745 62.7114 49.3649L58.3974 49.1234C57.355 49.065 56.442 48.399 56.069 47.4246L52.4922 38.1287C54.5486 38.8719 56.6047 39.3225 58.4732 39.4271C58.7812 39.4443 59.0867 39.4514 59.3827 39.4484C60.5901 39.4403 61.6976 39.2721 62.6476 38.9274L65.3309 45.743C65.976 47.384 64.875 49.131 63.2123 49.3469Z" fill="url(#paint10_linear_3213_85)"/>
<path d="M43.6473 31.7442C35.5702 24.2483 30.2396 27.3006 30.0765 27.3967C30.0767 27.3935 30.0799 27.3937 30.0801 27.3905C30.1818 27.1035 32.7951 20.1242 37.6131 21.2882C42.5287 22.4742 49.7749 31.7125 56.8092 34.875C61.7709 37.1095 63.51 35.2994 64.1035 34.0372C64.1068 34.0341 64.1068 34.0341 64.107 34.0309C64.3532 33.5087 64.4004 33.0806 64.4004 33.0806C64.296 41.1733 50.8242 38.4034 43.6473 31.7442Z" fill="url(#paint11_linear_3213_85)"/>
<path opacity="0.5" d="M43.6463 31.7449C41.6424 29.8853 39.8076 28.6748 38.1787 27.9074C33.2423 25.5817 30.1981 27.3252 30.0755 27.3975C30.0757 27.3943 30.0789 27.3945 30.0791 27.3913C30.322 27.1055 35.6753 20.9964 41.7334 26.1498C47.9294 31.4227 50.8872 36.0931 56.7032 36.6985C61.9079 37.2397 63.2255 36.5509 64.1028 34.0383C64.1062 34.0353 64.1062 34.0353 64.1063 34.0321C64.2084 33.7384 64.3048 33.4251 64.3997 33.0817C64.295 41.1741 50.8232 38.4042 43.6463 31.7449Z" fill="url(#paint12_linear_3213_85)"/>
<path opacity="0.5" d="M51.351 10.7334L44.3797 24.2426C42.7785 23.0052 41.2823 22.0075 39.8839 21.436L45.3042 11.1971C45.7895 10.2803 46.7641 9.73317 47.7965 9.79098L49.5568 9.88953C50.2552 9.92863 50.892 10.2373 51.351 10.7334Z" fill="url(#paint13_linear_3213_85)"/>
<path opacity="0.5" d="M61.2276 35.3135C60.3715 35.2164 59.3589 34.9195 58.2223 34.4283C57.9076 34.2922 57.5905 34.1431 57.2738 33.9805L57.2706 33.9803L47.918 9.79736L49.5538 9.88895C50.2521 9.92805 50.889 10.2367 51.348 10.7324C51.5716 10.9651 51.7531 11.2483 51.8771 11.5643L61.2276 35.3135Z" fill="url(#paint14_linear_3213_85)"/>
<path opacity="0.5" d="M63.2158 49.3472L59.3865 39.4486C60.5939 39.4406 61.7014 39.2724 62.6514 38.9277L65.3347 45.7432C65.9794 47.3842 64.8784 49.1312 63.2158 49.3472Z" fill="url(#paint15_linear_3213_85)"/>
<defs>
<linearGradient id="paint0_linear_3213_85" x1="31.8894" y1="49.431" x2="18.6924" y2="5.63221" gradientUnits="userSpaceOnUse">
<stop stop-color="#353D76"/>
<stop offset="1" stop-color="#6372DC"/>
</linearGradient>
<linearGradient id="paint1_linear_3213_85" x1="34.1073" y1="47.6116" x2="21.5459" y2="5.92229" gradientUnits="userSpaceOnUse">
<stop stop-color="#353D76"/>
<stop offset="1" stop-color="#6372DC"/>
</linearGradient>
<linearGradient id="paint2_linear_3213_85" x1="27.8143" y1="49.5039" x2="15.2553" y2="7.82256" gradientUnits="userSpaceOnUse">
<stop stop-color="#353D76"/>
<stop offset="1" stop-color="#6372DC"/>
</linearGradient>
<linearGradient id="paint3_linear_3213_85" x1="29.728" y1="25.1205" x2="24.3563" y2="7.29242" gradientUnits="userSpaceOnUse">
<stop stop-color="#353D76"/>
<stop offset="1" stop-color="#6372DC"/>
</linearGradient>
<linearGradient id="paint4_linear_3213_85" x1="26.9591" y1="25.9552" x2="22.8922" y2="12.4576" gradientUnits="userSpaceOnUse">
<stop stop-color="#353D76"/>
<stop offset="1" stop-color="#6372DC"/>
</linearGradient>
<linearGradient id="paint5_linear_3213_85" x1="29.728" y1="25.1203" x2="24.3563" y2="7.29217" gradientUnits="userSpaceOnUse">
<stop stop-color="#353D76"/>
<stop offset="1" stop-color="#6372DC"/>
</linearGradient>
<linearGradient id="paint6_linear_3213_85" x1="35.6929" y1="44.9171" x2="30.3211" y2="27.089" gradientUnits="userSpaceOnUse">
<stop stop-color="#353D76"/>
<stop offset="1" stop-color="#6372DC"/>
</linearGradient>
<linearGradient id="paint7_linear_3213_85" x1="28.7405" y1="34.3608" x2="24.6736" y2="20.8632" gradientUnits="userSpaceOnUse">
<stop stop-color="#353D76"/>
<stop offset="1" stop-color="#6372DC"/>
</linearGradient>
<linearGradient id="paint8_linear_3213_85" x1="35.6928" y1="44.9184" x2="30.3211" y2="27.0905" gradientUnits="userSpaceOnUse">
<stop stop-color="#353D76"/>
<stop offset="1" stop-color="#6372DC"/>
</linearGradient>
<linearGradient id="paint9_linear_3213_85" x1="50.1996" y1="34.6955" x2="51.5821" y2="10.0019" gradientUnits="userSpaceOnUse">
<stop stop-color="#353D76"/>
<stop offset="1" stop-color="#6372DC"/>
</linearGradient>
<linearGradient id="paint10_linear_3213_85" x1="58.6312" y1="49.1365" x2="59.2264" y2="38.5057" gradientUnits="userSpaceOnUse">
<stop stop-color="#353D76"/>
<stop offset="1" stop-color="#6372DC"/>
</linearGradient>
<linearGradient id="paint11_linear_3213_85" x1="46.8394" y1="37.4246" x2="47.7155" y2="21.7762" gradientUnits="userSpaceOnUse">
<stop stop-color="#353D76"/>
<stop offset="1" stop-color="#6372DC"/>
</linearGradient>
<linearGradient id="paint12_linear_3213_85" x1="46.8386" y1="37.4255" x2="47.5516" y2="24.6893" gradientUnits="userSpaceOnUse">
<stop stop-color="#353D76"/>
<stop offset="1" stop-color="#6372DC"/>
</linearGradient>
<linearGradient id="paint13_linear_3213_85" x1="45.1583" y1="24.2862" x2="45.9756" y2="9.68903" gradientUnits="userSpaceOnUse">
<stop stop-color="#353D76"/>
<stop offset="1" stop-color="#6372DC"/>
</linearGradient>
<linearGradient id="paint14_linear_3213_85" x1="53.8815" y1="34.9022" x2="55.264" y2="10.2087" gradientUnits="userSpaceOnUse">
<stop stop-color="#353D76"/>
<stop offset="1" stop-color="#6372DC"/>
</linearGradient>
<linearGradient id="paint15_linear_3213_85" x1="62.1088" y1="49.2852" x2="62.6886" y2="38.9297" gradientUnits="userSpaceOnUse">
<stop stop-color="#353D76"/>
<stop offset="1" stop-color="#6372DC"/>
</linearGradient>
</defs>
</svg>
