<svg width="26" height="24" viewBox="0 0 26 24" fill="none" xmlns="http://www.w3.org/2000/svg">
<path d="M25.0982 9.12688C25.0946 9.11547 25.0899 9.10435 25.0846 9.09323C24.9352 8.73911 24.6853 8.42633 24.3571 8.19709L22.6146 6.98105V4.27667C22.6146 3.76573 22.1843 3.35002 21.6554 3.35002H17.4122L14.2472 1.14176C13.4987 0.619414 12.4932 0.619414 11.745 1.14176L8.58026 3.3506H4.33679C3.80791 3.3506 3.3776 3.7663 3.3776 4.27724V6.98162L1.63511 8.19766C1.30663 8.4269 1.05694 8.73968 0.907603 9.0938C0.90229 9.10464 0.897863 9.11576 0.894322 9.12688C0.800173 9.36153 0.75 9.61329 0.75 9.87047V21.1154C0.75 22.267 1.71982 23.2036 2.91158 23.2036H23.0806C24.2727 23.2036 25.2422 22.2667 25.2422 21.1154V9.87047C25.2422 9.61329 25.192 9.36153 25.0982 9.12688ZM24.0469 8.61223C24.2411 8.74766 24.3984 8.92273 24.5114 9.1206L22.6146 10.4444V7.61259L24.0469 8.61223ZM12.0552 1.55661C12.618 1.16371 13.3742 1.16371 13.937 1.55661L16.5076 3.3506H9.48456L12.0552 1.55661ZM4.33679 3.8621H17.326H21.6551C21.8921 3.8621 22.0848 4.04829 22.0848 4.27724V10.8139L14.0896 16.3938C13.4353 16.8503 12.5563 16.8503 11.9023 16.3938L3.90737 10.8139V4.27724C3.90737 4.04829 4.0998 3.8621 4.33679 3.8621ZM1.9456 8.61223L3.37789 7.61259V10.4444L1.48105 9.1206C1.59409 8.92273 1.7514 8.74766 1.9456 8.61223ZM24.7127 21.1157C24.7127 21.985 23.9805 22.6924 23.0806 22.6924H2.91158C2.01171 22.6924 1.27947 21.985 1.27947 21.1157V9.87076C1.27947 9.78807 1.28685 9.70653 1.30043 9.62584L11.5924 16.8086C12.0124 17.1017 12.5041 17.2483 12.9961 17.2483C13.4881 17.2483 13.9801 17.1017 14.3998 16.8086L24.6918 9.62584C24.705 9.70624 24.7127 9.78807 24.7127 9.87076V21.1157Z" fill="black" stroke="#3E1258" stroke-width="1.5"/>
</svg>
