<svg width="44" height="36" viewBox="0 0 44 36" fill="none" xmlns="http://www.w3.org/2000/svg">
<path opacity="0.12" d="M0.67 35.778C0.223333 34.438 0 33.366 0 32.562C0 31.6687 0.134 30.552 0.402 29.212C6.38733 29.212 9.38 26.13 9.38 19.966C9.38 17.7327 8.21867 16.482 5.896 16.214C2.50133 15.946 0.804 13.7573 0.804 9.648C0.804 6.52133 1.51867 4.154 2.948 2.546C4.46667 0.848666 7.14667 0 10.988 0C16.2587 0 18.894 3.57333 18.894 10.72C18.894 17.8667 17.4647 23.852 14.606 28.676C11.7473 33.4107 7.102 35.778 0.67 35.778ZM24.924 35.778C24.4773 34.438 24.254 33.366 24.254 32.562C24.254 31.6687 24.388 30.552 24.656 29.212C30.6413 29.212 33.634 26.13 33.634 19.966C33.634 17.7327 32.4727 16.482 30.15 16.214C26.7553 15.946 25.058 13.7573 25.058 9.648C25.058 6.52133 25.7727 4.154 27.202 2.546C28.7207 0.848666 31.4007 0 35.242 0C40.5127 0 43.148 3.57333 43.148 10.72C43.148 17.8667 41.7187 23.852 38.86 28.676C36.0013 33.4107 31.356 35.778 24.924 35.778Z" fill="black"/>
</svg>
