<svg width="163" height="141" viewBox="0 0 163 141" fill="none" xmlns="http://www.w3.org/2000/svg">
<path d="M96.0891 18.1013C96.0891 22.9676 92.9148 28.8449 88.0485 28.8449C83.1822 28.8449 80.0078 22.9676 80.0078 18.1013C80.0078 13.235 83.1822 9.2854 88.0485 9.2854C92.9148 9.2854 96.0891 13.2298 96.0891 18.1013Z" fill="#B5B5B5"/>
<path d="M89.6424 36.1165H87.2852L85.9023 31.4807L88.4219 30.344L90.9415 31.4807L89.6424 36.1165Z" fill="#B5B5B5"/>
<path d="M89.6424 36.1162H87.2852L85.9023 54.408H90.9415L89.6424 36.1162Z" fill="#B5B5B5"/>
<path d="M99.1334 63.957H78.8039C78.8039 63.957 74.0319 57.9488 73.5657 50.8667C73.1047 43.7846 76.9548 34.2354 76.9548 34.2354C76.9548 34.2354 80.653 31.0034 83.1149 31.0034C84.3564 31.0034 88.6569 50.1019 88.6569 50.1019C88.6569 50.1019 92.9051 31.0034 94.199 31.0034C96.8181 31.0034 100.511 34.2354 100.511 34.2354C100.511 34.2354 103.591 46.2833 103.282 52.2705C102.973 58.2578 99.1229 63.957 99.1229 63.957H99.1334Z" fill="#B5B5B5"/>
<path d="M99.6333 60.1069H78.5023L82.5567 108.938L76.0352 112.007H89.1254L89.8954 78.4354L91.7445 112.007H103.316L97.1294 109.079L99.6333 60.1069Z" fill="#EEEEEE"/>
<path d="M126.3 18.1013C126.3 22.9676 123.126 28.8449 118.259 28.8449C113.393 28.8449 110.219 22.9676 110.219 18.1013C110.219 13.235 113.393 9.2854 118.259 9.2854C123.126 9.2854 126.3 13.2298 126.3 18.1013Z" fill="#8D8D8D"/>
<path d="M119.849 36.1165H117.492L116.109 31.4807L118.629 30.344L121.149 31.4807L119.849 36.1165Z" fill="#8D8D8D"/>
<path d="M119.849 36.1162H117.492L116.109 54.408H121.149L119.849 36.1162Z" fill="#8D8D8D"/>
<path d="M129.344 63.957H109.015C109.015 63.957 104.243 57.9488 103.777 50.8667C103.316 43.7846 107.166 34.2354 107.166 34.2354C107.166 34.2354 110.864 31.0034 113.326 31.0034C114.567 31.0034 118.868 50.1019 118.868 50.1019C118.868 50.1019 123.116 31.0034 124.41 31.0034C127.029 31.0034 130.722 34.2354 130.722 34.2354C130.722 34.2354 133.802 46.2833 133.493 52.2705C133.184 58.2578 129.334 63.957 129.334 63.957H129.344Z" fill="#8D8D8D"/>
<path d="M129.835 60.1069H108.709L112.764 108.938L106.242 112.007H119.332L120.102 78.4354L121.952 112.007H133.523L127.336 109.079L129.835 60.1069Z" fill="#8D8D8D"/>
<path d="M66.3039 18.1013C66.3039 22.9676 63.1296 28.8449 58.2633 28.8449C53.397 28.8449 50.2227 22.9676 50.2227 18.1013C50.2227 13.235 53.397 9.2854 58.2633 9.2854C63.1296 9.2854 66.3039 13.2298 66.3039 18.1013Z" fill="#8D8D8D"/>
<path d="M59.8573 36.1165H57.5001L56.1172 31.4807L58.642 30.344L61.1616 31.4807L59.8573 36.1165Z" fill="#8D8D8D"/>
<path d="M59.8573 36.1162H57.5001L56.1172 54.408H61.1616L59.8573 36.1162Z" fill="#8D8D8D"/>
<path d="M69.3482 63.957H49.0187C49.0187 63.957 44.2467 57.9488 43.7805 50.8667C43.3195 43.7846 47.1696 34.2354 47.1696 34.2354C47.1696 34.2354 50.8678 31.0034 53.3298 31.0034C54.5712 31.0034 58.8718 50.1019 58.8718 50.1019C58.8718 50.1019 63.12 31.0034 64.4138 31.0034C67.0329 31.0034 70.7258 34.2354 70.7258 34.2354C70.7258 34.2354 73.8059 46.2833 73.4969 52.2705C73.1878 58.2578 69.3377 63.957 69.3377 63.957H69.3482Z" fill="#8D8D8D"/>
<path d="M69.8442 60.1069H48.7133L52.7677 108.938L46.2461 112.007H59.3364L60.1064 78.4354L61.9555 112.007H73.5267L67.3404 109.079L69.8442 60.1069Z" fill="#8D8D8D"/>
<path d="M155.481 18.3842C155.481 23.24 152.317 29.0963 147.461 29.0963C142.605 29.0963 139.441 23.24 139.441 18.3842C139.441 13.5284 142.605 9.59448 147.461 9.59448C152.317 9.59448 155.481 13.5284 155.481 18.3842Z" fill="#8D8D8D"/>
<path d="M149.062 36.3411H146.71L145.332 31.7211L147.841 30.5896L150.355 31.7211L149.062 36.3411Z" fill="#8D8D8D"/>
<path d="M149.062 36.3418H146.71L145.332 54.5812H150.355L149.062 36.3418Z" fill="#8D8D8D"/>
<path d="M158.524 64.1044H138.257C138.257 64.1044 133.495 58.1171 133.035 51.056C132.574 43.9949 136.413 34.4719 136.413 34.4719C136.413 34.4719 140.096 31.2451 142.552 31.2451C143.794 31.2451 148.079 50.286 148.079 50.286C148.079 50.286 152.311 31.2451 153.605 31.2451C156.214 31.2451 159.901 34.4719 159.901 34.4719C159.901 34.4719 162.971 46.4831 162.667 52.4546C162.358 58.4262 158.524 64.1044 158.524 64.1044Z" fill="#8D8D8D"/>
<path d="M159.013 60.2646H137.945L141.989 108.943L135.488 112.008H148.542L149.307 78.5355L151.151 112.008H162.69L156.52 109.09L159.013 60.2646Z" fill="#8D8D8D"/>
<path d="M36.5433 18.3842C36.5433 23.24 33.3794 29.0963 28.5236 29.0963C23.6678 29.0963 20.5039 23.24 20.5039 18.3842C20.5039 13.5284 23.6678 9.59448 28.5236 9.59448C33.3794 9.59448 36.5433 13.5284 36.5433 18.3842Z" fill="#8D8D8D"/>
<path d="M30.1202 36.3414H27.7683L26.3906 31.7213L28.8997 30.5898L31.4141 31.7213L30.1202 36.3414Z" fill="#8D8D8D"/>
<path d="M30.1202 36.3418H27.7683L26.3906 54.5812H31.4141L30.1202 36.3418Z" fill="#8D8D8D"/>
<path d="M39.5783 64.1044H19.3117C19.3117 64.1044 14.5502 58.1171 14.0892 51.056C13.6282 43.9949 17.4678 34.4719 17.4678 34.4719C17.4678 34.4719 21.1503 31.2451 23.607 31.2451C24.8485 31.2451 29.1333 50.286 29.1333 50.286C29.1333 50.286 33.3658 31.2451 34.6596 31.2451C37.2683 31.2451 40.956 34.4719 40.956 34.4719C40.956 34.4719 44.0255 46.4831 43.7217 52.4546C43.4127 58.4262 39.5783 64.1044 39.5783 64.1044Z" fill="#8D8D8D"/>
<path d="M40.0717 60.2646H19.0036L23.0527 108.943L16.5469 112.008H29.6005L30.3653 78.5355L32.2091 112.008H43.7489L37.5783 109.09L40.0717 60.2646Z" fill="#8D8D8D"/>
<g style="mix-blend-mode:multiply">
<path d="M97.4842 57.8804C83.2416 64.8263 66.0655 58.9123 59.1249 44.6697C52.179 30.427 58.0929 13.2509 72.3356 6.30503C86.5783 -0.640834 103.754 5.2731 110.7 19.5158C117.646 33.7585 111.732 50.9346 97.4895 57.8752L97.4842 57.8804Z" fill="#61B9D9"/>
</g>
<path d="M113.741 18.0289C105.973 2.09952 86.7646 -4.5111 70.8405 3.25192C54.9164 11.0202 48.3005 30.2287 56.0635 46.1528C63.8318 62.0822 83.0403 68.6928 98.9644 60.9298C114.889 53.1616 121.504 33.9583 113.741 18.0289ZM60.6993 43.8952C54.183 30.5273 59.7303 14.4093 73.0982 7.88774C86.4661 1.37141 102.584 6.91867 109.106 20.2866C115.622 33.6545 110.075 49.7724 96.7068 56.294C83.3389 62.8103 67.2209 57.2631 60.6993 43.8952Z" fill="#DADADA"/>
<path d="M64.5066 52.6452L54.2422 66.2073L60.403 70.87L70.6673 57.3079L64.5066 52.6452Z" fill="#DADADA"/>
<path d="M57.0017 58.7759L52.418 64.8323L62.2335 72.2611L66.8172 66.2047L57.0017 58.7759Z" fill="#B2B2B2"/>
<path d="M52.4173 64.8322L8.79297 122.472L18.6085 129.901L62.2328 72.261L52.4173 64.8322Z" fill="#B41F1C"/>
<g style="mix-blend-mode:multiply">
<path d="M52.4212 64.8259L8.79688 122.466L13.7046 126.18L57.329 68.5403L52.4212 64.8259Z" fill="#B41F1C"/>
</g>
<g style="mix-blend-mode:multiply">
<path d="M57.0056 58.7696L52.4219 64.8259L57.3296 68.5403L61.9133 62.484L57.0056 58.7696Z" fill="#DEDEDE"/>
</g>
<path d="M14.8503 116.632L13.3731 97.4237C13.3731 97.4237 12.1788 91.4835 12.3884 89.4983C12.755 85.9782 17.5428 82.4057 17.4013 84.1343C17.1551 87.1725 18.5275 90.1583 18.5275 90.1583C18.5275 90.1583 17.8047 85.7687 18.6009 82.8876C19.6118 79.2157 25.3843 74.7475 24.4415 77.047C21.9114 83.2124 25.0858 86.5596 25.0858 86.5596C23.9805 83.6157 24.3839 78.0737 25.9658 75.7846C28.9044 71.526 33.6188 70.8869 35.7089 71.1645C33.7236 73.9094 31.3611 78.1837 31.1359 79.4095C30.633 82.1543 31.7488 84.611 31.7488 84.611L31.8797 79.9071C31.8797 79.9071 35.1117 72.5684 37.6103 70.6774C40.1089 68.7864 47.9505 67.3878 51.4287 66.1306C47.6572 71.1122 45.3262 74.1975 43.5819 76.497C42.9952 76.827 42.309 77.8275 42.1518 78.0737C41.3137 79.3361 44.0795 91.625 45.6719 91.9864C46.2638 92.1226 48.9668 91.3473 50.5644 87.6701C53.3145 84.0401 55.3364 81.3633 57.2117 78.8909C56.4941 84.6005 60.0508 98.3403 57.6674 102.458C54.7078 107.581 35.7979 121.598 33.7969 125.925C33.5717 126.412 29.2501 140.204 29.2501 140.204H0L14.8556 116.637L14.8503 116.632Z" fill="#F9BB8D"/>
</svg>
