<svg width="303" height="214" viewBox="0 0 303 214" fill="none" xmlns="http://www.w3.org/2000/svg">
<g clip-path="url(#clip0_3246_573)">
<path d="M166.113 16.4245C160.874 21.0928 159.023 29.4084 161.155 36.5415L156.617 44.8398C156.417 45.205 156.674 45.6876 157.022 45.6036L165.131 43.6507C169.947 48.8163 177.161 49.3668 182.507 44.4892C188.747 38.7957 190.068 27.8754 185.435 20.1517C180.907 12.6066 172.268 10.939 166.113 16.4245Z" fill="#E8E8E8"/>
<path d="M178.714 29.759C178.209 29.2631 177.45 28.8671 176.437 28.5712L175.708 28.3579V24.2655C175.728 24.2761 175.746 24.2881 175.765 24.2988C176.424 24.7134 176.778 25.4119 176.828 26.3957H179.472C179.423 24.6574 178.903 23.331 177.911 22.4178C177.264 21.822 176.53 21.4207 175.708 21.2141V19.2039H173.159V21.1354C172.037 21.3141 171.149 21.77 170.492 22.5018C169.624 23.471 169.19 24.688 169.19 26.1517C169.19 27.7567 169.633 28.9365 170.521 29.691C171.013 30.1149 171.892 30.5095 173.159 30.8747V35.3138C172.708 35.1471 172.356 34.8792 172.104 34.506C171.855 34.1367 171.687 33.5781 171.603 32.8303H168.977C168.977 34.5313 169.473 35.8683 170.466 36.8415C171.175 37.536 172.073 37.9825 173.159 38.1812V40.1461H175.708V38.2158C176.86 38.0359 177.789 37.5706 178.496 36.8201C179.427 35.8323 179.891 34.5913 179.891 33.0969C179.891 31.6026 179.499 30.5268 178.714 29.7563V29.759ZM172.377 27.2182C171.95 26.9302 171.737 26.493 171.737 25.9091C171.737 25.2732 171.953 24.7773 172.387 24.4228C172.607 24.2428 172.865 24.1082 173.16 24.0202V27.5847C172.797 27.4514 172.536 27.3301 172.378 27.2195L172.377 27.2182ZM176.062 35.2511C175.953 35.2978 175.836 35.3378 175.709 35.3724V31.6092C176.111 31.7599 176.428 31.9238 176.662 32.0998C177.046 32.3957 177.239 32.8143 177.239 33.3542C177.239 34.2793 176.847 34.9112 176.062 35.2511Z" fill="white"/>
<path d="M24.3363 213.638H282.495C288.21 213.638 292.946 208.136 293.335 201.052C294.408 181.55 294.416 162.247 293.31 142.589C292.191 122.719 289.819 102.39 281.916 85.0594C271.687 62.6308 252.608 47.3314 232.189 42.7231C211.771 38.116 190.291 43.6789 172.063 56.0016C156.207 66.722 142.155 82.588 124.576 87.6935C103.796 93.7296 82.0481 83.5571 60.8227 86.3178C38.0777 89.2759 16.4327 109.634 11.4233 137.354C6.84537 162.686 14.5687 190.684 24.3352 213.636L24.3363 213.638Z" fill="#F7F7F7"/>
<path d="M294.096 200.36C294.599 191.836 294.963 181.354 294.193 175.752C294.193 175.752 289.413 191.672 289.413 200.463C289.413 200.463 288.499 179.029 280.257 169.219C280.257 169.219 278.772 187.312 280.875 196.977C280.875 196.977 278.291 184.517 268.138 178.364C268.138 178.364 269.369 192.249 275.803 201.52C275.803 201.52 269.858 198.28 257.117 200.463C257.117 200.463 267.593 209.41 274.914 210.025C274.914 210.025 267.76 209.562 257.739 213.712L282.581 213.675C288.634 213.666 293.652 207.859 294.095 200.36H294.096Z" fill="#D1D1D1"/>
<path d="M277.016 61.0244V200.953C277.016 207.955 272.44 213.639 266.804 213.639H205.062C199.426 213.639 194.85 207.955 194.85 200.953V61.0244C194.85 54.0232 199.426 48.3391 205.062 48.3391L266.804 48.3391C272.44 48.3391 277.016 54.0232 277.016 61.0244Z" fill="#373660"/>
<path d="M266.904 53.4487H204.971C201.548 53.4487 198.773 56.8954 198.773 61.1471V200.828C198.773 205.08 201.548 208.527 204.971 208.527H266.904C270.327 208.527 273.102 205.08 273.102 200.828V61.1471C273.102 56.8954 270.327 53.4487 266.904 53.4487Z" fill="white"/>
<mask id="mask0_3246_573" style="mask-type:luminance" maskUnits="userSpaceOnUse" x="198" y="53" width="76" height="156">
<path d="M266.904 53.4487H204.971C201.548 53.4487 198.773 56.8954 198.773 61.1471V200.828C198.773 205.08 201.548 208.527 204.971 208.527H266.904C270.327 208.527 273.102 205.08 273.102 200.828V61.1471C273.102 56.8954 270.327 53.4487 266.904 53.4487Z" fill="white"/>
</mask>
<g mask="url(#mask0_3246_573)">
<path d="M193.039 47.2021V145.956L277.02 200.952V48.3379L193.039 47.2021Z" fill="#F7F7F7"/>
<path d="M219.156 42.5231C219.951 42.5231 293.718 101.669 293.718 101.669V160.547L188.359 81.4469L194.431 38.6946L219.157 42.5244L219.156 42.5231Z" fill="white"/>
<path d="M189.391 157.84L266.903 208.527V213.638H188.945L189.391 157.84Z" fill="#F7F7F7"/>
</g>
<path d="M211.316 60.1472H203.227C202.968 60.1472 202.758 60.408 202.758 60.7298V62.3134C202.758 62.6352 202.968 62.896 203.227 62.896H211.316C211.575 62.896 211.785 62.6352 211.785 62.3134V60.7298C211.785 60.408 211.575 60.1472 211.316 60.1472Z" fill="#E8E8E8"/>
<path d="M211.316 64.4917H203.227C202.968 64.4917 202.758 64.7525 202.758 65.0742V66.6579C202.758 66.9796 202.968 67.2404 203.227 67.2404H211.316C211.575 67.2404 211.785 66.9796 211.785 66.6579V65.0742C211.785 64.7525 211.575 64.4917 211.316 64.4917Z" fill="#E8E8E8"/>
<path d="M211.316 68.8359H203.227C202.968 68.8359 202.758 69.0968 202.758 69.4185V71.0021C202.758 71.3239 202.968 71.5847 203.227 71.5847H211.316C211.575 71.5847 211.785 71.3239 211.785 71.0021V69.4185C211.785 69.0968 211.575 68.8359 211.316 68.8359Z" fill="#E8E8E8"/>
<path d="M259.029 121.202H215.688V112.087L237.358 101.105L259.029 112.087V121.202Z" fill="#E8E8E8"/>
<path d="M226.353 121.202H219.953V144.332H226.353V121.202Z" fill="#E8E8E8"/>
<path d="M226.353 121.202H219.953V123.442H226.353V121.202Z" fill="#D1D1D1"/>
<path d="M254.775 121.202H248.375V144.332H254.775V121.202Z" fill="#E8E8E8"/>
<path d="M254.775 121.202H248.375V123.442H254.775V121.202Z" fill="#D1D1D1"/>
<path d="M240.564 121.202H234.164V144.332H240.564V121.202Z" fill="#E8E8E8"/>
<path d="M240.564 121.202H234.164V123.442H240.564V121.202Z" fill="#D1D1D1"/>
<path d="M237.357 118.088C239.854 118.088 241.878 115.574 241.878 112.472C241.878 109.37 239.854 106.856 237.357 106.856C234.86 106.856 232.836 109.37 232.836 112.472C232.836 115.574 234.86 118.088 237.357 118.088Z" fill="#D1D1D1"/>
<path d="M259.03 144.333H215.688V146.945H259.03V144.333Z" fill="#D1D1D1"/>
<path d="M261.004 146.944H213.523V155.355H261.004V146.944Z" fill="#E8E8E8"/>
<path d="M249.386 100.461C254.957 93.5403 254.957 82.3205 249.386 75.4003C243.815 68.4801 234.783 68.4801 229.212 75.4003C223.641 82.3205 223.641 93.5403 229.212 100.461C234.783 107.381 243.815 107.381 249.386 100.461Z" fill="#FFC967"/>
<path d="M240.113 86.4683L254.943 68.0469L259.028 73.1218L244.199 91.5446L240.113 96.6195L236.027 91.5446L230.367 84.5141L234.454 79.4378L240.113 86.4683Z" fill="#FE6D60"/>
<path d="M220.569 169.218H211.998C211.166 169.218 210.492 170.055 210.492 171.088V189.972C210.492 191.005 211.166 191.842 211.998 191.842H220.569C221.4 191.842 222.074 191.005 222.074 189.972V171.088C222.074 170.055 221.4 169.218 220.569 169.218Z" fill="#E8E8E8"/>
<path d="M234.264 169.218H225.693C224.862 169.218 224.188 170.055 224.188 171.088V189.972C224.188 191.005 224.862 191.842 225.693 191.842H234.264C235.096 191.842 235.77 191.005 235.77 189.972V171.088C235.77 170.055 235.096 169.218 234.264 169.218Z" fill="#E8E8E8"/>
<path d="M247.967 169.218H239.396C238.565 169.218 237.891 170.055 237.891 171.088V189.972C237.891 191.005 238.565 191.842 239.396 191.842H247.967C248.799 191.842 249.473 191.005 249.473 189.972V171.088C249.473 170.055 248.799 169.218 247.967 169.218Z" fill="#E8E8E8"/>
<path d="M261.663 169.218H253.092C252.26 169.218 251.586 170.055 251.586 171.088V189.972C251.586 191.005 252.26 191.842 253.092 191.842H261.663C262.494 191.842 263.168 191.005 263.168 189.972V171.088C263.168 170.055 262.494 169.218 261.663 169.218Z" fill="#E8E8E8"/>
<path d="M221.624 169.218H213.052C212.221 169.218 211.547 170.055 211.547 171.088V189.972C211.547 191.005 212.221 191.842 213.052 191.842H221.624C222.455 191.842 223.129 191.005 223.129 189.972V171.088C223.129 170.055 222.455 169.218 221.624 169.218Z" fill="#D1D1D1"/>
<path d="M235.319 169.218H226.748C225.916 169.218 225.242 170.055 225.242 171.088V189.972C225.242 191.005 225.916 191.842 226.748 191.842H235.319C236.15 191.842 236.824 191.005 236.824 189.972V171.088C236.824 170.055 236.15 169.218 235.319 169.218Z" fill="#D1D1D1"/>
<path d="M249.022 169.218H240.451C239.619 169.218 238.945 170.055 238.945 171.088V189.972C238.945 191.005 239.619 191.842 240.451 191.842H249.022C249.853 191.842 250.528 191.005 250.528 189.972V171.088C250.528 170.055 249.853 169.218 249.022 169.218Z" fill="#D1D1D1"/>
<path d="M262.717 169.218H254.146C253.315 169.218 252.641 170.055 252.641 171.088V189.972C252.641 191.005 253.315 191.842 254.146 191.842H262.717C263.549 191.842 264.223 191.005 264.223 189.972V171.088C264.223 170.055 263.549 169.218 262.717 169.218Z" fill="#D1D1D1"/>
<path d="M118.62 38.2893L131.614 56.6361L112.023 59.5755L118.62 38.2893Z" fill="#FFC967"/>
<path d="M93.4897 73.3231C109.789 73.3231 123.003 56.9092 123.003 36.6616C123.003 16.4139 109.789 0 93.4897 0C77.1901 0 63.9766 16.4139 63.9766 36.6616C63.9766 56.9092 77.1901 73.3231 93.4897 73.3231Z" fill="#FFC967"/>
<mask id="mask1_3246_573" style="mask-type:luminance" maskUnits="userSpaceOnUse" x="63" y="0" width="60" height="74">
<path d="M93.4897 73.3231C109.789 73.3231 123.003 56.9092 123.003 36.6616C123.003 16.4139 109.789 0 93.4897 0C77.1901 0 63.9766 16.4139 63.9766 36.6616C63.9766 56.9092 77.1901 73.3231 93.4897 73.3231Z" fill="white"/>
</mask>
<g mask="url(#mask1_3246_573)">
<path d="M110.497 58.301L112.847 79.8964H107.357L105.617 62.1176L110.497 58.301Z" fill="#FFD1C1"/>
<mask id="mask2_3246_573" style="mask-type:luminance" maskUnits="userSpaceOnUse" x="105" y="58" width="8" height="22">
<path d="M110.497 58.301L112.847 79.8964H107.357L105.617 62.1176L110.497 58.301Z" fill="white"/>
</mask>
<g mask="url(#mask2_3246_573)">
<path d="M111.416 62.4868L107.15 64.0012L106.43 74.1164L103.938 61.0418L111.306 56.1309L111.416 62.4868Z" fill="#FFB2A0"/>
</g>
<path d="M90.0184 42.9015C90.0184 42.9015 83.35 42.5642 84.1345 34.6086C84.3952 31.9598 84.8535 29.343 85.4963 26.7969C86.1122 24.3574 86.8387 21.738 87.8743 19.5198C88.7843 17.5695 90.8769 14.9754 92.8612 16.4498C93.0339 16.5778 93.1895 16.7391 93.3183 16.9337C93.3215 16.9377 94.3646 16.5151 94.4397 16.4978C95.2725 16.2991 96.1546 16.3538 96.9294 16.8097C99.2548 18.1774 100.105 22.3005 101.027 25.0013C102.24 28.5579 104.17 32.6397 103.411 36.6508C102.741 40.1941 99.7388 42.1283 97.0335 42.4989C96.7942 42.5323 96.5527 42.5536 96.3113 42.5642L90.0195 42.9002L90.0184 42.9015Z" fill="#373660"/>
<path d="M98.2868 28.2207C98.2868 22.5979 96.0579 18.0388 93.3074 18.0388C90.557 18.0388 88.3281 22.5979 88.3281 28.2207C88.3281 31.7479 89.2049 34.8553 90.5377 36.6829L89.8895 44.4772H96.7254L96.1115 36.6349C97.424 34.8019 98.2868 31.7173 98.2868 28.222V28.2207Z" fill="#FFD1C1"/>
<mask id="mask3_3246_573" style="mask-type:luminance" maskUnits="userSpaceOnUse" x="88" y="18" width="11" height="27">
<path d="M98.2868 28.2207C98.2868 22.5979 96.0579 18.0388 93.3074 18.0388C90.557 18.0388 88.3281 22.5979 88.3281 28.2207C88.3281 31.7479 89.2049 34.8553 90.5377 36.6829L89.8895 44.4772H96.7254L96.1115 36.6349C97.424 34.8019 98.2868 31.7173 98.2868 28.222V28.2207Z" fill="white"/>
</mask>
<g mask="url(#mask3_3246_573)">
<path d="M87.9043 28.1914C87.9043 28.1914 90.2867 25.7279 90.4197 23.7243C90.4197 23.7243 94.3334 25.8692 98.8674 25.044L98.0808 16.9058L88.9528 16.9604C88.9528 16.9604 87.2594 27.3555 87.9043 28.1914Z" fill="#FFB2A0"/>
</g>
<path d="M90.5374 36.6815C90.5374 36.6815 92.9906 40.1928 96.1112 36.6335L96.3119 39.2037C96.3119 39.2037 93.5089 41.7058 90.3281 39.2037L90.5374 36.6815Z" fill="#FFB2A0"/>
<path d="M88.1368 31.2575C88.7905 31.2575 89.3204 30.3718 89.3204 29.2793C89.3204 28.1867 88.7905 27.301 88.1368 27.301C87.4831 27.301 86.9531 28.1867 86.9531 29.2793C86.9531 30.3718 87.4831 31.2575 88.1368 31.2575Z" fill="#FFD1C1"/>
<path d="M98.5352 30.7255C99.1889 30.7255 99.7189 29.8398 99.7189 28.7473C99.7189 27.6547 99.1889 26.769 98.5352 26.769C97.8815 26.769 97.3516 27.6547 97.3516 28.7473C97.3516 29.8398 97.8815 30.7255 98.5352 30.7255Z" fill="#FFD1C1"/>
<path d="M88.3973 27.4914C89.2279 25.5798 89.8589 23.5349 90.2699 21.4247C91.636 23.219 93.5934 24.2961 95.5819 24.2708C94.9713 23.7149 94.4347 23.0177 94.0162 22.2352C95.1966 23.2976 96.5316 24.0908 97.9353 24.5827C97.9922 23.1097 98.0319 21.5607 97.5168 20.2316C97.2227 19.4718 96.7591 18.8306 96.2472 18.2774C95.892 17.8934 95.5046 17.5442 95.0657 17.3349C94.6933 17.1576 94.2931 17.0856 93.8949 17.059C92.6147 16.9723 91.3151 17.3442 90.1948 18.1201C89.6421 18.5026 89.1292 18.9852 88.7246 19.5904C88.4359 20.0223 88.2052 20.5116 88.0078 21.0181C87.5646 22.1539 87.2802 23.3989 87.2813 24.66C87.2813 25.1999 87.336 25.7491 87.5163 26.241C87.6966 26.7329 87.9884 27.3155 88.3984 27.4941L88.3973 27.4914Z" fill="#373660"/>
<path d="M105.659 62.2069L111.793 57.4985C111.793 57.4985 107.933 44.8932 99.438 42.1391C98.5945 41.7459 97.6834 41.5312 96.7358 41.5312H89.6081C89.0597 41.5312 88.5232 41.6046 88.0038 41.7419C78.7287 43.5775 74.125 57.4985 74.125 57.4985L80.259 62.2069L77.8101 79.8978H107.432L105.62 62.1189L105.66 62.2082L105.659 62.2069Z" fill="#FE6D60"/>
<mask id="mask4_3246_573" style="mask-type:luminance" maskUnits="userSpaceOnUse" x="74" y="41" width="38" height="39">
<path d="M105.659 62.2069L111.793 57.4985C111.793 57.4985 107.933 44.8932 99.438 42.1391C98.5945 41.7459 97.6834 41.5312 96.7358 41.5312H89.6081C89.0597 41.5312 88.5232 41.6046 88.0038 41.7419C78.7287 43.5775 74.125 57.4985 74.125 57.4985L80.259 62.2069L77.8101 79.8978H107.432L105.62 62.1189L105.66 62.2082L105.659 62.2069Z" fill="white"/>
</mask>
<g mask="url(#mask4_3246_573)">
<path d="M85.5312 42.4818C85.5312 42.4818 87.0422 47.59 93.3018 47.8087C99.5603 48.0286 101.092 41.5287 101.092 41.5287C101.092 41.5287 86.3382 38.7626 85.5323 42.4818" fill="#FFD1C1"/>
<mask id="mask5_3246_573" style="mask-type:luminance" maskUnits="userSpaceOnUse" x="85" y="40" width="17" height="8">
<path d="M85.5312 42.4818C85.5312 42.4818 87.0422 47.59 93.3018 47.8087C99.5603 48.0286 101.092 41.5287 101.092 41.5287C101.092 41.5287 86.3382 38.7626 85.5323 42.4818" fill="white"/>
</mask>
<g mask="url(#mask5_3246_573)">
<path d="M86.2746 41.7061C86.2746 41.7061 88.2008 46.9889 94.9261 47.7075C94.9261 47.7075 90.4243 48.8912 87.0225 46.905C83.6207 44.9187 84.066 42.13 84.066 42.13L86.2735 41.7074" fill="#FFB2A0"/>
</g>
</g>
<path d="M80.2594 62.2068L82.0182 52.7888L78.625 60.9511L80.2594 62.2068Z" fill="#E63E36"/>
<path d="M105.656 62.2068L104.422 52.7888L107.602 60.7138L105.656 62.2068Z" fill="#E63E36"/>
<path d="M75.1738 58.301L72.3203 79.8964H77.8115L80.2604 62.2069L75.1738 58.301Z" fill="#FFD1C1"/>
<mask id="mask6_3246_573" style="mask-type:luminance" maskUnits="userSpaceOnUse" x="72" y="58" width="9" height="22">
<path d="M75.1738 58.301L72.3203 79.8964H77.8115L80.2604 62.2069L75.1738 58.301Z" fill="white"/>
</mask>
<g mask="url(#mask6_3246_573)">
<path d="M73.3125 60.7138L78.6256 63.6132L79.4723 71.1556L82.2527 60.3712L74.6485 54.8018L73.3125 60.7138Z" fill="#FFB2A0"/>
</g>
</g>
<path d="M99.8809 74.916C100.803 69.8589 98.2499 64.8308 94.1788 63.6856C90.1077 62.5403 86.06 65.7116 85.1381 70.7687C84.2161 75.8259 86.769 80.8539 90.8401 81.9992C94.9112 83.1444 98.9589 79.9732 99.8809 74.916Z" fill="#373660"/>
<path d="M95.0081 72.894C94.7087 72.6007 94.2591 72.3661 93.6603 72.1915L93.2289 72.0648V69.6427C93.2396 69.6494 93.2514 69.656 93.2621 69.6627C93.6527 69.908 93.862 70.3212 93.891 70.9038H95.4556C95.4266 69.8746 95.1197 69.0895 94.5327 68.5496C94.1496 68.1977 93.715 67.9591 93.2289 67.8364V66.646H91.719V67.7898C91.0558 67.8951 90.5289 68.1657 90.1404 68.5989C89.6264 69.1721 89.3699 69.8933 89.3699 70.7598C89.3699 71.7103 89.6328 72.4088 90.1576 72.8553C90.4484 73.106 90.9689 73.3392 91.719 73.5552V76.1826C91.4518 76.084 91.2436 75.9254 91.0944 75.7054C90.9474 75.4868 90.8476 75.1562 90.7972 74.7136H89.2422C89.2422 75.7214 89.5362 76.5119 90.1243 77.0878C90.5439 77.4984 91.0751 77.7636 91.7179 77.8809V79.0434H93.2278V77.9009C93.9092 77.7943 94.4597 77.5197 94.8783 77.0745C95.4288 76.4906 95.7035 75.7547 95.7035 74.8709C95.7035 73.9871 95.4717 73.3499 95.007 72.894H95.0081ZM91.2575 71.3903C91.0043 71.2197 90.8776 70.9611 90.8776 70.6158C90.8776 70.2399 91.0064 69.9453 91.2629 69.736C91.3927 69.6294 91.5451 69.5494 91.72 69.4974V71.6076C91.5054 71.529 91.3509 71.457 91.2575 71.3917V71.3903ZM93.4381 76.1453C93.3737 76.1733 93.304 76.1973 93.2289 76.2173V73.9898C93.466 74.0791 93.6549 74.1764 93.7933 74.2804C94.0208 74.455 94.1346 74.703 94.1346 75.0229C94.1346 75.5708 93.9028 75.944 93.4381 76.1466V76.1453Z" fill="white"/>
<path d="M32.3226 213.637H25.2067C12.5653 213.637 1.75457 202.107 0.0579489 186.544C0.0375595 186.359 0.0182432 186.173 0 185.986L10.0692 197.954C10.0692 197.954 3.48445 176.66 7.35522 163.437C7.35522 163.437 17.5499 189.944 17.3879 195.083C17.3879 195.083 12.7745 161.38 17.2259 146.901C17.2259 146.901 30.5809 177.396 30.9673 188.448C30.9673 188.448 31.5478 179.925 38.3225 169.877C38.3225 169.877 42.1933 186.998 39.871 199.259C39.871 199.259 45.8709 190.15 53.4193 188.693C53.4193 188.693 45.2903 212.387 32.3226 213.636V213.637Z" fill="#D1D1D1"/>
<path d="M153.921 117.18H30.3563C26.6473 117.18 23.6406 120.915 23.6406 125.523V205.295C23.6406 209.902 26.6473 213.637 30.3563 213.637H153.921C157.63 213.637 160.636 209.902 160.636 205.295V125.523C160.636 120.915 157.63 117.18 153.921 117.18Z" fill="#FFC967"/>
<mask id="mask7_3246_573" style="mask-type:luminance" maskUnits="userSpaceOnUse" x="23" y="117" width="138" height="97">
<path d="M153.921 117.18H30.3563C26.6473 117.18 23.6406 120.915 23.6406 125.523V205.295C23.6406 209.902 26.6473 213.637 30.3563 213.637H153.921C157.63 213.637 160.636 209.902 160.636 205.295V125.523C160.636 120.915 157.63 117.18 153.921 117.18Z" fill="white"/>
</mask>
<g mask="url(#mask7_3246_573)">
<path opacity="0.68" d="M125.144 112.455C125.144 112.455 122.866 125.633 139.575 138.68C156.284 151.726 170.923 143.455 170.923 143.455L164.43 123.323L144.357 110.306L125.142 112.455H125.144Z" fill="#FFA648"/>
</g>
<path d="M74.1636 148.914H24.9263C22.9391 148.914 21.3281 150.915 21.3281 153.383V177.433C21.3281 179.901 22.9391 181.903 24.9263 181.903H74.1636C76.1508 181.903 77.7618 179.901 77.7618 177.433V153.383C77.7618 150.915 76.1508 148.914 74.1636 148.914Z" fill="#FFA648"/>
<path d="M152.612 207.677H151.476V207.089H152.612C152.782 207.089 152.951 207.073 153.118 207.044L153.186 207.627C152.997 207.661 152.804 207.679 152.612 207.679V207.677ZM150.338 207.677H149.202V207.089H150.338V207.677ZM148.065 207.677H146.929V207.089H148.065V207.677ZM145.791 207.677H144.655V207.089H145.791V207.677ZM143.517 207.677H142.381V207.089H143.517V207.677ZM141.245 207.677H140.108V207.089H141.245V207.677ZM138.971 207.677H137.834V207.089H138.971V207.677ZM136.697 207.677H135.56V207.089H136.697V207.677ZM134.424 207.677H133.287V207.089H134.424V207.677ZM132.15 207.677H131.013V207.089H132.15V207.677ZM129.876 207.677H128.739V207.089H129.876V207.677ZM127.603 207.677H126.467V207.089H127.603V207.677ZM125.329 207.677H124.193V207.089H125.329V207.677ZM123.056 207.677H121.92V207.089H123.056V207.677ZM120.782 207.677H119.646V207.089H120.782V207.677ZM118.508 207.677H117.372V207.089H118.508V207.677ZM116.235 207.677H115.099V207.089H116.235V207.677ZM113.961 207.677H112.825V207.089H113.961V207.677ZM111.687 207.677H110.551V207.089H111.687V207.677ZM109.415 207.677H108.278V207.089H109.415V207.677ZM107.141 207.677H106.004V207.089H107.141V207.677ZM104.867 207.677H103.73V207.089H104.867V207.677ZM102.594 207.677H101.457V207.089H102.594V207.677ZM100.32 207.677H99.1833V207.089H100.32V207.677ZM98.0458 207.677H96.9094V207.089H98.0458V207.677ZM95.7729 207.677H94.6365V207.089H95.7729V207.677ZM93.499 207.677H92.3625V207.089H93.499V207.677ZM91.225 207.677H90.0886V207.089H91.225V207.677ZM88.9521 207.677H87.8157V207.089H88.9521V207.677ZM86.6782 207.677H85.5417V207.089H86.6782V207.677ZM84.4053 207.677H83.2688V207.089H84.4053V207.677ZM82.1313 207.677H80.9949V207.089H82.1313V207.677ZM79.8574 207.677H78.7209V207.089H79.8574V207.677ZM77.5845 207.677H76.448V207.089H77.5845V207.677ZM75.3105 207.677H74.1741V207.089H75.3105V207.677ZM73.0365 207.677H71.9001V207.089H73.0365V207.677ZM70.7637 207.677H69.6272V207.089H70.7637V207.677ZM68.4897 207.677H67.3533V207.089H68.4897V207.677ZM66.2157 207.677H65.0793V207.089H66.2157V207.677ZM63.9429 207.677H62.8064V207.089H63.9429V207.677ZM61.6689 207.677H60.5325V207.089H61.6689V207.677ZM59.396 207.677H58.2596V207.089H59.396V207.677ZM57.1221 207.677H55.9856V207.089H57.1221V207.677ZM54.8481 207.677H53.7117V207.089H54.8481V207.677ZM52.5752 207.677H51.4388V207.089H52.5752V207.677ZM50.3012 207.677H49.1648V207.089H50.3012V207.677ZM48.0273 207.677H46.8908V207.089H48.0273V207.677ZM45.7544 207.677H44.618V207.089H45.7544V207.677ZM43.4804 207.677H42.344V207.089H43.4804V207.677ZM41.2065 207.677H40.07V207.089H41.2065V207.677ZM38.9336 207.677H37.7972V207.089H38.9336V207.677ZM36.6596 207.677H35.5232V207.089H36.6596V207.677ZM34.3857 207.677H33.2492V207.089H34.3857V207.677ZM32.1085 207.677C31.7018 207.669 31.3026 207.584 30.9205 207.423L31.0719 206.866C31.4067 207.007 31.7587 207.081 32.1149 207.088L32.1074 207.676L32.1085 207.677ZM154.337 207.18L154.128 206.652C154.446 206.458 154.737 206.203 154.994 205.896L155.322 206.32C155.03 206.67 154.698 206.959 154.337 207.18ZM29.8528 206.73C29.5276 206.431 29.2422 206.072 29.005 205.666L29.3892 205.32C29.5974 205.678 29.8485 205.992 30.1339 206.256L29.8528 206.73ZM156.052 205.129L155.635 204.849C155.805 204.461 155.923 204.043 155.988 203.609L156.454 203.717C156.38 204.211 156.245 204.686 156.053 205.129H156.052ZM28.4577 204.333C28.3322 203.857 28.2678 203.36 28.2656 202.856L28.7389 202.852C28.741 203.296 28.7979 203.731 28.9084 204.15L28.4577 204.333ZM156.521 202.256H156.047V200.844H156.521V202.256ZM28.7389 201.441H28.2656V200.03H28.7389V201.441ZM156.521 199.432H156.047V198.021H156.521V199.432ZM28.7389 198.617H28.2656V197.205H28.7389V198.617ZM156.521 196.608H156.047V195.196H156.521V196.608ZM28.7389 195.793H28.2656V194.381H28.7389V195.793ZM156.521 193.783H156.047V192.371H156.521V193.783ZM28.7389 192.968H28.2656V191.557H28.7389V192.968ZM156.521 190.96H156.047V189.548H156.521V190.96ZM28.7389 190.144H28.2656V188.732H28.7389V190.144ZM156.521 188.135H156.047V186.723H156.521V188.135ZM28.7389 187.32H28.2656V185.909H28.7389V187.32ZM156.521 185.31H156.047V183.898H156.521V185.31ZM28.7389 184.496H28.2656V183.084H28.7389V184.496ZM156.521 182.487H156.047V181.075H156.521V182.487ZM28.7389 181.672H28.2656V180.26H28.7389V181.672ZM156.521 179.662H156.047V178.25H156.521V179.662ZM28.7389 178.847H28.2656V177.436H28.7389V178.847ZM156.521 176.837H156.047V175.425H156.521V176.837ZM28.7389 176.023H28.2656V174.611H28.7389V176.023ZM156.521 174.014H156.047V172.602H156.521V174.014ZM28.7389 173.199H28.2656V171.788H28.7389V173.199ZM156.521 171.189H156.047V169.777H156.521V171.189ZM28.7389 170.375H28.2656V168.963H28.7389V170.375ZM156.521 168.364H156.047V166.953H156.521V168.364ZM28.7389 167.55H28.2656V166.138H28.7389V167.55ZM156.521 165.541H156.047V164.129H156.521V165.541ZM28.7389 164.726H28.2656V163.315H28.7389V164.726ZM156.521 162.716H156.047V161.304H156.521V162.716ZM28.7389 161.902H28.2656V160.49H28.7389V161.902ZM156.521 159.893H156.047V158.481H156.521V159.893ZM28.7389 159.077H28.2656V157.665H28.7389V159.077ZM156.521 157.068H156.047V155.656H156.521V157.068ZM28.7389 156.254H28.2656V154.842H28.7389V156.254ZM156.521 154.243H156.047V152.832H156.521V154.243ZM28.7389 153.429H28.2656V152.017H28.7389V153.429ZM156.521 151.42H156.047V150.008H156.521V151.42ZM28.7389 150.604H28.2656V149.192H28.7389V150.604ZM156.521 148.595H156.047V147.183H156.521V148.595ZM28.7389 147.781H28.2656V146.369H28.7389V147.781ZM156.521 145.77H156.047V144.359H156.521V145.77ZM28.7389 144.956H28.2656V143.544H28.7389V144.956ZM156.521 142.947H156.047V141.535H156.521V142.947ZM28.7389 142.131H28.2656V140.72H28.7389V142.131ZM156.521 140.122H156.047V138.711H156.521V140.122ZM28.7389 139.308H28.2656V137.896H28.7389V139.308ZM156.521 137.298H156.047V135.886H156.521V137.298ZM28.7389 136.483H28.2656V135.071H28.7389V136.483ZM156.521 134.474H156.047V133.062H156.521V134.474ZM28.7389 133.66H28.2656V132.248H28.7389V133.66ZM156.521 131.649H156.047V130.238H156.521V131.649ZM28.7389 130.835H28.2656V129.423H28.7389V130.835ZM156.036 128.849C156.008 128.407 155.925 127.978 155.79 127.57L156.228 127.346C156.381 127.81 156.476 128.301 156.508 128.802L156.036 128.849ZM28.8526 128.1L28.3944 127.949C28.4974 127.464 28.6605 127.002 28.8795 126.579L29.2787 126.896C29.0866 127.268 28.9428 127.673 28.8526 128.1ZM155.24 126.445C155.011 126.107 154.742 125.816 154.442 125.58L154.694 125.083C155.036 125.351 155.341 125.681 155.602 126.067L155.239 126.445H155.24ZM29.9794 125.909L29.6768 125.457C29.9891 125.135 30.3368 124.878 30.7113 124.69L30.8884 125.235C30.56 125.4 30.2541 125.627 29.9794 125.909ZM153.47 125.06C153.191 124.971 152.902 124.927 152.612 124.927H152.402V124.339H152.612C152.943 124.339 153.271 124.39 153.588 124.491L153.47 125.06ZM31.9196 124.938L31.8853 124.351C31.9797 124.343 32.0763 124.338 32.1729 124.338H33.0389V124.926H32.1729C32.0881 124.926 32.0033 124.93 31.9196 124.938ZM151.265 124.926H150.129V124.338H151.265V124.926ZM148.992 124.926H147.855V124.338H148.992V124.926ZM146.719 124.926H145.582V124.338H146.719V124.926ZM144.445 124.926H143.308V124.338H144.445V124.926ZM142.171 124.926H141.034V124.338H142.171V124.926ZM139.898 124.926H138.761V124.338H139.898V124.926ZM137.624 124.926H136.487V124.338H137.624V124.926ZM135.35 124.926H134.213V124.338H135.35V124.926ZM133.077 124.926H131.941V124.338H133.077V124.926ZM130.803 124.926H129.667V124.338H130.803V124.926ZM128.529 124.926H127.393V124.338H128.529V124.926ZM126.256 124.926H125.12V124.338H126.256V124.926ZM123.982 124.926H122.846V124.338H123.982V124.926ZM121.708 124.926H120.572V124.338H121.708V124.926ZM119.435 124.926H118.299V124.338H119.435V124.926ZM117.161 124.926H116.025V124.338H117.161V124.926ZM114.887 124.926H113.751V124.338H114.887V124.926ZM112.615 124.926H111.478V124.338H112.615V124.926ZM110.341 124.926H109.204V124.338H110.341V124.926ZM108.068 124.926H106.931V124.338H108.068V124.926ZM105.794 124.926H104.657V124.338H105.794V124.926ZM103.52 124.926H102.383V124.338H103.52V124.926ZM101.247 124.926H100.111V124.338H101.247V124.926ZM98.973 124.926H97.8365V124.338H98.973V124.926ZM96.699 124.926H95.5626V124.338H96.699V124.926ZM94.4261 124.926H93.2897V124.338H94.4261V124.926ZM92.1522 124.926H91.0157V124.338H92.1522V124.926ZM89.8782 124.926H88.7418V124.338H89.8782V124.926ZM87.6053 124.926H86.4689V124.338H87.6053V124.926ZM85.3314 124.926H84.1949V124.338H85.3314V124.926ZM83.0574 124.926H81.921V124.338H83.0574V124.926ZM80.7845 124.926H79.6481V124.338H80.7845V124.926ZM78.5106 124.926H77.3741V124.338H78.5106V124.926ZM76.2377 124.926H75.1012V124.338H76.2377V124.926ZM73.9637 124.926H72.8273V124.338H73.9637V124.926ZM71.6898 124.926H70.5533V124.338H71.6898V124.926ZM69.4169 124.926H68.2804V124.338H69.4169V124.926ZM67.1429 124.926H66.0065V124.338H67.1429V124.926ZM64.869 124.926H63.7325V124.338H64.869V124.926ZM62.5961 124.926H61.4596V124.338H62.5961V124.926ZM60.3221 124.926H59.1857V124.338H60.3221V124.926ZM58.0482 124.926H56.9117V124.338H58.0482V124.926ZM55.7753 124.926H54.6388V124.338H55.7753V124.926ZM53.5013 124.926H52.3649V124.338H53.5013V124.926ZM51.2274 124.926H50.0909V124.338H51.2274V124.926ZM48.9545 124.926H47.818V124.338H48.9545V124.926ZM46.6805 124.926H45.5441V124.338H46.6805V124.926ZM44.4066 124.926H43.2701V124.338H44.4066V124.926ZM42.1337 124.926H40.9972V124.338H42.1337V124.926ZM39.8597 124.926H38.7233V124.338H39.8597V124.926ZM37.5868 124.926H36.4504V124.338H37.5868V124.926ZM35.3129 124.926H34.1764V124.338H35.3129V124.926Z" fill="#FFA648"/>
<path d="M66.4055 174.647C70.5128 174.647 73.8423 170.511 73.8423 165.409C73.8423 160.307 70.5128 156.171 66.4055 156.171C62.2983 156.171 58.9688 160.307 58.9688 165.409C58.9688 170.511 62.2983 174.647 66.4055 174.647Z" fill="#FFC967"/>
<path d="M128.99 166.225C127.671 164.932 125.69 163.898 123.047 163.127L121.146 162.571V151.892C121.196 151.921 121.245 151.949 121.294 151.98C123.015 153.061 123.939 154.886 124.066 157.453H130.967C130.841 152.917 129.483 149.456 126.896 147.071C125.209 145.517 123.293 144.469 121.147 143.929V138.681H114.492V143.721C111.565 144.188 109.246 145.377 107.534 147.289C105.268 149.817 104.136 152.993 104.136 156.816C104.136 161.006 105.294 164.084 107.61 166.054C108.894 167.16 111.189 168.19 114.493 169.143V180.728C113.317 180.294 112.398 179.592 111.74 178.622C111.09 177.657 110.653 176.2 110.431 174.25H103.578C103.578 178.69 104.873 182.179 107.466 184.718C109.316 186.53 111.659 187.695 114.494 188.213V193.34H121.15V188.304C124.153 187.835 126.578 186.62 128.424 184.661C130.852 182.084 132.064 178.845 132.064 174.945C132.064 171.046 131.041 168.238 128.992 166.229L128.99 166.225ZM112.452 159.594C111.337 158.841 110.779 157.702 110.779 156.177C110.779 154.518 111.344 153.223 112.475 152.297C113.048 151.828 113.721 151.477 114.491 151.245V160.547C113.545 160.201 112.864 159.883 112.452 159.594ZM122.068 180.559C121.784 180.682 121.476 180.787 121.146 180.876V171.056C122.193 171.45 123.023 171.875 123.635 172.334C124.637 173.107 125.138 174.198 125.138 175.607C125.138 178.021 124.115 179.671 122.068 180.559Z" fill="#FFA648"/>
<path d="M168.501 83.8141L170.647 86.051L186.23 61.7761L188.981 65.398L175.426 96.2342C174.777 97.7098 173.747 98.8709 172.503 99.5308C170.533 100.576 168.266 100.243 166.547 98.6563L161.211 93.7334L168.503 83.8141H168.501Z" fill="#FFD1C1"/>
<mask id="mask8_3246_573" style="mask-type:luminance" maskUnits="userSpaceOnUse" x="161" y="61" width="28" height="40">
<path d="M168.501 83.8141L170.647 86.051L186.23 61.7761L188.981 65.398L175.426 96.2342C174.777 97.7098 173.747 98.8709 172.503 99.5308C170.533 100.576 168.266 100.243 166.547 98.6563L161.211 93.7334L168.503 83.8141H168.501Z" fill="white"/>
</mask>
<g mask="url(#mask8_3246_573)">
<path d="M170.65 86.051C170.65 86.051 166.431 97.5459 167.644 101.938L158.68 92.7656L167.921 81.4453L170.65 86.051Z" fill="#FFB2A0"/>
</g>
<path d="M185.57 67.239C185.291 67.183 185.102 66.8564 185.147 66.5098L187.125 51.397C187.17 51.0504 187.433 50.8158 187.712 50.8718C187.991 50.9278 188.18 51.2544 188.135 51.601L186.157 66.7138C186.112 67.0604 185.849 67.295 185.57 67.239Z" fill="#373660"/>
<path d="M187.458 56.7919C187.458 56.7919 190.438 59.5926 190.438 60.0098C190.438 60.4271 188.983 65.398 188.983 65.398L186.17 64.2396C186.17 64.2396 185.547 60.0058 185.547 59.054C185.547 58.1023 187.458 56.7905 187.458 56.7905V56.7919Z" fill="#FFD1C1"/>
<path d="M186.463 64.3623L188.979 65.3994L186.156 66.7138L186.463 64.3623Z" fill="#FFB2A0"/>
<path d="M142.925 45.9062C140.406 46.5394 139.007 50.9971 139.8 55.8641L140.498 60.1458C140.774 61.8468 140.927 63.5744 140.954 65.3101L141.048 71.5714L146.863 70.0851L145.796 63.5291C148.314 62.8959 149.714 58.4382 148.921 53.5712C148.128 48.7043 145.444 45.2716 142.925 45.9048V45.9062Z" fill="#FFD1C1"/>
<mask id="mask9_3246_573" style="mask-type:luminance" maskUnits="userSpaceOnUse" x="139" y="45" width="11" height="27">
<path d="M142.925 45.9062C140.406 46.5394 139.007 50.9971 139.8 55.8641L140.498 60.1458C140.774 61.8468 140.927 63.5744 140.954 65.3101L141.048 71.5714L146.863 70.0851L145.796 63.5291C148.314 62.8959 149.714 58.4382 148.921 53.5712C148.128 48.7043 145.444 45.2716 142.925 45.9048V45.9062Z" fill="white"/>
</mask>
<g mask="url(#mask9_3246_573)">
<path d="M149.113 54.7389C149.113 54.7389 145.386 51.245 142.249 52.0328L141.969 49.4747L147.96 47.2432C147.96 47.2432 149.764 54.0111 149.113 54.7376" fill="#FFB2A0"/>
</g>
<path d="M145.791 63.5305C145.791 63.5305 143.916 63.6464 142.289 60.9297C142.289 60.9297 143.342 65.0315 145.972 64.6462L145.791 63.5305Z" fill="#FFB2A0"/>
<path d="M169.579 83.3703L159.093 71.2275C156.426 68.1402 152.916 66.4219 149.271 66.4219H139.731C139.618 66.4219 139.504 66.4232 139.39 66.4272C134.583 66.5685 130.288 70.2077 128.295 75.6439L123.148 89.6809L131.193 95.685L132.866 107.726H157.894L156.643 90.2142L160.755 95.3731L169.579 83.369V83.3703Z" fill="#FE6D60"/>
<mask id="mask10_3246_573" style="mask-type:luminance" maskUnits="userSpaceOnUse" x="123" y="66" width="47" height="42">
<path d="M169.579 83.3703L159.093 71.2275C156.426 68.1402 152.916 66.4219 149.271 66.4219H139.731C139.618 66.4219 139.504 66.4232 139.39 66.4272C134.583 66.5685 130.288 70.2077 128.295 75.6439L123.148 89.6809L131.193 95.685L132.866 107.726H157.894L156.643 90.2142L160.755 95.3731L169.579 83.369V83.3703Z" fill="white"/>
</mask>
<g mask="url(#mask10_3246_573)">
<path d="M131.195 95.6877L136.571 83.8489C136.571 83.8489 134.824 99.6335 136.105 102.094C137.386 104.554 158.588 101.516 158.588 101.516L158.705 110.198L131.926 110.399L131.196 95.6877" fill="#E63E36"/>
<path d="M156.649 90.2155L155.805 80.6482L164.026 92.3977L160.073 97.7139L156.649 90.2155Z" fill="#E63E36"/>
</g>
<path d="M167.869 184.762L166.86 187.559L174.249 196.978C175.504 198.578 175.845 200.967 175.11 203.004L153.367 190.897L157.637 179.063L167.868 184.761L167.869 184.762Z" fill="#4F5285"/>
<path d="M161.948 189.455C161.5 190.696 160.327 191.25 159.328 190.694C158.329 190.139 157.883 188.682 158.33 187.44C158.778 186.199 159.95 185.645 160.95 186.201C161.949 186.757 162.395 188.214 161.948 189.455Z" fill="#373660"/>
<path d="M167.754 188.695L166.356 190.129C166.048 190.445 166.015 191.016 166.283 191.382C166.528 191.717 166.939 191.762 167.227 191.486L168.78 190.001L167.754 188.693V188.695Z" fill="#373660"/>
<path d="M169.559 190.998L168.161 192.433C167.853 192.749 167.819 193.319 168.088 193.686C168.332 194.02 168.743 194.066 169.032 193.79L170.585 192.305L169.559 190.997V190.998Z" fill="#373660"/>
<path d="M171.598 193.596L170.2 195.031C169.892 195.347 169.858 195.917 170.127 196.284C170.371 196.618 170.782 196.664 171.071 196.388L172.624 194.903L171.598 193.595V193.596Z" fill="#373660"/>
<path d="M153.364 190.878L152.641 192.882L174.384 204.987L175.107 202.982L153.364 190.878Z" fill="#373660"/>
<path d="M189.762 168.102L191.187 170.604L201.475 167.492C203.222 166.965 205.051 167.815 206.09 169.637L186.638 186.731L180.609 176.145L189.763 168.102H189.762Z" fill="#4F5285"/>
<path d="M189.371 180.39C190.319 179.709 190.643 178.204 190.096 177.026C189.548 175.849 188.336 175.445 187.388 176.125C186.44 176.806 186.116 178.311 186.663 179.489C187.211 180.667 188.423 181.07 189.371 180.39Z" fill="#373660"/>
<path d="M192.423 170.229L192.705 172.454C192.767 172.943 193.146 173.27 193.537 173.169C193.893 173.077 194.134 172.661 194.09 172.213L193.85 169.797L192.422 170.229H192.423Z" fill="#373660"/>
<path d="M194.939 169.475L195.221 171.7C195.283 172.189 195.662 172.515 196.052 172.415C196.409 172.323 196.649 171.908 196.605 171.46L196.366 169.044L194.938 169.476L194.939 169.475Z" fill="#373660"/>
<path d="M197.774 168.614L198.057 170.838C198.119 171.328 198.498 171.654 198.888 171.553C199.245 171.461 199.485 171.045 199.441 170.597L199.202 168.182L197.773 168.614H197.774Z" fill="#373660"/>
<path d="M206.091 169.627L186.641 186.721L187.662 188.515L207.113 171.42L206.091 169.627Z" fill="#373660"/>
<path d="M157.894 107.728C157.894 107.728 186 116.367 184.246 128.258C183.669 132.176 171.486 186.071 171.486 186.071L153.468 180.102L165.572 134.59C165.572 134.59 129.204 134.646 133.353 107.727H157.894V107.728Z" fill="#373660"/>
<path d="M167.842 117.923C170.075 120.781 194.036 165.594 194.036 165.594L178.119 178.601L157.953 133.569L167.842 117.923Z" fill="#373660"/>
<path d="M174.746 171.292C174.679 171.292 174.615 171.248 174.579 171.17L162.743 144.739C162.692 144.625 162.724 144.481 162.816 144.419C162.907 144.356 163.023 144.396 163.073 144.509L174.91 170.941C174.96 171.054 174.928 171.198 174.837 171.261C174.808 171.281 174.776 171.29 174.744 171.29L174.746 171.292Z" fill="#4F5285"/>
<path d="M181.513 142.571C181.452 142.571 181.393 142.536 181.357 142.47L170.728 123.483C168.793 120.028 165.949 117.424 162.718 116.153L157.077 113.933C156.978 113.895 156.923 113.761 156.954 113.637C156.985 113.513 157.092 113.444 157.192 113.484L162.833 115.704C166.142 117.006 169.057 119.673 171.039 123.214L181.668 142.201C181.728 142.307 181.707 142.454 181.621 142.528C181.588 142.556 181.55 142.571 181.513 142.571Z" fill="#4F5285"/>
<path d="M140.492 60.1473C140.492 60.1473 141.713 56.0241 141.742 55.7762C141.771 55.5282 140.355 55.7402 140.492 54.4298C140.63 53.1194 141.686 52.4102 141.97 53.0834C142.254 53.7566 142.289 54.5711 142.289 54.5711C142.289 54.5711 144.339 52.9061 144.355 52.4809C144.372 52.0556 144.355 49.8601 144.355 49.8601C144.355 49.8601 146.794 51.2585 148.204 50.7719C149.614 50.2853 151.706 46.1795 150.485 44.0067C150.485 44.0067 149.824 45.8769 149.137 46.1302C149.137 46.1302 150.087 44.0347 150.034 41.9924C150.034 41.9924 147.991 44.3986 147.382 44.5306C147.382 44.5306 148.204 43.3108 148.522 41.9924C148.522 41.9924 146.506 43.6068 145.79 43.6068C145.074 43.6068 138.972 42.255 138.6 46.0129C138.6 46.0129 136.027 46.4088 136 49.0443C135.973 51.681 140.493 60.1473 140.493 60.1473H140.492Z" fill="#373660"/>
<path d="M158.549 81.4466L160.214 86.1577C160.214 86.1577 132.99 101.306 129.02 100.799C123.953 100.152 124.485 90.6807 124.485 90.6807L158.549 81.4453V81.4466Z" fill="#FFD1C1"/>
<mask id="mask11_3246_573" style="mask-type:luminance" maskUnits="userSpaceOnUse" x="124" y="81" width="37" height="20">
<path d="M158.549 81.4466L160.214 86.1577C160.214 86.1577 132.99 101.306 129.02 100.799C123.953 100.152 124.485 90.6807 124.485 90.6807L158.549 81.4453V81.4466Z" fill="white"/>
</mask>
<g mask="url(#mask11_3246_573)">
<path d="M124.483 90.6807C124.483 90.6807 125.725 95.617 129.701 95.7876C133.676 95.9582 148.343 93.3188 148.343 93.3188C148.343 93.3188 131.346 102.258 128.741 102.088C126.137 101.917 124.287 99.8734 124.081 98.3417C123.875 96.8087 123.654 91.5338 124.484 90.6807" fill="#FFB2A0"/>
</g>
<path d="M158.548 81.4467C158.548 81.4467 160.734 78.686 161.643 78.5353C162.552 78.3847 168.671 78.9112 168.671 79.2125C168.671 79.5138 168.125 79.915 167.944 79.9777C167.763 80.0403 164.309 80.6429 164.309 80.6429C164.309 80.6429 164.932 82.7678 164.855 84.0302C164.777 85.2926 160.213 86.159 160.213 86.159C160.213 86.159 157.998 84.0582 158.549 81.448L158.548 81.4467Z" fill="#FFD1C0"/>
<path d="M302.997 213.275H5.30469V214H302.997V213.275Z" fill="#373660"/>
</g>
<defs>
<clipPath id="clip0_3246_573">
<rect width="303" height="214" fill="white"/>
</clipPath>
</defs>
</svg>
