<svg width="288" height="251" viewBox="0 0 288 251" fill="none" xmlns="http://www.w3.org/2000/svg">
<path d="M149.803 250.888C217.754 250.888 272.523 195.804 272.132 127.853C271.742 59.9024 216.34 4.81763 148.388 4.81763C80.437 4.81763 25.6681 59.9024 26.0587 127.853C26.4492 195.804 81.8512 250.888 149.803 250.888Z" fill="#E4EDF2"/>
<path d="M114.883 60.1816C118.883 35.5804 102.068 12.413 77.3255 8.43583C52.5829 4.45862 29.2822 21.1777 25.282 45.7789C21.2819 70.38 38.097 93.5474 62.8396 97.5246C87.5823 101.502 110.883 84.7828 114.883 60.1816Z" fill="#BAC6CC"/>
<mask id="mask0_3249_769" style="mask-type:luminance" maskUnits="userSpaceOnUse" x="24" y="7" width="92" height="102">
<path d="M70.0851 7.86108C45.3178 7.86108 25.1979 27.5921 24.7257 52.1054L24.7031 52.08C24.7031 52.2729 24.7091 52.464 24.7114 52.6563C24.7108 52.7654 24.7031 52.8733 24.7031 52.9824C24.7031 56.292 25.0715 59.5154 25.752 62.622C31.0536 89.556 54.6956 108.872 54.6956 108.872L52.4686 94.5778C57.8854 96.8486 63.8373 98.105 70.0851 98.105C95.1491 98.105 115.467 77.9027 115.467 52.9824C115.467 28.0627 95.1491 7.86108 70.0851 7.86108Z" fill="white"/>
</mask>
<g mask="url(#mask0_3249_769)">
<path d="M87.7599 93.7789C87.7599 100.622 82.1805 106.169 75.2979 106.169H65.0166C58.134 106.169 52.5547 100.622 52.5547 93.7789V72.3168C52.5547 65.4736 58.134 59.9263 65.0166 59.9263H75.2979C82.1805 59.9263 87.7599 65.4736 87.7599 72.3168V93.7789Z" fill="#FF931A"/>
<path d="M64.8458 64.0043C64.8458 66.5683 62.7553 68.6469 60.1771 68.6469C57.5984 68.6469 55.5078 66.5683 55.5078 64.0043V46.8574C55.5078 44.2934 57.5984 42.2148 60.1771 42.2148C62.7553 42.2148 64.8458 44.2934 64.8458 46.8574V64.0043Z" fill="#2A343A"/>
<path d="M84.8104 47.5352C84.8104 54.3784 79.231 59.9258 72.3484 59.9258H67.9698C61.0871 59.9258 55.5078 54.3784 55.5078 47.5352V38.965C55.5078 32.1218 61.0871 26.5745 67.9698 26.5745H72.3484C79.231 26.5745 84.8104 32.1218 84.8104 38.965V47.5352Z" fill="#2A343A"/>
<path d="M75.4709 60.0645C75.4709 62.9824 73.092 65.3476 70.1579 65.3476C67.2232 65.3476 64.8438 62.9818 64.8438 60.0645V50.327C64.8438 47.4092 67.2232 45.0439 70.1579 45.0439C73.092 45.0439 75.4709 47.4092 75.4709 50.327V60.0645Z" fill="#F8B69B"/>
<path opacity="0.7" d="M70.1579 45.0439C67.2232 45.0439 64.8438 47.4092 64.8438 50.327V58.0373C65.0793 58.0568 65.3142 58.0727 65.5544 58.0727H72.2229C73.375 58.0727 74.4724 57.8403 75.4709 57.4197V50.327C75.4709 47.4092 73.092 45.0439 70.1579 45.0439Z" fill="#F8B69B"/>
<path d="M81.4226 45.3534C81.4226 51.5396 76.3784 56.5549 70.1566 56.5549C63.9348 56.5549 58.8906 51.5402 58.8906 45.3534V34.3301C58.8906 28.144 63.9348 23.1287 70.1566 23.1287C76.379 23.1287 81.4226 28.144 81.4226 34.3301V45.3534Z" fill="#F8B69B"/>
<path d="M66.8984 47.3162H73.4121C73.4121 47.3162 72.8046 50.5868 70.1944 50.5868C67.5848 50.5874 66.8984 47.3162 66.8984 47.3162Z" fill="#DD8478"/>
<path opacity="0.7" d="M71.4137 43.2497C71.4137 43.7228 70.8508 44.1062 70.1555 44.1062C69.4614 44.1062 68.8984 43.7228 68.8984 43.2497C68.8984 42.7767 69.4614 42.3933 70.1555 42.3933C70.8508 42.3939 71.4137 42.7767 71.4137 43.2497Z" fill="#F8B69B"/>
<path d="M66.2247 41.8888C66.2247 42.7217 65.749 42.2722 65.1629 42.2722C64.5761 42.2722 64.1016 42.7217 64.1016 41.8888C64.1016 41.0566 64.5761 40.3818 65.1629 40.3818C65.7496 40.3818 66.2247 41.056 66.2247 41.8888Z" fill="#2A343A"/>
<path d="M76.2247 41.8888C76.2247 42.7217 75.7495 42.2722 75.1634 42.2722C74.5767 42.2722 74.1016 42.7217 74.1016 41.8888C74.1016 41.0566 74.5767 40.3818 75.1634 40.3818C75.7495 40.3818 76.2247 41.056 76.2247 41.8888Z" fill="#2A343A"/>
<path d="M67.3275 39.6614C67.3275 39.6614 66.5901 38.3196 65.1598 38.3196C63.7296 38.3196 62.9922 39.6614 62.9922 39.6614" stroke="#2A343A" stroke-miterlimit="10" stroke-linecap="round"/>
<path d="M77.3275 39.6614C77.3275 39.6614 76.5901 38.3196 75.1598 38.3196C73.729 38.3196 72.9922 39.6614 72.9922 39.6614" stroke="#2A343A" stroke-miterlimit="10" stroke-linecap="round"/>
<path d="M84.5287 31.5983C84.5287 34.6259 82.0597 37.0808 79.0141 37.0808C75.9684 37.0808 73.5 34.6259 73.5 31.5983C73.5 28.5701 75.9684 26.1152 79.0141 26.1152C82.0597 26.1152 84.5287 28.5701 84.5287 31.5983Z" fill="#2A343A"/>
<path d="M83.8898 37.7525C83.8898 39.3651 82.5752 40.6728 80.9527 40.6728C79.3308 40.6728 78.0156 39.3651 78.0156 37.7525C78.0156 36.1393 79.3308 34.8323 80.9527 34.8323C82.5752 34.8317 83.8898 36.1393 83.8898 37.7525Z" fill="#2A343A"/>
<path d="M61.5382 37.0799C61.5382 38.6925 60.223 40.0002 58.6011 40.0002C56.9787 40.0002 55.6641 38.6925 55.6641 37.0799C55.6641 35.4673 56.9787 34.1597 58.6011 34.1597C60.2236 34.1597 61.5382 35.4673 61.5382 37.0799Z" fill="#2A343A"/>
<path d="M84.5417 41.8395C84.5417 43.3288 83.3273 44.5362 81.8294 44.5362C80.3315 44.5362 79.1172 43.3288 79.1172 41.8395C79.1172 40.3502 80.3315 39.1428 81.8294 39.1428C83.3273 39.1428 84.5417 40.3502 84.5417 41.8395Z" fill="#F8B69B"/>
<path d="M61.3151 41.8395C61.3151 43.3288 60.1008 44.5362 58.6029 44.5362C57.105 44.5362 55.8906 43.3288 55.8906 41.8395C55.8906 40.3502 57.105 39.1428 58.6029 39.1428C60.1008 39.1428 61.3151 40.3502 61.3151 41.8395Z" fill="#F8B69B"/>
<path d="M85.5256 32.6415C84.1048 36.2371 80.021 38.0072 76.4047 36.5945L69.3951 33.8566C65.7787 32.4439 63.9979 28.3835 65.4187 24.7879C66.8394 21.1923 70.9232 19.4217 74.5395 20.8343L81.5491 23.5723C85.1661 24.9849 86.9463 29.0453 85.5256 32.6415Z" fill="#2A343A"/>
<path d="M68.537 26.1126C70.1144 28.866 69.1487 32.3707 66.3789 33.9397L61.0107 36.9802C58.2415 38.5492 57.0308 36.7455 55.4528 33.9916C53.8754 31.2377 54.8412 27.7335 57.6109 26.1639L60.6643 23.9662C63.4341 22.3979 66.9585 23.3581 68.537 26.1126Z" fill="#2A343A"/>
<path d="M64.8458 72.1673C64.8458 74.7307 62.7553 76.8092 60.1771 76.8092C57.5984 76.8092 55.5078 74.7307 55.5078 72.1673V69.9902C55.5078 67.4262 57.5984 65.3477 60.1771 65.3477C62.7553 65.3477 64.8458 67.4262 64.8458 69.9902V72.1673Z" fill="#2A343A"/>
<path d="M56.8984 80.1853V108.064" stroke="#C46D16" stroke-width="2" stroke-miterlimit="10" stroke-linecap="round"/>
<path d="M83.2266 80.1853V108.064" stroke="#C46D16" stroke-width="2" stroke-miterlimit="10" stroke-linecap="round"/>
</g>
<path d="M87.4996 157.653H80.9688V239.444H87.4996V157.653Z" fill="#2A343A"/>
<path d="M205.406 157.653H198.875V239.444H205.406V157.653Z" fill="#2A343A"/>
<path d="M92.5208 150.835H70.9688V160.251H92.5208V150.835Z" fill="#2A343A"/>
<path d="M210.482 150.835H188.93V160.251H210.482V150.835Z" fill="#2A343A"/>
<path d="M218.008 144.559H63.4453V154.191H218.008V144.559Z" fill="#2A343A"/>
<path d="M227.59 137.199H53.8672V146.831H227.59V137.199Z" fill="#2A343A"/>
<path d="M179.693 170.96C179.693 172.395 178.523 173.557 177.08 173.557H143.417C141.974 173.557 140.805 172.394 140.805 170.96V96.5019C140.805 95.0674 141.975 93.9043 143.417 93.9043H177.08C178.523 93.9043 179.693 95.0674 179.693 96.5019V170.96Z" fill="#2A343A"/>
<path d="M179.7 173.937C179.7 175.371 178.53 176.534 177.088 176.534H123.636C122.193 176.534 121.023 175.371 121.023 173.937V168.524C121.023 167.09 122.193 165.927 123.636 165.927H177.088C178.531 165.927 179.7 167.091 179.7 168.524V173.937Z" fill="#2A343A"/>
<path d="M154.867 232.583C154.867 234.323 153.449 235.733 151.699 235.733C149.95 235.733 148.531 234.323 148.531 232.583V209.075C148.531 207.334 149.95 205.925 151.699 205.925C153.449 205.925 154.867 207.334 154.867 209.075V232.583Z" fill="#7191AA"/>
<path d="M132.457 236.887C130.707 236.887 129.289 235.476 129.289 233.737C129.289 231.998 130.707 230.587 132.457 230.587H172.397C174.147 230.587 175.564 231.998 175.564 233.737C175.564 235.476 174.147 236.887 172.397 236.887H132.457Z" fill="#3D5262"/>
<path d="M136.997 234.867C136.997 237.287 135.024 239.25 132.588 239.25C130.153 239.25 128.18 237.288 128.18 234.867C128.18 232.447 130.153 230.484 132.588 230.484C135.023 230.484 136.997 232.446 136.997 234.867Z" fill="#3D5262"/>
<path d="M149.973 234.867C149.973 237.287 148 239.25 145.565 239.25C143.13 239.25 141.156 237.288 141.156 234.867C141.156 232.447 143.13 230.484 145.565 230.484C148 230.484 149.973 232.446 149.973 234.867Z" fill="#7191AA"/>
<path d="M163.684 234.867C163.684 237.287 161.711 239.25 159.276 239.25C156.841 239.25 154.867 237.288 154.867 234.867C154.867 232.447 156.84 230.484 159.276 230.484C161.711 230.484 163.684 232.446 163.684 234.867Z" fill="#7191AA"/>
<path d="M176.825 234.867C176.825 237.287 174.851 239.25 172.416 239.25C169.981 239.25 168.008 237.288 168.008 234.867C168.008 232.447 169.981 230.484 172.416 230.484C174.851 230.484 176.825 232.446 176.825 234.867Z" fill="#3D5262"/>
<path d="M145.004 236.887C143.254 236.887 141.836 235.477 141.836 233.737C141.836 231.998 143.254 230.587 145.004 230.587H157.937C159.688 230.587 161.106 231.998 161.106 233.737C161.106 235.477 159.688 236.887 157.937 236.887H145.004Z" fill="#7191AA"/>
<path d="M158.421 216.06C158.421 218.097 156.76 219.749 154.712 219.749H148.685C146.637 219.749 144.977 218.097 144.977 216.06V174.637C144.977 172.601 146.637 170.95 148.685 170.95H154.712C156.76 170.95 158.421 172.601 158.421 174.637V216.06Z" fill="#7191AA"/>
<path d="M154.867 170.957V219.74C156.843 219.659 158.422 218.045 158.422 216.06V174.637C158.422 172.652 156.843 171.038 154.867 170.957Z" fill="#3D5262"/>
<path d="M154.867 219.741H148.531V223.265H154.867V219.741Z" fill="#3D5262"/>
<path d="M175.34 173.937C175.34 175.371 174.17 176.534 172.728 176.534H119.277C117.834 176.534 116.664 175.371 116.664 173.937V168.524C116.664 167.09 117.834 165.927 119.277 165.927H172.728C174.171 165.927 175.34 167.091 175.34 168.524V173.937Z" fill="#7191AA"/>
<path d="M181.685 174.207C181.685 175.641 180.515 176.804 179.073 176.804H145.409C143.966 176.804 142.797 175.641 142.797 174.207V96.4733C142.797 95.0389 143.967 93.8757 145.409 93.8757H179.073C180.516 93.8757 181.685 95.0389 181.685 96.4733V174.207Z" fill="#7191AA"/>
<path d="M178.179 165.927V94.1526C177.844 93.9975 177.475 93.9043 177.08 93.9043H143.417C141.974 93.9043 140.805 95.0674 140.805 96.5019V165.927H178.179Z" fill="#3D5262"/>
<path d="M158.421 176.767H144.977V180.404H158.421V176.767Z" fill="#3D5262"/>
<path d="M133.351 125.229C132.357 128.163 133.944 131.341 136.895 132.329C139.846 133.317 143.043 131.74 144.036 128.806L152.341 104.274C153.335 101.34 151.748 98.1617 148.797 97.1737C145.846 96.1858 142.65 97.7636 141.656 100.697L133.351 125.229Z" fill="#1A2226"/>
<path d="M113.317 126.495C110.26 127.083 108.262 130.024 108.854 133.062C109.445 136.102 112.403 138.089 115.459 137.5L141.018 132.582C144.074 131.994 146.072 129.054 145.48 126.014C144.89 122.975 141.932 120.988 138.875 121.576L113.317 126.495Z" fill="#1A2226"/>
<path d="M172.436 153.554C172.436 157.911 168.883 161.443 164.501 161.443H149.24C144.858 161.443 141.305 157.911 141.305 153.554V103.648C141.305 99.2905 144.858 95.7581 149.24 95.7581H164.501C168.883 95.7581 172.436 99.2905 172.436 103.648V153.554Z" fill="#2A343A"/>
<path d="M173.237 155.868C173.237 164.198 165.472 170.95 155.892 170.95C146.313 170.95 138.547 164.198 138.547 155.868C138.547 147.538 146.313 140.785 155.892 140.785C165.472 140.785 173.237 147.538 173.237 155.868Z" fill="#2A343A"/>
<path d="M75.0777 157.594H68.5469V239.385H75.0777V157.594Z" fill="#3D5262"/>
<path d="M193.039 157.594H186.508V239.385H193.039V157.594Z" fill="#3D5262"/>
<path d="M82.5833 150.776H61.0312V160.192H82.5833V150.776Z" fill="#7191AA"/>
<path d="M200.544 150.776H178.992V160.192H200.544V150.776Z" fill="#7191AA"/>
<path d="M208.069 144.499H53.5078V154.132H208.069V144.499Z" fill="#3D5262"/>
<path d="M217.652 137.14H43.9297V146.772H217.652V137.14Z" fill="#7191AA"/>
<path d="M122.479 222.055C121.943 225.999 118.293 228.764 114.326 228.231L112.772 228.023C108.804 227.49 106.023 223.861 106.558 219.917L114.277 163.087C114.812 159.143 118.463 156.377 122.429 156.909L123.984 157.117C127.951 157.65 130.732 161.28 130.196 165.223L122.479 222.055Z" fill="#1A2226"/>
<path d="M137.947 217.342C138.461 221.289 135.66 224.903 131.69 225.415L130.135 225.615C126.165 226.127 122.53 223.343 122.015 219.395L114.6 162.525C114.085 158.578 116.886 154.963 120.856 154.451L122.412 154.251C126.381 153.739 130.018 156.525 130.532 160.472L137.947 217.342Z" fill="#2A343A"/>
<path d="M164.074 163.459C164.074 167.596 160.701 170.949 156.54 170.949H122.119C117.958 170.949 114.586 167.596 114.586 163.459V161.587C114.586 157.45 117.958 154.097 122.119 154.097H156.54C160.701 154.097 164.074 157.451 164.074 161.587V163.459Z" fill="#2A343A"/>
<path d="M116.083 130.918C116.083 132.921 114.451 134.544 112.436 134.544H102.835C100.82 134.544 99.1875 132.92 99.1875 130.918C99.1875 128.915 100.82 127.292 102.835 127.292H112.436C114.451 127.292 116.083 128.915 116.083 130.918Z" fill="#F8B69B"/>
<path d="M179.154 126.271C180.148 129.205 178.561 132.384 175.609 133.372C172.658 134.36 165.061 133.1 164.067 130.165L163.103 109.426C162.109 106.492 162.658 103.063 165.609 102.076L163.707 98.2155C166.659 97.2281 169.855 98.8053 170.849 101.74L179.154 126.271Z" fill="#1A2226"/>
<path d="M180.35 125.229C181.343 128.163 179.756 131.341 176.806 132.329C173.854 133.317 170.658 131.739 169.664 128.806L161.359 104.274C160.365 101.34 161.952 98.1616 164.903 97.1736C167.854 96.1857 171.014 98.1474 172.008 101.082L180.35 125.229Z" fill="#2A343A"/>
<path d="M150.36 136.382C147.287 136.884 144.338 136.224 143.833 133.169C143.329 130.114 145.411 127.232 148.483 126.73L174.172 122.537C177.244 122.035 180.144 124.105 180.649 127.16C181.153 130.215 179.071 133.097 175.999 133.599L150.36 136.382Z" fill="#2A343A"/>
<path d="M157.878 133.732H109.672V137.141H157.878V133.732Z" fill="#7191AA"/>
<path d="M155.839 133.732H107.633V137.141H155.839V133.732Z" fill="#BAD7E7"/>
<path d="M111.723 133.082H73.8438V137.14H111.723V133.082Z" fill="#7191AA"/>
<path d="M131.313 120.798C131.313 124.384 128.39 127.291 124.783 127.291H60.7809C57.174 127.291 54.25 124.384 54.25 120.798V86.167C54.25 82.5803 57.174 79.6736 60.7809 79.6736H124.783C128.39 79.6736 131.313 82.5809 131.313 86.167V120.798Z" fill="#7191AA"/>
<path d="M128.782 120.798C128.782 124.384 125.859 127.291 122.251 127.291H58.2496C54.6422 127.291 51.7188 124.384 51.7188 120.798V86.167C51.7188 82.5803 54.6428 79.6736 58.2496 79.6736H122.251C125.859 79.6736 128.782 82.5809 128.782 86.167V120.798Z" fill="#BAD7E7"/>
<path d="M101.194 134.543H86.9062V97.043L95.4725 97.7437L101.194 134.543Z" fill="#7191AA"/>
<path d="M98.4538 134.543H82.0469L84.1635 92.3352H95.9195L98.4538 134.543Z" fill="#BAD7E7"/>
<path d="M109.191 133.082H71.3125V137.14H109.191V133.082Z" fill="#BAD7E7"/>
<path d="M61.5774 94.8793C61.5774 95.3871 61.1634 95.7994 60.652 95.7994C60.1412 95.7994 59.7266 95.3877 59.7266 94.8793V86.1132C59.7266 85.6048 60.1406 85.1931 60.652 85.1931C61.1628 85.1931 61.5774 85.6048 61.5774 86.1132V94.8793Z" fill="#7191AA"/>
<path d="M66.7571 94.8793C66.7571 95.3871 66.343 95.7994 65.8317 95.7994C65.3203 95.7994 64.9062 95.3877 64.9062 94.8793V86.1132C64.9062 85.6048 65.3203 85.1931 65.8317 85.1931C66.3425 85.1931 66.7571 85.6048 66.7571 86.1132V94.8793Z" fill="#7191AA"/>
<path d="M71.9368 94.8793C71.9368 95.3871 71.5227 95.7994 71.0114 95.7994C70.5 95.7994 70.0859 95.3877 70.0859 94.8793V86.1132C70.0859 85.6048 70.5 85.1931 71.0114 85.1931C71.5221 85.1931 71.9368 85.6048 71.9368 86.1132V94.8793Z" fill="#7191AA"/>
<path d="M77.1159 94.8793C77.1159 95.3871 76.7018 95.7994 76.1911 95.7994C75.6797 95.7994 75.2656 95.3877 75.2656 94.8793V86.1132C75.2656 85.6048 75.6797 85.1931 76.1911 85.1931C76.7018 85.1931 77.1159 85.6048 77.1159 86.1132V94.8793Z" fill="#7191AA"/>
<path d="M82.2962 94.8793C82.2962 95.3871 81.8821 95.7994 81.3707 95.7994C80.86 95.7994 80.4453 95.3877 80.4453 94.8793V86.1132C80.4453 85.6048 80.8594 85.1931 81.3707 85.1931C81.8815 85.1931 82.2962 85.6048 82.2962 86.1132V94.8793Z" fill="#7191AA"/>
<path d="M87.4759 94.8793C87.4759 95.3871 87.0618 95.7994 86.5504 95.7994C86.0391 95.7994 85.625 95.3877 85.625 94.8793V86.1132C85.625 85.6048 86.0391 85.1931 86.5504 85.1931C87.0612 85.1931 87.4759 85.6048 87.4759 86.1132V94.8793Z" fill="#7191AA"/>
<path d="M92.655 94.8793C92.655 95.3871 92.2409 95.7994 91.7301 95.7994C91.2188 95.7994 90.8047 95.3877 90.8047 94.8793V86.1132C90.8047 85.6048 91.2188 85.1931 91.7301 85.1931C92.2409 85.1931 92.655 85.6048 92.655 86.1132V94.8793Z" fill="#7191AA"/>
<path d="M97.8274 94.8793C97.8274 95.3871 97.4128 95.7994 96.902 95.7994C96.3906 95.7994 95.9766 95.3877 95.9766 94.8793V86.1132C95.9766 85.6048 96.3906 85.1931 96.902 85.1931C97.4128 85.1931 97.8274 85.6048 97.8274 86.1132V94.8793Z" fill="#7191AA"/>
<path d="M103.007 94.8793C103.007 95.3871 102.592 95.7994 102.082 95.7994C101.57 95.7994 101.156 95.3877 101.156 94.8793V86.1132C101.156 85.6048 101.57 85.1931 102.082 85.1931C102.592 85.1931 103.007 85.6048 103.007 86.1132V94.8793Z" fill="#7191AA"/>
<path d="M108.187 94.8793C108.187 95.3871 107.773 95.7994 107.261 95.7994C106.751 95.7994 106.336 95.3877 106.336 94.8793V86.1132C106.336 85.6048 106.75 85.1931 107.261 85.1931C107.772 85.1931 108.187 85.6048 108.187 86.1132V94.8793Z" fill="#7191AA"/>
<path d="M113.366 94.8793C113.366 95.3871 112.952 95.7994 112.441 95.7994C111.93 95.7994 111.516 95.3877 111.516 94.8793V86.1132C111.516 85.6048 111.93 85.1931 112.441 85.1931C112.952 85.1931 113.366 85.6048 113.366 86.1132V94.8793Z" fill="#7191AA"/>
<path d="M118.546 94.8793C118.546 95.3871 118.132 95.7994 117.621 95.7994C117.109 95.7994 116.695 95.3877 116.695 94.8793V86.1132C116.695 85.6048 117.109 85.1931 117.621 85.1931C118.132 85.1931 118.546 85.6048 118.546 86.1132V94.8793Z" fill="#7191AA"/>
<path d="M157.644 129.83C157.905 131.815 156.497 133.635 154.5 133.895L144.98 135.132C142.983 135.392 141.152 133.991 140.891 132.006C140.63 130.021 142.038 128.2 144.035 127.941L153.555 126.704C155.552 126.445 157.383 127.844 157.644 129.83Z" fill="#F8B69B"/>
<path d="M123.16 226.842L93.0547 231.306C93.0547 231.306 95.0859 221.867 108.393 219.436C122.09 217.406 111.173 219.024 121.752 217.456L123.16 226.842Z" fill="#2A343A"/>
<path d="M124.054 226.56L93.0703 231.17L93.3882 233.283L124.371 228.673L124.054 226.56Z" fill="#3D5262"/>
<path d="M163.032 74.8685C163.032 78.4546 160.108 81.3619 156.501 81.3619H149.398C145.792 81.3619 142.867 78.4546 142.867 74.8685V64.4143C142.867 60.8276 145.792 57.9209 149.398 57.9209H156.501C160.108 57.9209 163.032 60.8282 163.032 64.4143V74.8685Z" stroke="#2A343A" stroke-width="2" stroke-miterlimit="10" stroke-linecap="round"/>
<path d="M166.101 80.3004C166.101 82.4821 164.323 84.2504 162.129 84.2504C159.935 84.2504 158.156 82.4815 158.156 80.3004V74.208C158.156 72.0262 159.935 70.2573 162.129 70.2573C164.323 70.2573 166.101 72.0262 166.101 74.208V80.3004Z" fill="#A56247"/>
<path d="M159.039 97.0395C159.039 99.8176 156.774 102.07 153.981 102.07C151.187 102.07 148.922 99.8176 148.922 97.0395V87.7686C148.922 84.9905 151.187 82.7385 153.981 82.7385C156.774 82.7385 159.039 84.9899 159.039 87.7686V97.0395Z" fill="#F8B69B"/>
<path opacity="0.7" d="M153.981 82.7385C151.187 82.7385 148.922 84.9899 148.922 87.7686V95.109C149.146 95.1273 149.37 95.1426 149.599 95.1426H155.947C157.044 95.1426 158.089 94.9214 159.039 94.521V87.7686C159.039 84.9905 156.774 82.7385 153.981 82.7385Z" fill="#F8B69B"/>
<path d="M163.883 85.5661C163.883 89.9237 160.329 93.4562 155.948 93.4562H149.599C145.217 93.4562 141.664 89.9237 141.664 85.5661V69.5227C141.664 65.1651 145.217 61.6326 149.599 61.6326H155.948C160.329 61.6326 163.883 65.1651 163.883 69.5227V85.5661Z" fill="#F8B69B"/>
<path opacity="0.3" d="M148.999 77.1999C148.999 78.3058 148.098 79.2024 146.986 79.2024H144.373C143.261 79.2024 142.359 78.3058 142.359 77.1999C142.359 76.0939 143.261 75.198 144.373 75.198H146.986C148.098 75.198 148.999 76.0945 148.999 77.1999Z" fill="white"/>
<path d="M148.999 77.1999C148.999 78.3058 148.098 79.2024 146.986 79.2024H144.373C143.261 79.2024 142.359 78.3058 142.359 77.1999C142.359 76.0939 143.261 75.198 144.373 75.198H146.986C148.098 75.198 148.999 76.0945 148.999 77.1999Z" stroke="#3D5262" stroke-miterlimit="10"/>
<path opacity="0.3" d="M156.969 76.995C156.969 78.101 156.067 78.9975 154.955 78.9975H152.342C151.23 78.9975 150.328 78.101 150.328 76.995C150.328 75.8897 151.23 74.9932 152.342 74.9932H154.955C156.066 74.9932 156.969 75.8891 156.969 76.995Z" fill="white"/>
<path d="M156.969 76.995C156.969 78.101 156.067 78.9975 154.955 78.9975H152.342C151.23 78.9975 150.328 78.101 150.328 76.995C150.328 75.8897 151.23 74.9932 152.342 74.9932H154.955C156.066 74.9932 156.969 75.8891 156.969 76.995Z" stroke="#3D5262" stroke-miterlimit="10"/>
<path d="M146.52 77.393C146.52 78.056 146.141 77.6986 145.674 77.6986C145.207 77.6986 144.828 78.056 144.828 77.393C144.828 76.7301 145.207 76.1921 145.674 76.1921C146.141 76.1921 146.52 76.7301 146.52 77.393Z" fill="#2A343A"/>
<path d="M154.489 77.393C154.489 78.056 154.11 77.6986 153.643 77.6986C153.175 77.6986 152.797 78.056 152.797 77.393C152.797 76.7301 153.175 76.1921 153.643 76.1921C154.11 76.1921 154.489 76.7301 154.489 77.393Z" fill="#2A343A"/>
<path d="M146.453 84.9004H154.063C154.063 84.9004 153.354 88.7219 150.304 88.7219C147.255 88.7219 146.453 84.9004 146.453 84.9004Z" fill="white"/>
<path d="M156.086 59.6511H142.254C139.512 59.6511 137.289 61.8612 137.289 64.5874C137.289 64.8705 137.319 65.1466 137.365 65.4167H141.136V69.5231H156.086C158.828 69.5231 161.051 67.313 161.051 64.5874C161.051 61.8612 158.829 59.6511 156.086 59.6511Z" fill="#A56247"/>
<path d="M166.096 74.1181C166.096 76.0103 164.553 77.5451 162.65 77.5451C160.747 77.5451 159.203 76.0103 159.203 74.1181V63.3909C159.203 61.4987 160.747 59.9646 162.65 59.9646C164.553 59.9646 166.096 61.4987 166.096 63.3909V74.1181Z" fill="#A56247"/>
<path opacity="0.7" d="M150.926 81.3615C150.926 81.8122 150.39 82.1773 149.728 82.1773C149.068 82.1773 148.531 81.8122 148.531 81.3615C148.531 80.9115 149.067 80.5464 149.728 80.5464C150.39 80.5464 150.926 80.9115 150.926 81.3615Z" fill="#F8B69B"/>
<path d="M154.913 73.6945C154.913 74.0083 154.657 74.2625 154.342 74.2625H152.571C152.256 74.2625 152 74.0083 152 73.6945C152 73.3807 152.256 73.1265 152.571 73.1265H154.342C154.657 73.1265 154.913 73.3807 154.913 73.6945Z" fill="#A56247"/>
<path d="M147.034 73.1657C147.148 73.4582 147.004 73.7873 146.709 73.9024L145.062 74.5447C144.768 74.6591 144.436 74.5152 144.32 74.2232C144.206 73.9307 144.351 73.6016 144.645 73.4865L146.292 72.8448C146.587 72.7292 146.918 72.8737 147.034 73.1657Z" fill="#A56247"/>
<path d="M149 77.2H150.337" stroke="#3D5262" stroke-miterlimit="10"/>
<path d="M157.148 76.9937H159.21" stroke="#3D5262" stroke-miterlimit="10"/>
<path d="M162.655 77.2542C162.655 81.3782 162.655 78.2551 162.655 80.5466C162.655 86.2485 155.688 86.2485 155.688 86.2485" stroke="#2A343A" stroke-width="2" stroke-miterlimit="10" stroke-linecap="round"/>
<path d="M158.264 85.8573C158.399 86.496 157.987 87.1224 157.345 87.2563L155.933 87.5518C155.291 87.6863 154.66 87.2776 154.526 86.6394C154.39 86.0012 154.802 85.3742 155.444 85.2403L156.856 84.9448C157.498 84.8103 158.128 85.2191 158.264 85.8573Z" fill="#2A343A"/>
<path d="M161.453 60.179C162.438 61.3161 163.034 62.7954 163.034 64.4139V74.8681" stroke="#2A343A" stroke-width="2" stroke-miterlimit="10" stroke-linecap="round"/>
<path d="M166.86 76.3828C166.86 78.6826 164.987 80.547 162.672 80.547C160.36 80.547 158.484 78.6826 158.484 76.3828C158.484 74.0837 160.359 72.2192 162.672 72.2192C164.987 72.2192 166.86 74.0837 166.86 76.3828Z" fill="#2A343A"/>
<path d="M165.654 76.3837C165.654 78.0305 164.311 79.3647 162.655 79.3647C160.999 79.3647 159.656 78.0299 159.656 76.3837C159.656 74.7375 160.999 73.4021 162.655 73.4021C164.311 73.4021 165.654 74.7375 165.654 76.3837Z" fill="#7191AA"/>
<path d="M216.815 50.8945H179.346C176.071 50.8945 173.414 53.5352 173.414 56.7928V73.6667V73.6673L173.415 84.5006L183.638 79.565H216.815C220.091 79.565 222.747 76.9243 222.747 73.6667V56.7928C222.747 53.5352 220.091 50.8945 216.815 50.8945Z" fill="white"/>
<path d="M207.77 57.2848C207.77 57.8823 207.283 58.3659 206.683 58.3659H181.635C181.034 58.3659 180.547 57.8817 180.547 57.2848C180.547 56.6873 181.034 56.2036 181.635 56.2036H206.683C207.283 56.2036 207.77 56.6879 207.77 57.2848Z" fill="#BAD7E7"/>
<path d="M207.77 68.6881C207.77 69.2856 207.283 69.7698 206.683 69.7698H181.635C181.034 69.7698 180.547 69.2856 180.547 68.6881C180.547 68.0906 181.034 67.6069 181.635 67.6069H206.683C207.283 67.6063 207.77 68.0906 207.77 68.6881Z" fill="#BAD7E7"/>
<path d="M199.169 62.5931C199.169 63.1906 198.682 63.6743 198.082 63.6743H181.635C181.034 63.6743 180.547 63.19 180.547 62.5931C180.547 61.9956 181.034 61.512 181.635 61.512H198.082C198.682 61.512 199.169 61.9962 199.169 62.5931Z" fill="#BAD7E7"/>
<path d="M137.112 0H99.6432C96.3674 0 93.7109 2.64067 93.7109 5.89829V22.7721L93.7115 33.6061L103.935 28.6704H137.111C140.387 28.6704 143.044 26.0298 143.044 22.7721V5.89829C143.044 2.64067 140.388 0 137.112 0Z" fill="white"/>
<path d="M128.067 12.0919C128.067 12.6894 127.58 13.1736 126.98 13.1736H101.932C101.331 13.1736 100.844 12.6894 100.844 12.0919C100.844 11.4944 101.331 11.0107 101.932 11.0107H126.98C127.58 11.0107 128.067 11.4944 128.067 12.0919Z" fill="#BAD7E7"/>
<path d="M128.067 17.7933C128.067 18.3908 127.58 18.8745 126.98 18.8745H101.932C101.331 18.8745 100.844 18.3902 100.844 17.7933C100.844 17.1958 101.331 16.7122 101.932 16.7122H126.98C127.58 16.7116 128.067 17.1958 128.067 17.7933Z" fill="#BAD7E7"/>
<path d="M119.466 6.38999C119.466 6.98749 118.979 7.47115 118.378 7.47115H101.932C101.331 7.47115 100.844 6.9869 100.844 6.38999C100.844 5.7925 101.331 5.30884 101.932 5.30884H118.378C118.979 5.30884 119.466 5.7925 119.466 6.38999Z" fill="#BAD7E7"/>
<path d="M139.082 224.752L108.977 229.215C108.977 229.215 111.008 219.776 124.314 217.346C138.012 215.316 127.095 216.935 137.675 215.366L139.082 224.752Z" fill="#3D5262"/>
<path d="M139.975 224.468L108.992 229.078L109.31 231.191L140.293 226.581L139.975 224.468Z" fill="#7191AA"/>
<path d="M148.922 95.7581V101.375C148.922 104.153 151.187 106.405 153.981 106.405C156.774 106.405 159.039 104.153 159.039 101.375V95.7581H148.922Z" fill="white"/>
<path d="M150.812 95.7581V96.3261C150.812 97.5559 151.816 98.5533 153.053 98.5533C154.29 98.5533 155.293 97.5559 155.293 96.3261V95.7581H150.812Z" fill="#2A343A"/>
<path d="M154.318 106.593C154.318 107.286 153.754 107.847 153.057 107.847C152.361 107.847 151.797 107.286 151.797 106.593V97.5466C151.797 96.8547 152.361 96.2932 153.057 96.2932C153.754 96.2932 154.318 96.8547 154.318 97.5466V106.593Z" fill="#2A343A"/>
<path d="M211.391 130.077H185.97C185.844 130.077 185.724 130.102 185.602 130.114V131.024L190.845 133.419L185.602 136.203V137.113C185.724 137.126 185.844 137.15 185.97 137.15H211.391C213.356 137.15 214.947 135.568 214.947 133.615C214.947 131.659 213.355 130.077 211.391 130.077Z" fill="#2A343A"/>
<path d="M204.516 131.006H185.777C185.717 131.006 185.661 131.02 185.602 131.023C185.602 131.023 186.475 132.349 186.475 133.686C186.475 135.023 185.602 136.202 185.602 136.202C185.661 136.207 185.717 136.219 185.777 136.219H204.516C205.964 136.219 207.138 135.052 207.138 133.613C207.138 132.174 205.964 131.006 204.516 131.006Z" fill="white"/>
<path d="M209.999 124.52H189.823C189.723 124.52 189.629 124.539 189.531 124.549V125.271L193.692 127.171L189.531 129.381V130.102C189.629 130.113 189.723 130.132 189.823 130.132H209.999C211.557 130.132 212.821 128.876 212.821 127.327C212.821 125.776 211.557 124.52 209.999 124.52Z" fill="#2A343A"/>
<path d="M204.542 125.257H189.669C189.622 125.257 189.578 125.268 189.531 125.271C189.531 125.271 190.224 126.323 190.224 127.383C190.224 128.444 189.531 129.381 189.531 129.381C189.578 129.384 189.622 129.394 189.669 129.394H204.542C205.691 129.394 206.623 128.468 206.623 127.326C206.622 126.183 205.691 125.257 204.542 125.257Z" fill="white"/>
<path d="M0 39.5899C0 36.3335 2.65648 33.6917 5.93229 33.6917H45.4811C48.7569 33.6917 51.4134 36.3335 51.4134 39.5899V46.9192C51.4134 50.1762 48.7569 52.8175 45.4811 52.8175H5.93229C2.65648 52.8175 0 50.1762 0 46.9192V39.5899Z" fill="white"/>
<path d="M236.247 140.089V138.864L240.847 133.829C241.387 133.239 241.831 132.727 242.181 132.291C242.53 131.851 242.788 131.438 242.956 131.053C243.129 130.663 243.215 130.254 243.215 129.828C243.215 129.338 243.097 128.914 242.861 128.555C242.63 128.197 242.312 127.92 241.908 127.725C241.505 127.53 241.051 127.433 240.548 127.433C240.012 127.433 239.545 127.544 239.146 127.766C238.751 127.984 238.445 128.29 238.227 128.685C238.014 129.079 237.907 129.542 237.907 130.073H236.302C236.302 129.256 236.49 128.54 236.866 127.923C237.243 127.306 237.756 126.825 238.404 126.48C239.057 126.135 239.79 125.963 240.602 125.963C241.419 125.963 242.142 126.135 242.773 126.48C243.403 126.825 243.898 127.29 244.256 127.875C244.614 128.46 244.793 129.111 244.793 129.828C244.793 130.34 244.701 130.842 244.515 131.332C244.333 131.817 244.016 132.359 243.562 132.958C243.113 133.552 242.489 134.278 241.691 135.135L238.561 138.483V138.592H245.038V140.089H236.247ZM235.921 160.231V158.843L242.045 149.154H243.052V151.304H242.371L237.744 158.625V158.734H245.991V160.231H235.921ZM242.48 163.089V159.809V159.163V149.154H244.086V163.089H242.48Z" fill="white"/>
<path d="M253.982 146.966L249.491 163.65H248.021L252.512 146.966H253.982Z" fill="white"/>
<path d="M261.112 140.089L267.345 127.76V127.651H260.16V126.154H269.087V127.733L262.882 140.089H261.112Z" fill="white"/>
<path d="M127.17 64.5875C127.17 64.5875 124.265 63.432 124.265 59.8606C124.265 63.4845 121.359 64.5875 121.359 64.5875C121.359 64.5875 124.265 65.743 124.265 69.3144C124.265 65.6905 127.17 64.5875 127.17 64.5875Z" fill="white"/>
<path d="M204.084 107.845C204.084 107.845 201.178 106.69 201.178 103.118C201.178 106.742 198.273 107.845 198.273 107.845C198.273 107.845 201.178 109.001 201.178 112.572C201.178 108.948 204.084 107.845 204.084 107.845Z" fill="white"/>
<path d="M251.973 173.559C251.973 173.559 249.76 172.679 249.76 169.958C249.76 172.719 247.547 173.559 247.547 173.559C247.547 173.559 249.76 174.439 249.76 177.159C249.76 174.398 251.973 173.559 251.973 173.559Z" fill="white"/>
<path d="M236.402 63.6738C236.402 63.6738 234.189 62.7938 234.189 60.0735C234.189 62.8339 231.977 63.6738 231.977 63.6738C231.977 63.6738 234.189 64.5544 234.189 67.2747C234.189 64.5137 236.402 63.6738 236.402 63.6738Z" fill="white"/>
<path d="M36.5394 45.6391C34.6352 43.6254 33.5703 39.8741 33.5703 39.8741C33.5905 39.7119 33.6338 39.5674 33.7056 39.4246C33.7762 39.2701 33.8705 39.148 33.9785 39.0548L35.4544 37.5696C35.9806 37.1479 36.5026 37.3148 36.7417 37.7943L37.9483 40.0546C38.0498 40.2398 38.0729 40.4368 38.0355 40.6408C37.9982 40.8414 37.911 41.013 37.7698 41.1569L37.24 41.6801C37.2602 41.814 37.3249 41.978 37.4394 42.1673C37.5805 42.4009 37.7324 42.6168 37.8973 42.8179C38.1091 43.0792 38.3351 43.334 38.5748 43.5853C38.9052 43.9103 39.2018 44.1633 39.4575 44.3355C39.7174 44.5101 39.9333 44.647 40.1047 44.7396C40.2495 44.8151 40.3812 44.874 40.4921 44.9024L41.1055 44.2854C41.2135 44.1716 41.4187 44.0141 41.7764 44.0141C41.9449 44.0141 42.0897 44.0477 42.2048 44.1043L42.2718 44.1509L44.4489 45.4149C44.5605 45.4987 44.6346 45.5754 44.6987 45.6526C44.7764 45.7476 44.8233 45.8573 44.847 45.9859C44.8844 46.1481 44.8808 46.4176 44.6174 46.6813L43.1213 48.1688C43.027 48.2638 42.9095 48.3481 42.7636 48.4183C42.623 48.4909 38.4437 47.6533 36.5394 45.6391Z" fill="#BAD7E7"/>
<path d="M229.476 105.942C236.009 105.942 241.304 100.677 241.304 94.1816C241.304 87.6868 236.009 82.4216 229.476 82.4216C222.944 82.4216 217.648 87.6868 217.648 94.1816C217.648 100.677 222.944 105.942 229.476 105.942Z" stroke="white" stroke-width="2" stroke-miterlimit="10"/>
<path d="M229.477 82.4216V105.941" stroke="white" stroke-width="2" stroke-miterlimit="10"/>
<path d="M217.648 94.1812H241.296" stroke="white" stroke-width="2" stroke-miterlimit="10"/>
<path d="M222.32 84.8225C222.32 84.8225 229.564 90.5114 236.638 84.8225" stroke="white" stroke-width="2" stroke-miterlimit="10"/>
<path d="M236.63 103.376C236.63 103.376 229.387 97.6869 222.312 103.376" stroke="white" stroke-width="2" stroke-miterlimit="10"/>
<path d="M227.893 82.5291C227.893 82.5291 217.409 94.1257 227.133 105.71" stroke="white" stroke-width="2" stroke-miterlimit="10"/>
<path d="M230.578 82.5913C230.578 82.5913 241.063 94.1879 231.339 105.773" stroke="white" stroke-width="2" stroke-miterlimit="10"/>
<path d="M138.71 34.1252H128.922V43.8574H138.71V34.1252Z" stroke="white" stroke-width="2" stroke-miterlimit="10"/>
<path d="M131.023 36.8235L134.214 42.1868L141.326 33.7759" stroke="white" stroke-width="2" stroke-miterlimit="10" stroke-linecap="round" stroke-linejoin="round"/>
<path d="M185.288 27.5972H175.5V37.3294H185.288V27.5972Z" stroke="white" stroke-width="2" stroke-miterlimit="10"/>
<path d="M177.57 30.6442L180.761 36.0075L187.873 27.5972" stroke="white" stroke-width="2" stroke-miterlimit="10" stroke-linecap="round" stroke-linejoin="round"/>
<path d="M161.741 11.3589H151.953V21.0911H161.741V11.3589Z" stroke="white" stroke-width="2" stroke-miterlimit="10"/>
<path d="M154.055 14.0578L157.246 19.4211L164.358 11.0107" stroke="white" stroke-width="2" stroke-miterlimit="10" stroke-linecap="round" stroke-linejoin="round"/>
<path d="M146.523 42.1887H195.184" stroke="white" stroke-width="2" stroke-miterlimit="10" stroke-linecap="round" stroke-linejoin="round"/>
<path d="M245.414 86.2483H276.871" stroke="white" stroke-width="2" stroke-miterlimit="10" stroke-linecap="round" stroke-linejoin="round"/>
<path d="M208.07 112.574H275.68" stroke="white" stroke-width="2" stroke-miterlimit="10" stroke-linecap="round" stroke-linejoin="round"/>
<path d="M245.414 142.015H279.219" stroke="white" stroke-width="2" stroke-miterlimit="10" stroke-linecap="round" stroke-linejoin="round"/>
<path d="M251.523 90.4963H282.98" stroke="white" stroke-width="2" stroke-miterlimit="10" stroke-linecap="round" stroke-linejoin="round"/>
<path d="M254.789 107.847H286.246" stroke="white" stroke-width="2" stroke-miterlimit="10" stroke-linecap="round" stroke-linejoin="round"/>
<path d="M259.953 146.772H284.771" stroke="white" stroke-width="2" stroke-miterlimit="10" stroke-linecap="round" stroke-linejoin="round"/>
<path d="M227.586 154.097H275.682" stroke="white" stroke-width="2" stroke-miterlimit="10" stroke-linecap="round" stroke-linejoin="round"/>
<path d="M146.352 46.1204H171.733" stroke="white" stroke-width="2" stroke-miterlimit="10" stroke-linecap="round" stroke-linejoin="round"/>
<path d="M143.711 31.802H158.486" stroke="white" stroke-width="2" stroke-miterlimit="10" stroke-linecap="round" stroke-linejoin="round"/>
<path d="M177.898 18.8752H192.673" stroke="white" stroke-width="2" stroke-miterlimit="10" stroke-linecap="round" stroke-linejoin="round"/>
<path d="M147.562 28.425H172.944" stroke="white" stroke-width="2" stroke-miterlimit="10" stroke-linecap="round" stroke-linejoin="round"/>
<path d="M166.758 16.2268H191.633" stroke="white" stroke-width="2" stroke-miterlimit="10" stroke-linecap="round" stroke-linejoin="round"/>
</svg>
