<svg width="311" height="262" viewBox="0 0 311 262" fill="none" xmlns="http://www.w3.org/2000/svg">
<g clip-path="url(#clip0_3246_368)">
<path opacity="0.15" d="M239.157 170.003V221.487H94.1562V139.621H123.729V163.207H128.389V88.1893L141.8 74.7748H153.006V107.474H163.83V60.4016H181.088L191.132 70.4477V135.747H198.215V110.855H222.299V153.141L239.157 170.003Z" fill="url(#paint0_linear_3246_368)"/>
<path d="M205.21 112.97H201.469V116.712H205.21V112.97Z" fill="white"/>
<path d="M212.132 112.97H208.391V116.712H212.132V112.97Z" fill="white"/>
<path d="M219.039 112.97H215.297V116.712H219.039V112.97Z" fill="white"/>
<path d="M205.21 120.015H201.469V123.758H205.21V120.015Z" fill="white"/>
<path d="M212.132 120.015H208.391V123.758H212.132V120.015Z" fill="white"/>
<path d="M219.039 120.015H215.297V123.758H219.039V120.015Z" fill="white"/>
<path d="M205.21 127.054H201.469V130.797H205.21V127.054Z" fill="white"/>
<path d="M212.132 127.054H208.391V130.797H212.132V127.054Z" fill="white"/>
<path d="M219.039 127.054H215.297V130.797H219.039V127.054Z" fill="white"/>
<path d="M205.21 134.093H201.469V137.835H205.21V134.093Z" fill="white"/>
<path d="M212.132 134.093H208.391V137.835H212.132V134.093Z" fill="white"/>
<path d="M219.039 134.093H215.297V137.835H219.039V134.093Z" fill="white"/>
<path d="M205.21 141.138H201.469V144.881H205.21V141.138Z" fill="white"/>
<path d="M212.132 141.138H208.391V144.881H212.132V141.138Z" fill="white"/>
<path d="M219.039 141.138H215.297V144.881H219.039V141.138Z" fill="white"/>
<path d="M205.21 148.177H201.469V151.92H205.21V148.177Z" fill="white"/>
<path d="M212.132 148.177H208.391V151.92H212.132V148.177Z" fill="white"/>
<path d="M219.039 148.177H215.297V151.92H219.039V148.177Z" fill="white"/>
<path d="M212.132 155.216H208.391V158.958H212.132V155.216Z" fill="white"/>
<path d="M219.046 155.216H215.305V158.958H219.046V155.216Z" fill="white"/>
<path d="M219.039 162.261H215.297V166.004H219.039V162.261Z" fill="white"/>
<path d="M151.037 88.7473H130.359V90.7828H151.037V88.7473Z" fill="white"/>
<path d="M151.037 93.0679H130.359V95.1034H151.037V93.0679Z" fill="white"/>
<path d="M151.037 97.3882H130.359V99.4237H151.037V97.3882Z" fill="white"/>
<path d="M151.037 101.702H130.359V103.738H151.037V101.702Z" fill="white"/>
<path d="M151.037 106.023H130.359V108.058H151.037V106.023Z" fill="white"/>
<path d="M151.037 110.343H130.359V112.379H151.037V110.343Z" fill="white"/>
<path d="M140.797 114.664H130.359V116.699H140.797V114.664Z" fill="white"/>
<path d="M140.698 118.984H130.359V121.02H140.698V118.984Z" fill="white"/>
<path d="M168.008 151.92H166.695V63.0281H180.382V64.3413H168.008V151.92Z" fill="white"/>
<path d="M131.731 124.093H130.359V151.92H131.731V124.093Z" fill="white"/>
<path opacity="0.15" d="M105.876 44.4197H38.0594C38.0594 44.4197 30.0246 37.4859 32.6044 31.9572C35.2892 26.2119 46.5536 32.5351 46.5536 32.5351C46.5536 32.5351 40.9739 20.611 51.8773 19.8494C62.7873 19.0877 78.0035 33.8023 78.0035 33.8023C78.0035 33.8023 75.5944 28.0964 81.6796 28.602C87.7647 29.1076 105.863 44.4197 105.863 44.4197H105.876Z" fill="url(#paint1_linear_3246_368)"/>
<path opacity="0.15" d="M273.878 85.2541H239.192C239.192 85.2541 235.082 81.7084 236.402 78.8784C237.774 75.9368 243.537 79.1739 243.537 79.1739C243.537 79.1739 240.682 73.074 246.261 72.6866C251.841 72.2992 259.627 79.8239 259.627 79.8239C259.627 79.8239 258.392 76.902 261.51 77.1647C264.629 77.4273 273.878 85.2541 273.878 85.2541Z" fill="url(#paint2_linear_3246_368)"/>
<path opacity="0.15" d="M58.5106 144.434H23.8245C23.8245 144.434 19.7152 140.889 21.0346 138.059C22.4066 135.117 28.1701 138.354 28.1701 138.354C28.1701 138.354 25.3146 132.254 30.8943 131.867C36.474 131.479 44.2593 139.004 44.2593 139.004C44.2593 139.004 43.0252 136.082 46.1433 136.345C49.2548 136.607 58.5106 144.434 58.5106 144.434Z" fill="url(#paint3_linear_3246_368)"/>
<path opacity="0.15" d="M194.298 17.9649H144.764C144.764 17.9649 138.895 12.8959 140.779 8.86433C142.735 4.6686 150.967 9.29113 150.967 9.29113C150.967 9.29113 146.891 0.577929 154.86 0.0263773C162.829 -0.53174 173.942 10.2169 173.942 10.2169C173.942 10.2169 172.183 6.04748 176.627 6.41518C181.071 6.78288 194.292 17.9649 194.292 17.9649H194.298Z" fill="url(#paint4_linear_3246_368)"/>
<path d="M85.7257 222.597C85.7257 222.597 58.2932 219.734 40.5234 190.075C40.5234 190.075 53.173 193.181 69.597 201.408C69.597 201.408 59.9605 192.61 55.0963 180.791C55.0963 180.791 64.398 184.645 74.3693 197.134C74.3693 197.134 65.8225 181.881 66.7415 167.547C66.7415 167.547 76.1286 172.156 86.2836 192.111C86.2836 192.111 86.4346 174.842 89.533 165.117C89.533 165.117 101.598 186.411 100.594 214.737L85.7125 222.604L85.7257 222.597Z" fill="url(#paint5_linear_3246_368)"/>
<path d="M252.453 249.603C252.453 249.603 258.486 219.261 277.759 208.198C277.759 208.198 275.586 224.797 257.481 249.603" fill="black"/>
<path d="M244.719 253.694C244.719 253.694 245.428 225.781 266.243 211.192C266.243 211.192 266.289 230.233 256.482 243.221C256.482 243.221 267.491 220.443 294.352 216.884C294.352 216.884 284.919 237.167 268.377 244.107C268.377 244.107 290.617 238.237 306.443 242.86C306.443 242.86 294.884 250.286 275.578 253.694" fill="url(#paint6_linear_3246_368)"/>
<path d="M123.248 87.4407C115.594 60.4279 87.1967 44.8991 60.2303 53.238C34.3076 61.2552 19.4 88.9181 26.9293 114.999C33.3755 137.336 54.0336 151.749 76.2736 151.191C79.6149 151.106 82.6017 153.253 83.5141 156.47L104.566 230.792C105.61 234.488 109.457 236.635 113.152 235.585C116.848 234.541 118.995 230.693 117.944 226.996L96.8923 152.675C95.9799 149.464 97.3846 146.069 100.273 144.388C119.579 133.16 129.622 109.916 123.255 87.4342L123.248 87.4407ZM85.5425 138.151C65.088 143.948 43.7997 132.057 38.0034 111.597C32.207 91.1375 44.0951 69.8436 64.5497 64.0458C85.0042 58.2479 106.292 70.1391 112.089 90.599C117.885 111.059 105.997 132.353 85.5425 138.151Z" fill="black"/>
<path d="M94.1562 93.6589C94.1562 93.6589 110.39 71.5115 124.155 63.0281H114.913C114.913 63.0281 98.6003 75.1885 94.1562 93.6589Z" fill="white"/>
<path d="M43.8438 97.3885C43.8438 97.3885 65.5784 110.862 76.0223 130.797C76.0223 130.797 93.7461 79.9489 127.31 56.0615C127.31 56.0615 95.2821 63.6848 73.2849 108.065C73.2849 108.065 59.3028 97.3885 43.8438 97.3885Z" fill="url(#paint7_linear_3246_368)"/>
<path d="M229.614 65.5954C242.082 65.5954 252.189 55.4856 252.189 43.0146C252.189 30.5436 242.082 20.4338 229.614 20.4338C217.146 20.4338 207.039 30.5436 207.039 43.0146C207.039 55.4856 217.146 65.5954 229.614 65.5954Z" fill="black"/>
<path d="M248.879 46.1622C250.622 35.5121 243.404 25.4646 232.757 23.7205C222.11 21.9765 212.065 29.1964 210.321 39.8465C208.578 50.4967 215.795 60.5442 226.443 62.2882C237.09 64.0323 247.135 56.8124 248.879 46.1622Z" fill="white"/>
<path d="M212.228 41.8328C212.878 41.8328 213.41 42.3646 213.41 43.0147C213.41 43.6647 212.878 44.1966 212.228 44.1966C211.579 44.1966 211.047 43.6647 211.047 43.0147C211.047 42.3646 211.579 41.8328 212.228 41.8328Z" fill="url(#paint8_linear_3246_368)"/>
<path d="M230.801 25.6211C230.801 26.2711 230.269 26.803 229.619 26.803C228.969 26.803 228.438 26.2711 228.438 25.6211C228.438 24.9711 228.969 24.4392 229.619 24.4392C230.269 24.4392 230.801 24.9711 230.801 25.6211Z" fill="url(#paint9_linear_3246_368)"/>
<path d="M247.002 44.19C246.352 44.19 245.82 43.6581 245.82 43.0081C245.82 42.358 246.352 41.8262 247.002 41.8262C247.652 41.8262 248.183 42.358 248.183 43.0081C248.183 43.6581 247.652 44.19 247.002 44.19Z" fill="url(#paint10_linear_3246_368)"/>
<path d="M228.438 60.4016C228.438 59.7516 228.969 59.2197 229.619 59.2197C230.269 59.2197 230.801 59.7516 230.801 60.4016C230.801 61.0517 230.269 61.5835 229.619 61.5835C228.969 61.5835 228.438 61.0517 228.438 60.4016Z" fill="url(#paint11_linear_3246_368)"/>
<path d="M229.615 46.2714C227.817 46.2714 226.359 44.8137 226.359 43.0146C226.359 41.2155 227.817 39.7578 229.615 39.7578C231.414 39.7578 232.871 41.2155 232.871 43.0146C232.871 44.8137 231.414 46.2714 229.615 46.2714Z" fill="url(#paint12_linear_3246_368)"/>
<path d="M229.611 45.1354C228.436 45.1354 227.484 44.1834 227.484 43.008C227.484 41.8327 228.436 40.8806 229.611 40.8806C230.786 40.8806 231.738 41.8327 231.738 43.008C231.738 44.1834 230.786 45.1354 229.611 45.1354Z" fill="black"/>
<path d="M220.378 35.3718L228.38 44.4198L229.608 43.0081L230.836 41.5964L220.785 34.899C220.484 34.6955 220.136 35.0894 220.378 35.3652V35.3718Z" fill="black"/>
<path d="M229.614 43.0146L219.039 53.6123" stroke="black" stroke-linecap="round" stroke-linejoin="round"/>
<path d="M209.006 80.9995H183.97C182.679 80.9995 181.633 82.0461 181.633 83.337V100.317C181.633 101.608 182.679 102.654 183.97 102.654H209.006C210.297 102.654 211.343 101.608 211.343 100.317V83.337C211.343 82.0461 210.297 80.9995 209.006 80.9995Z" fill="white"/>
<path d="M207.613 96.0753L196.486 88.1895L185.359 96.0753" stroke="black" stroke-width="0.75" stroke-linecap="round" stroke-linejoin="round"/>
<path d="M209.006 80.9995H183.97C182.679 80.9995 181.633 82.0461 181.633 83.337V100.317C181.633 101.608 182.679 102.654 183.97 102.654H209.006C210.297 102.654 211.343 101.608 211.343 100.317V83.337C211.343 82.0461 210.297 80.9995 209.006 80.9995Z" stroke="black" stroke-width="0.75" stroke-miterlimit="10"/>
<path d="M181.633 84.2102L194.814 93.5472C195.818 94.2563 197.164 94.2563 198.168 93.5472L211.35 84.2102" fill="white"/>
<path d="M181.633 84.2102L194.814 93.5472C195.818 94.2563 197.164 94.2563 198.168 93.5472L211.35 84.2102" stroke="black" stroke-width="0.75" stroke-linecap="round" stroke-linejoin="round"/>
<path d="M206.889 80.9995C206.889 83.035 205.241 84.6831 203.206 84.6831C201.171 84.6831 199.523 83.035 199.523 80.9995C199.523 78.964 201.171 77.3159 203.206 77.3159C205.241 77.3159 206.889 78.964 206.889 80.9995Z" fill="url(#paint13_linear_3246_368)"/>
<path d="M202.771 78.9575H201.648V83.0416H202.771V78.9575Z" fill="white"/>
<path d="M204.763 78.9575H203.641V83.0416H204.763V78.9575Z" fill="white"/>
<path d="M263.001 144.021H241.922C240.835 144.021 239.953 144.903 239.953 145.991V160.285C239.953 161.373 240.835 162.255 241.922 162.255H263.001C264.088 162.255 264.97 161.373 264.97 160.285V145.991C264.97 144.903 264.088 144.021 263.001 144.021Z" fill="white"/>
<path d="M261.828 156.72L252.461 150.081L243.094 156.72" stroke="black" stroke-width="0.75" stroke-linecap="round" stroke-linejoin="round"/>
<path d="M263.001 144.021H241.922C240.835 144.021 239.953 144.903 239.953 145.991V160.285C239.953 161.373 240.835 162.255 241.922 162.255H263.001C264.088 162.255 264.97 161.373 264.97 160.285V145.991C264.97 144.903 264.088 144.021 263.001 144.021Z" stroke="black" stroke-width="0.75" stroke-miterlimit="10"/>
<path d="M239.953 146.726L251.047 154.592C251.894 155.19 253.023 155.19 253.87 154.592L264.963 146.726" fill="white"/>
<path d="M239.953 146.726L251.047 154.592C251.894 155.19 253.023 155.19 253.87 154.592L264.963 146.726" stroke="black" stroke-width="0.75" stroke-linecap="round" stroke-linejoin="round"/>
<path d="M258.114 147.12C259.825 147.12 261.212 145.732 261.212 144.021C261.212 142.309 259.825 140.922 258.114 140.922C256.403 140.922 255.016 142.309 255.016 144.021C255.016 145.732 256.403 147.12 258.114 147.12Z" fill="url(#paint14_linear_3246_368)"/>
<path d="M257.75 142.307H256.805V145.741H257.75V142.307Z" fill="white"/>
<path d="M259.43 142.307H258.484V145.741H259.43V142.307Z" fill="white"/>
<path d="M13.8279 179.911H30.5408C31.4008 179.911 32.1031 180.607 32.1031 181.474V192.807C32.1031 193.667 31.4073 194.37 30.5408 194.37H13.8279C12.968 194.37 12.2656 193.674 12.2656 192.807V181.474C12.2656 180.614 12.9614 179.911 13.8279 179.911Z" fill="white"/>
<path d="M29.613 189.97L22.1821 184.711L14.7578 189.97" stroke="black" stroke-width="0.75" stroke-linecap="round" stroke-linejoin="round"/>
<path d="M13.8279 179.911H30.5408C31.4008 179.911 32.1031 180.607 32.1031 181.474V192.807C32.1031 193.667 31.4073 194.37 30.5408 194.37H13.8279C12.968 194.37 12.2656 193.674 12.2656 192.807V181.474C12.2656 180.614 12.9614 179.911 13.8279 179.911Z" stroke="black" stroke-width="0.75" stroke-miterlimit="10"/>
<path d="M12.2734 182.052L21.0697 188.29C21.7393 188.762 22.6386 188.762 23.3081 188.29L32.1044 182.052" fill="white"/>
<path d="M12.2734 182.052L21.0697 188.29C21.7393 188.762 22.6386 188.762 23.3081 188.29L32.1044 182.052" stroke="black" stroke-width="0.75" stroke-linecap="round" stroke-linejoin="round"/>
<path d="M265.55 231.415C261.027 228.9 252.48 218.316 252.48 218.316C241.662 203.969 215.661 184.533 155.505 191.277C95.3489 184.533 69.3475 203.962 58.5294 218.316C58.5294 218.316 49.9826 228.9 45.4598 231.415C40.9369 233.93 37.5431 237.607 38.0026 238.96C39.3024 242.775 52.7331 240.805 61.8247 250.037C63.0391 251.37 64.3914 252.722 65.8881 254.068H245.135C246.631 252.722 247.977 251.37 249.198 250.037C258.283 240.805 271.72 242.768 273.02 238.96C273.48 237.607 270.086 233.93 265.563 231.415H265.55Z" fill="url(#paint15_linear_3246_368)"/>
<mask id="mask0_3246_368" style="mask-type:luminance" maskUnits="userSpaceOnUse" x="37" y="189" width="237" height="66">
<path d="M265.55 231.415C261.027 228.9 252.48 218.316 252.48 218.316C241.662 203.969 215.661 184.533 155.505 191.277C95.3489 184.533 69.3475 203.962 58.5294 218.316C58.5294 218.316 49.9826 228.9 45.4598 231.415C40.9369 233.93 37.5431 237.607 38.0026 238.96C39.3024 242.775 52.7331 240.805 61.8247 250.037C63.0391 251.37 64.3914 252.722 65.8881 254.068H245.135C246.631 252.722 247.977 251.37 249.198 250.037C258.283 240.805 271.72 242.768 273.02 238.96C273.48 237.607 270.086 233.93 265.563 231.415H265.55Z" fill="white"/>
</mask>
<g mask="url(#mask0_3246_368)">
<path d="M42.6172 210.955C42.6172 210.955 60.1637 228.533 75.3012 219.885C92.1453 210.266 78.5702 188.401 78.5702 188.401" stroke="white" stroke-miterlimit="10"/>
<path d="M97.9231 185.472C97.9231 185.472 81.696 207.075 95.8947 218.585C110.369 230.319 132.445 210.266 123.721 205.341C113.041 199.307 106.037 237.233 132.406 244.528C162.654 252.899 184.277 225.545 170.643 217.396C154.469 207.731 137.014 261.665 170.643 261.665" stroke="white" stroke-miterlimit="10"/>
<path d="M191.524 181.697C191.524 181.697 186.2 205 204.685 211.185C226.308 218.421 236.7 195.341 236.7 195.341" stroke="white" stroke-miterlimit="10"/>
<path d="M200.121 256.478C200.121 256.478 197.357 235.079 213.755 232.44C229.602 229.892 232.313 247.312 225.236 246.668C218.35 246.038 216.158 222.282 231.335 214.98C246.544 207.666 257.192 218.126 262.719 224.79" stroke="white" stroke-miterlimit="10"/>
<path d="M53.5547 247.482C53.5547 247.482 58.1104 234.002 76.1821 235.368C95.9014 236.858 95.9014 255.802 95.9014 255.802" stroke="white" stroke-miterlimit="10"/>
</g>
<path d="M270.473 238.369C270.473 238.369 254.614 242.138 233.746 242.138C218.667 242.138 207.954 238.369 197.399 238.369C192.114 238.369 166.815 240.312 155.498 240.312C144.181 240.312 118.889 238.369 113.598 238.369C103.042 238.369 92.3294 242.138 77.2511 242.138C56.3829 242.138 40.5234 238.369 40.5234 238.369" stroke="black" stroke-width="0.44" stroke-linecap="round" stroke-linejoin="round"/>
<path d="M122.82 244.659L125.394 235.368L135.056 238.447L131.813 247.397L122.82 244.659Z" fill="url(#paint16_linear_3246_368)"/>
<path d="M127.847 228.684L124.617 220.463L133.394 217.403L136.098 226.261L127.847 228.684Z" fill="url(#paint17_linear_3246_368)"/>
<path d="M149.35 195.801L129.125 194.73C131.271 197.659 133.989 207.541 136.812 217.915C135.394 219.977 128.928 222.492 124.687 222.919C121.038 213.989 112.497 193.095 109.734 186.326C106.97 179.556 111.828 175.4 115.825 175.4H162.964C169.739 175.433 174.439 175.452 174.439 175.452L149.35 195.801Z" fill="url(#paint18_linear_3246_368)"/>
<path d="M135.555 195.072L154.808 181.467L140.708 195.348L135.555 195.072Z" fill="black"/>
<path d="M121.922 186.254C126.983 189.241 128.388 194.094 128.388 194.094" stroke="black" stroke-width="0.5" stroke-linecap="round" stroke-linejoin="round"/>
<path d="M131.091 213.299C129.056 206.458 123.365 190.417 121.914 186.254C130.527 186.628 146.439 187.974 146.439 187.974" stroke="black" stroke-width="0.5" stroke-linecap="round" stroke-linejoin="round"/>
<path d="M158.654 178.125C158.654 178.125 136.92 196.694 134.182 201.822C133.263 203.536 123.719 238.677 123.719 238.677C126.482 240.759 135.154 242.755 137.3 242.755C137.3 242.755 146.707 219.544 148.591 210.601L168.567 198.572C171.632 196.726 175.144 195.748 178.722 195.748H182.483C182.483 195.748 186.605 186.89 184.085 181.539L158.648 178.125H158.654Z" fill="url(#paint19_linear_3246_368)"/>
<path d="M145.516 206.26C145.516 206.26 147.826 207.823 148.279 210.272" stroke="black" stroke-width="0.5" stroke-linecap="round" stroke-linejoin="round"/>
<path d="M132.383 240.22C132.383 240.22 143.47 208.618 145.518 206.261C147.566 203.903 168.474 191.349 171.723 189.208C179.141 184.323 178.753 181.697 178.753 181.697" stroke="black" stroke-width="0.5" stroke-linecap="round" stroke-linejoin="round"/>
<path d="M172.483 180.876C172.483 180.876 166.292 185.328 170.362 190.075" stroke="black" stroke-miterlimit="10"/>
<path d="M151.371 156.818C150.662 156.647 149.979 156.463 149.329 156.266C142.647 154.303 140.789 151.959 140.789 151.959C144.984 140.186 146.704 135.445 148.666 133.278C150.117 131.676 158.447 130.094 160.22 129.89C160.673 132.766 150.321 144.224 150.065 144.362L151.364 156.818H151.371Z" fill="url(#paint20_linear_3246_368)"/>
<path d="M149.774 143.2L147.68 152.458L153.003 159.976L149.774 143.2Z" fill="black"/>
<path d="M185.235 183.719C184.88 184.868 181.729 186.91 179.438 188.204C179.438 188.204 169.933 185.229 160.5 177.389C155.958 173.621 150.247 175.538 150.273 175.4C152.104 165.531 150.562 164.553 150.45 157.002C150.45 156.811 150.437 156.627 150.437 156.437C150.24 144.795 149.058 138.978 149.603 135.38C152.301 132.366 159.745 129.995 160.218 129.897C160.238 129.89 168.049 129.838 169.756 129.897C173.655 130.902 180.561 132.976 183.994 138.827C183.804 143.502 184.106 149.182 183.541 156.463C183.443 157.56 183.357 175.032 185.228 183.719H185.235Z" fill="url(#paint21_linear_3246_368)"/>
<path d="M151.898 110.855C151.898 110.855 150.369 116.18 153.69 116.771L154.432 112.28" fill="black"/>
<path d="M169.76 129.851C168.979 129.733 168.802 121.262 168.802 121.262H168.782C169.045 120.947 169.261 120.58 169.393 120.074C170.056 117.474 170.988 112.674 169.8 109.785C168.106 105.668 153.487 101.761 153.33 111.788C153.33 111.788 151.577 125.156 157.472 127.349C157.472 127.349 158.85 127.474 160.655 127.087C160.445 128.439 160.229 129.851 160.229 129.851H160.222C159.736 130.462 157.682 135.123 162.257 135.668C169.366 136.515 170.948 130.402 169.767 129.851H169.76Z" fill="url(#paint22_linear_3246_368)"/>
<path style="mix-blend-mode:multiply" d="M166.103 124.093C165.991 124.368 164.14 128.827 160.273 129.536L160.661 127.08C162.354 126.719 164.429 125.898 166.103 124.093Z" fill="url(#paint23_linear_3246_368)"/>
<path d="M169.703 124.211L168.948 124.651C168.752 122.464 168.817 120.468 168.686 118.938C169.113 117.277 168.758 115.117 167.334 114.992C165.036 114.788 164.957 118.104 164.957 118.104C162.949 117.75 162.568 114.335 162.423 113.035C161.124 113.475 150.384 115.169 150.91 109.043C150.91 109.043 150.43 108.097 150.273 107.139C149.006 99.5353 157.264 102.405 157.264 102.405C157.264 102.405 158.636 99.2267 162.87 100.737C165.824 101.794 167.34 103.994 167.34 103.994C167.34 103.994 168.522 103.035 169.605 104.506C170.307 105.464 169.854 107.5 169.854 107.5C176.885 108.787 169.789 123.731 169.703 124.217V124.211Z" fill="black"/>
<path d="M172.866 147.763L176.463 160.337C178.222 160.337 182.135 159.576 183.376 158.702L172.859 147.763H172.866Z" fill="black"/>
<path d="M159.457 168.23C159.457 168.23 156.155 169.083 155.505 169.372C155.196 169.51 151.914 172.104 151.474 172.452C151.035 172.8 151.914 173.456 153.109 173.332C154.304 173.207 157.474 171.224 157.474 171.224L159.457 168.775" fill="url(#paint24_linear_3246_368)"/>
<path d="M186.889 143.417L175.316 148.774C175.316 148.774 179.267 156.667 181.893 162.189C179.366 162.806 165.863 167.389 165.863 167.389C165.863 167.389 160.27 167.816 159.45 168.23C158.531 168.689 153.227 173.995 153.227 173.995H155.216L159.765 172.76C159.765 172.76 162.312 173.417 163.723 173.351C165.134 173.286 166.749 172.071 166.657 172.071C166.657 172.071 189.961 172.038 191.313 171.565C193.735 170.731 194.759 168.624 194.871 166.096C195.035 162.393 186.889 143.417 186.889 143.417Z" fill="url(#paint25_linear_3246_368)"/>
<path d="M163.126 175.4H148.789V173.995H163.126C163.513 173.995 163.828 174.31 163.828 174.697C163.828 175.085 163.513 175.4 163.126 175.4Z" fill="white"/>
<path d="M155.362 175.4H121.096C120.669 175.4 120.289 175.111 120.177 174.697L112.831 148.236C112.667 147.652 113.107 147.074 113.718 147.074H146.802C147.61 147.074 148.318 147.612 148.535 148.394L155.854 174.756C155.946 175.078 155.703 175.4 155.369 175.4H155.362Z" fill="white"/>
<path d="M154.065 175.4H119.799C119.372 175.4 118.992 175.111 118.88 174.697L111.535 148.236C111.371 147.652 111.81 147.074 112.421 147.074H145.505C146.313 147.074 147.022 147.612 147.238 148.394L154.557 174.756C154.649 175.078 154.407 175.4 154.072 175.4H154.065Z" fill="#7050D9"/>
<path d="M135.065 162.294C135.065 163.377 133.569 164.251 131.724 164.251C129.879 164.251 128.383 163.377 128.383 162.294C128.383 161.21 129.879 160.337 131.724 160.337C133.569 160.337 135.065 161.21 135.065 162.294Z" stroke="white" stroke-width="0.5" stroke-miterlimit="10"/>
<path d="M171.435 144.211C175.131 153.522 176.706 156.706 176.706 156.706C185.627 155.478 191.522 151.532 191.522 151.532C188.909 144.342 184.944 135.419 182.68 133.594C180.198 131.591 170.641 130.127 170.641 130.127" fill="url(#paint26_linear_3246_368)"/>
<path d="M182.352 162.012C182.352 162.012 187.715 160.548 190.944 163.312" stroke="black" stroke-width="0.25" stroke-linecap="round" stroke-linejoin="round"/>
<path d="M121.229 241.054C120.363 241.468 118.577 244.212 118.577 244.212C118.577 244.212 115.118 245.355 111.796 246.478C103.952 246.983 105.179 254.068 105.179 254.068H133.734C133.734 254.068 134.916 248.546 132.369 245.854L126.31 244.508C126.31 244.508 126.526 242.289 126.165 241.724C125.798 241.146 122.095 240.647 121.229 241.054Z" fill="url(#paint27_linear_3246_368)"/>
<path d="M133.995 251.737C133.943 253.083 133.733 254.068 133.733 254.068H105.178C105.178 254.068 105 253.044 105.217 251.737H133.995Z" fill="black"/>
<path d="M197.436 253.963H192.906V240.903H200.061L197.436 253.963Z" fill="black"/>
<path d="M224.923 253.963H229.445V240.903H222.297L224.923 253.963Z" fill="black"/>
<path d="M230.786 198.014H191.57V242.63H230.786V198.014Z" fill="black"/>
<path d="M228.8 200.515H193.562V218.566H228.8V200.515Z" fill="white"/>
<path d="M228.8 222.085H193.562V240.135H228.8V222.085Z" fill="white"/>
<path d="M216.078 202.17H206.277L205.312 200.108H217.043L216.078 202.17Z" fill="url(#paint28_linear_3246_368)"/>
<path d="M216.078 223.543H206.277L205.312 221.488H217.043L216.078 223.543Z" fill="url(#paint29_linear_3246_368)"/>
<path d="M220.547 172.925H219.234V196.983H220.547V172.925Z" fill="url(#paint30_linear_3246_368)"/>
<path d="M220.276 172.11L219.245 172.925L204.758 154.553C204.535 154.27 204.581 153.857 204.87 153.633C205.152 153.41 205.565 153.456 205.789 153.745L220.276 172.117V172.11Z" fill="url(#paint31_linear_3246_368)"/>
<path d="M228.092 195.433H211.688V198.02H228.092V195.433Z" fill="url(#paint32_linear_3246_368)"/>
<path d="M219.893 174.455C220.839 174.455 221.606 173.687 221.606 172.741C221.606 171.794 220.839 171.027 219.893 171.027C218.947 171.027 218.18 171.794 218.18 172.741C218.18 173.687 218.947 174.455 219.893 174.455Z" fill="black"/>
<path d="M203.358 164.829C201.973 165.912 199.971 165.669 198.888 164.284C197.804 162.898 198.047 160.896 199.432 159.812C200.817 158.729 202.82 158.972 203.903 160.357C204.986 161.743 204.743 163.745 203.358 164.829Z" fill="url(#paint33_linear_3246_368)"/>
<path d="M208.002 161.053L211.08 158.19L207.706 153.876L204.188 156.175C200.459 154.133 196.711 157.054 196.711 157.054L201.03 162.577L205.35 168.099C205.35 168.099 209.078 165.164 208.002 161.053Z" fill="url(#paint34_linear_3246_368)"/>
<path d="M205.143 157.192L204.742 156.687L207.729 154.717L208.077 155.164L205.143 157.192Z" fill="black"/>
<path d="M205.98 158.269L205.586 157.764L208.468 155.663L208.816 156.109L205.98 158.269Z" fill="black"/>
<path d="M206.83 159.353L206.43 158.841L209.213 156.615L209.561 157.055L206.83 159.353Z" fill="black"/>
<path d="M207.674 160.429L207.273 159.924L209.945 157.56L210.293 158.007L207.674 160.429Z" fill="black"/>
<path d="M216.134 194.172H213.633V195.426H216.134V194.172Z" fill="black"/>
<path d="M208.723 189.202C207.745 188.749 206.826 189.11 206.169 189.563V188.834H194.938V194.238C194.938 195.105 195.331 195.919 196.001 196.457C196.467 196.832 197.038 197.035 197.635 197.062H197.629V198.02H203.484V197.068H203.478C204.075 197.035 204.646 196.832 205.112 196.457C205.591 196.07 205.926 195.538 206.077 194.954C206.235 194.974 206.399 194.993 206.543 194.993C208.316 194.993 209.484 193.805 209.878 192.505C210.318 191.08 209.839 189.721 208.729 189.209L208.723 189.202ZM209.241 192.308C208.92 193.365 207.915 194.481 206.156 194.297C206.156 194.278 206.163 194.258 206.163 194.232V190.39C206.681 189.944 207.567 189.392 208.44 189.799C209.379 190.233 209.51 191.408 209.235 192.308H209.241Z" fill="black"/>
<path d="M252.343 128.509L249.414 125.579L246.485 128.509L249.414 131.439L252.343 128.509Z" fill="black"/>
<path d="M263.296 128.51L260.367 125.58L257.438 128.51L260.367 131.44L263.296 128.51Z" fill="black"/>
<path d="M274.257 128.509L271.328 125.58L268.399 128.509L271.328 131.439L274.257 128.509Z" fill="black"/>
<path d="M285.21 128.51L282.281 125.581L279.352 128.51L282.281 131.44L285.21 128.51Z" fill="black"/>
<path d="M110.36 35.5486L108.703 33.8911L107.046 35.5486L108.703 37.2062L110.36 35.5486Z" fill="black"/>
<path d="M116.563 35.5455L114.906 33.8879L113.249 35.5455L114.906 37.203L116.563 35.5455Z" fill="black"/>
<path d="M122.766 35.5469L121.109 33.8894L119.452 35.5469L121.109 37.2044L122.766 35.5469Z" fill="black"/>
<path d="M128.97 35.5484L127.312 33.8909L125.655 35.5484L127.312 37.2059L128.97 35.5484Z" fill="black"/>
<path d="M28.8993 216.327L27.2422 214.67L25.5851 216.327L27.2422 217.985L28.8993 216.327Z" fill="black"/>
<path d="M35.0946 216.324L33.4375 214.667L31.7804 216.324L33.4375 217.982L35.0946 216.324Z" fill="black"/>
<path d="M41.2977 216.325L39.6406 214.668L37.9835 216.325L39.6406 217.983L41.2977 216.325Z" fill="black"/>
<path d="M47.493 216.322L45.8359 214.665L44.1789 216.322L45.8359 217.98L47.493 216.322Z" fill="black"/>
<path d="M239.352 188.642L237.695 186.985L236.038 188.642L237.695 190.3L239.352 188.642Z" fill="black"/>
<path d="M245.548 188.639L243.891 186.982L242.234 188.639L243.891 190.297L245.548 188.639Z" fill="black"/>
<path d="M251.751 188.641L250.094 186.983L248.437 188.641L250.094 190.298L251.751 188.641Z" fill="black"/>
<path d="M257.954 188.642L256.297 186.985L254.64 188.642L256.297 190.3L257.954 188.642Z" fill="black"/>
<path d="M18.4851 161.62L14.7578 157.892L11.0305 161.62L14.7578 165.348L18.4851 161.62Z" fill="black"/>
<path d="M32.4304 161.626L28.7031 157.897L24.9758 161.626L28.7031 165.354L32.4304 161.626Z" fill="black"/>
<path d="M46.3679 161.62L42.6406 157.892L38.9133 161.62L42.6406 165.349L46.3679 161.62Z" fill="black"/>
<path d="M213.19 90.888C213.19 90.888 232.017 87.165 236.822 102.654C241.975 119.267 226.851 130.344 214.825 125.59C202.201 120.6 212.928 108.131 220.293 121.381C231.163 140.928 208.812 156.116 192.578 142.314" stroke="black" stroke-width="0.44" stroke-linecap="round" stroke-linejoin="round"/>
<path d="M21.3763 196.503C11.5692 211.967 17.4771 233.471 43.879 229.445" stroke="black" stroke-width="0.44" stroke-linecap="round" stroke-linejoin="round"/>
<path d="M95.8984 259.453H225.236" stroke="black" stroke-miterlimit="10" stroke-linecap="round"/>
<path d="M0.328125 254.068H310.672" stroke="black" stroke-miterlimit="10" stroke-linecap="round"/>
</g>
<defs>
<linearGradient id="paint0_linear_3246_368" x1="166.66" y1="50.7757" x2="166.66" y2="210.673" gradientUnits="userSpaceOnUse">
<stop stop-color="#8AB9FD"/>
<stop offset="1" stop-color="#0056E9"/>
</linearGradient>
<linearGradient id="paint1_linear_3246_368" x1="68.9841" y1="37.9521" x2="68.9841" y2="64.8993" gradientUnits="userSpaceOnUse">
<stop stop-color="#8AB9FD"/>
<stop offset="1" stop-color="#0056E9"/>
</linearGradient>
<linearGradient id="paint2_linear_3246_368" x1="236.139" y1="78.9572" x2="273.878" y2="78.9572" gradientUnits="userSpaceOnUse">
<stop stop-color="#8AB9FD"/>
<stop offset="1" stop-color="#0056E9"/>
</linearGradient>
<linearGradient id="paint3_linear_3246_368" x1="20.772" y1="138.144" x2="58.5106" y2="138.144" gradientUnits="userSpaceOnUse">
<stop stop-color="#8AB9FD"/>
<stop offset="1" stop-color="#0056E9"/>
</linearGradient>
<linearGradient id="paint4_linear_3246_368" x1="140.411" y1="8.98252" x2="194.298" y2="8.98252" gradientUnits="userSpaceOnUse">
<stop stop-color="#8AB9FD"/>
<stop offset="1" stop-color="#0056E9"/>
</linearGradient>
<linearGradient id="paint5_linear_3246_368" x1="90.3076" y1="204.048" x2="60.7998" y2="175.217" gradientUnits="userSpaceOnUse">
<stop stop-color="#53B0B1"/>
<stop offset="1" stop-color="#6ACAD8"/>
</linearGradient>
<linearGradient id="paint6_linear_3246_368" x1="262.508" y1="253.661" x2="287.657" y2="224.494" gradientUnits="userSpaceOnUse">
<stop stop-color="#53B0B1"/>
<stop offset="1" stop-color="#6ACAD8"/>
</linearGradient>
<linearGradient id="paint7_linear_3246_368" x1="85.58" y1="62.0892" x2="85.58" y2="146.083" gradientUnits="userSpaceOnUse">
<stop stop-color="#8AB9FD"/>
<stop offset="1" stop-color="#0056E9"/>
</linearGradient>
<linearGradient id="paint8_linear_3246_368" x1="212.228" y1="59.5218" x2="212.228" y2="25.1352" gradientUnits="userSpaceOnUse">
<stop stop-color="#FF9C00"/>
<stop offset="1" stop-color="#FFCA00"/>
</linearGradient>
<linearGradient id="paint9_linear_3246_368" x1="229.619" y1="59.5152" x2="229.619" y2="25.1352" gradientUnits="userSpaceOnUse">
<stop stop-color="#FF9C00"/>
<stop offset="1" stop-color="#FFCA00"/>
</linearGradient>
<linearGradient id="paint10_linear_3246_368" x1="247.002" y1="59.5218" x2="247.002" y2="25.1352" gradientUnits="userSpaceOnUse">
<stop stop-color="#FF9C00"/>
<stop offset="1" stop-color="#FFCA00"/>
</linearGradient>
<linearGradient id="paint11_linear_3246_368" x1="229.619" y1="59.5218" x2="229.619" y2="25.1352" gradientUnits="userSpaceOnUse">
<stop stop-color="#FF9C00"/>
<stop offset="1" stop-color="#FFCA00"/>
</linearGradient>
<linearGradient id="paint12_linear_3246_368" x1="229.615" y1="59.5217" x2="229.615" y2="25.1351" gradientUnits="userSpaceOnUse">
<stop stop-color="#FF9C00"/>
<stop offset="1" stop-color="#FFCA00"/>
</linearGradient>
<linearGradient id="paint13_linear_3246_368" x1="203.213" y1="84.532" x2="203.213" y2="78.4059" gradientUnits="userSpaceOnUse">
<stop stop-color="#BE1E2B"/>
<stop offset="1" stop-color="#D3535C"/>
</linearGradient>
<linearGradient id="paint14_linear_3246_368" x1="258.114" y1="147.002" x2="258.114" y2="141.834" gradientUnits="userSpaceOnUse">
<stop stop-color="#53B0B1"/>
<stop offset="1" stop-color="#6ACAD8"/>
</linearGradient>
<linearGradient id="paint15_linear_3246_368" x1="155.505" y1="193.109" x2="155.505" y2="254.987" gradientUnits="userSpaceOnUse">
<stop stop-color="#6F95ED"/>
<stop offset="1" stop-color="#5873EC"/>
</linearGradient>
<linearGradient id="paint16_linear_3246_368" x1="131.236" y1="234.994" x2="125.956" y2="247.816" gradientUnits="userSpaceOnUse">
<stop stop-color="#FFD2B6"/>
<stop offset="1" stop-color="#FFB793"/>
</linearGradient>
<linearGradient id="paint17_linear_3246_368" x1="128.49" y1="216.083" x2="132.267" y2="230.791" gradientUnits="userSpaceOnUse">
<stop stop-color="#FFD2B6"/>
<stop offset="1" stop-color="#FFB793"/>
</linearGradient>
<linearGradient id="paint18_linear_3246_368" x1="141.682" y1="251.875" x2="141.682" y2="191.979" gradientUnits="userSpaceOnUse">
<stop stop-color="#3F2DD1"/>
<stop offset="1" stop-color="#4B3FFA"/>
</linearGradient>
<linearGradient id="paint19_linear_3246_368" x1="154.315" y1="242.643" x2="154.315" y2="181.789" gradientUnits="userSpaceOnUse">
<stop stop-color="#3F2DD1"/>
<stop offset="1" stop-color="#4B3FFA"/>
</linearGradient>
<linearGradient id="paint20_linear_3246_368" x1="150.517" y1="182.294" x2="150.517" y2="117.599" gradientUnits="userSpaceOnUse">
<stop stop-color="#FF9C00"/>
<stop offset="1" stop-color="#FFCA00"/>
</linearGradient>
<linearGradient id="paint21_linear_3246_368" x1="167.347" y1="182.294" x2="167.347" y2="117.599" gradientUnits="userSpaceOnUse">
<stop stop-color="#FF9C00"/>
<stop offset="1" stop-color="#FFCA00"/>
</linearGradient>
<linearGradient id="paint22_linear_3246_368" x1="161.725" y1="109.115" x2="161.725" y2="130.054" gradientUnits="userSpaceOnUse">
<stop stop-color="#FFD2B6"/>
<stop offset="1" stop-color="#FFB793"/>
</linearGradient>
<linearGradient id="paint23_linear_3246_368" x1="160.273" y1="126.811" x2="166.103" y2="126.811" gradientUnits="userSpaceOnUse">
<stop stop-color="#FFD2B6"/>
<stop offset="1" stop-color="#FFB793"/>
</linearGradient>
<linearGradient id="paint24_linear_3246_368" x1="155.407" y1="173.286" x2="155.407" y2="169.576" gradientUnits="userSpaceOnUse">
<stop stop-color="#FFD2B6"/>
<stop offset="1" stop-color="#FFB793"/>
</linearGradient>
<linearGradient id="paint25_linear_3246_368" x1="174.049" y1="173.621" x2="174.049" y2="151.447" gradientUnits="userSpaceOnUse">
<stop stop-color="#FFD2B6"/>
<stop offset="1" stop-color="#FFB793"/>
</linearGradient>
<linearGradient id="paint26_linear_3246_368" x1="181.085" y1="182.294" x2="181.085" y2="117.599" gradientUnits="userSpaceOnUse">
<stop stop-color="#FF9C00"/>
<stop offset="1" stop-color="#FFCA00"/>
</linearGradient>
<linearGradient id="paint27_linear_3246_368" x1="119.562" y1="254.042" x2="119.562" y2="241.652" gradientUnits="userSpaceOnUse">
<stop stop-color="#FF9C00"/>
<stop offset="1" stop-color="#FFCA00"/>
</linearGradient>
<linearGradient id="paint28_linear_3246_368" x1="211.174" y1="198.762" x2="211.174" y2="201.861" gradientUnits="userSpaceOnUse">
<stop stop-color="#3F2DD1"/>
<stop offset="1" stop-color="#4B3FFA"/>
</linearGradient>
<linearGradient id="paint29_linear_3246_368" x1="211.174" y1="220.141" x2="211.174" y2="223.234" gradientUnits="userSpaceOnUse">
<stop stop-color="#3F2DD1"/>
<stop offset="1" stop-color="#4B3FFA"/>
</linearGradient>
<linearGradient id="paint30_linear_3246_368" x1="219.891" y1="193.923" x2="219.891" y2="173.233" gradientUnits="userSpaceOnUse">
<stop stop-color="#BE1E2B"/>
<stop offset="1" stop-color="#D3535C"/>
</linearGradient>
<linearGradient id="paint31_linear_3246_368" x1="217.855" y1="170.133" x2="205.042" y2="153.891" gradientUnits="userSpaceOnUse">
<stop stop-color="#BE1E2B"/>
<stop offset="1" stop-color="#D3535C"/>
</linearGradient>
<linearGradient id="paint32_linear_3246_368" x1="211.688" y1="196.727" x2="228.092" y2="196.727" gradientUnits="userSpaceOnUse">
<stop stop-color="#BE1E2B"/>
<stop offset="1" stop-color="#D3535C"/>
</linearGradient>
<linearGradient id="paint33_linear_3246_368" x1="203.776" y1="160.474" x2="199.004" y2="164.208" gradientUnits="userSpaceOnUse">
<stop stop-color="#FF9C00"/>
<stop offset="1" stop-color="#FFCA00"/>
</linearGradient>
<linearGradient id="paint34_linear_3246_368" x1="209.17" y1="156.22" x2="201.213" y2="162.446" gradientUnits="userSpaceOnUse">
<stop stop-color="#BE1E2B"/>
<stop offset="1" stop-color="#D3535C"/>
</linearGradient>
<clipPath id="clip0_3246_368">
<rect width="311" height="262" fill="white"/>
</clipPath>
</defs>
</svg>
