<svg width="28" height="28" viewBox="0 0 28 28" fill="none" xmlns="http://www.w3.org/2000/svg">
<path d="M23.3695 3.99411C20.7988 1.41726 17.3753 0 13.737 0C6.22737 0 0.116571 6.1108 0.116571 13.6205C0.116571 16.0194 0.742376 18.3631 1.93263 20.4307L0 27.4863L7.2213 25.5905C9.20915 26.6765 11.4485 27.2471 13.7309 27.2471H13.737C21.2406 27.2471 27.4863 21.1363 27.4863 13.6266C27.4863 9.98834 25.9402 6.57095 23.3695 3.99411ZM13.737 24.9524C11.7001 24.9524 9.70611 24.4064 7.96981 23.3756L7.55874 23.1302L3.27627 24.253L4.41745 20.0748L4.14749 19.6454C3.01245 17.8416 2.41732 15.7617 2.41732 13.6205C2.41732 7.38082 7.49739 2.30075 13.7432 2.30075C16.7679 2.30075 19.6085 3.47874 21.7436 5.61997C23.8787 7.76121 25.1917 10.6019 25.1856 13.6266C25.1856 19.8724 19.9767 24.9524 13.737 24.9524ZM19.946 16.4734C19.6086 16.3016 17.9336 15.4795 17.6207 15.369C17.3078 15.2525 17.0808 15.1972 16.8538 15.5408C16.6268 15.8844 15.9764 16.6452 15.774 16.8783C15.5776 17.1053 15.3752 17.136 15.0377 16.9642C13.0376 15.9642 11.7246 15.1788 10.4055 12.9149C10.0558 12.3136 10.7553 12.3566 11.4056 11.0559C11.516 10.8289 11.4608 10.6325 11.3749 10.4608C11.289 10.289 10.608 8.61402 10.3258 7.933C10.0497 7.27038 9.76746 7.36241 9.55886 7.35014C9.36253 7.33787 9.13552 7.33787 8.90852 7.33787C8.68151 7.33787 8.31339 7.42376 8.00048 7.76121C7.68758 8.10479 6.81023 8.92692 6.81023 10.6019C6.81023 12.2768 8.03116 13.8965 8.19682 14.1236C8.36861 14.3506 10.5957 17.7864 14.0131 19.265C16.1728 20.1975 17.0194 20.2773 18.0993 20.1178C18.7557 20.0196 20.1116 19.2956 20.3939 18.4981C20.6761 17.7005 20.6761 17.0194 20.5902 16.8783C20.5104 16.7249 20.2834 16.639 19.946 16.4734Z" fill="url(#paint0_linear_3071_164)"/>
<defs>
<linearGradient id="paint0_linear_3071_164" x1="13.7432" y1="0" x2="13.7432" y2="27.4863" gradientUnits="userSpaceOnUse">
<stop stop-color="#02BB3F"/>
<stop offset="1" stop-color="#01551D"/>
</linearGradient>
</defs>
</svg>
