<svg width="17" height="17" viewBox="0 0 17 17" fill="none" xmlns="http://www.w3.org/2000/svg">
<path d="M16.1046 8.03018C16.1046 12.4651 12.4994 16.0604 8.05228 16.0604C3.60511 16.0604 0 12.4651 0 8.03018C0 3.59522 3.60511 0 8.05228 0C12.4994 0 16.1046 3.59522 16.1046 8.03018ZM7.12088 12.2821L13.0951 6.32422C13.298 6.12191 13.298 5.79387 13.0951 5.59156L12.3605 4.8589C12.1576 4.65656 11.8287 4.65656 11.6258 4.8589L6.75352 9.71774L4.47879 7.44925C4.27592 7.24694 3.94698 7.24694 3.74408 7.44925L3.00941 8.18191C2.80654 8.38422 2.80654 8.71225 3.00941 8.91456L6.38617 12.2821C6.58907 12.4844 6.91798 12.4844 7.12088 12.2821Z" fill="#DE0400"/>
<path d="M16.1046 8.03018C16.1046 12.4651 12.4994 16.0604 8.05228 16.0604C3.60511 16.0604 0 12.4651 0 8.03018C0 3.59522 3.60511 0 8.05228 0C12.4994 0 16.1046 3.59522 16.1046 8.03018ZM7.12088 12.2821L13.0951 6.32422C13.298 6.12191 13.298 5.79387 13.0951 5.59156L12.3605 4.8589C12.1576 4.65656 11.8287 4.65656 11.6258 4.8589L6.75352 9.71774L4.47879 7.44925C4.27592 7.24694 3.94698 7.24694 3.74408 7.44925L3.00941 8.18191C2.80654 8.38422 2.80654 8.71225 3.00941 8.91456L6.38617 12.2821C6.58907 12.4844 6.91798 12.4844 7.12088 12.2821Z" fill="url(#paint0_linear_3237_133)"/>
<defs>
<linearGradient id="paint0_linear_3237_133" x1="8.05228" y1="16.0604" x2="8.05228" y2="0" gradientUnits="userSpaceOnUse">
<stop stop-color="#353D76"/>
<stop offset="1" stop-color="#6372DC"/>
</linearGradient>
</defs>
</svg>
