<svg width="158" height="118" viewBox="0 0 158 118" fill="none" xmlns="http://www.w3.org/2000/svg">
<path d="M58.0371 117.021C57.6071 116.691 57.1671 116.051 56.7471 116.071C52.9571 116.191 50.0071 114.481 47.4571 111.931C33.0771 97.5708 18.7471 83.1808 4.3371 68.8608C1.4471 65.9908 0.247101 62.5508 0.0371008 58.6308C-0.162899 54.9108 0.297101 51.3908 1.9871 47.9408C4.2371 43.3708 7.7471 40.5408 12.4871 39.0308C20.2171 36.5608 26.8771 38.3808 32.5571 44.0508C41.5171 52.9908 50.4571 61.9508 59.5371 71.0208C61.4971 69.0608 63.4571 67.1008 65.4171 65.1408C84.6071 45.9508 103.767 26.7108 123.037 7.60081C126.037 4.63081 129.197 1.74081 133.687 0.780808C136.847 0.100808 139.207 0.180808 142.127 0.510808C146.017 0.940808 148.807 3.35081 151.587 5.37081C154.587 7.55081 156.327 11.3708 156.897 15.0208C157.987 21.9808 156.197 28.3608 151.047 33.5108C125.497 59.0608 99.9771 84.6508 74.3471 110.121C71.1171 113.331 67.2971 115.971 62.3971 116.201C62.2671 116.201 62.1571 116.731 62.0371 117.021H58.0371Z" fill="#350389"/>
</svg>
